<svg width="1200" height="630" viewBox="0 0 1200 630" xmlns="http://www.w3.org/2000/svg"><mask id="satori_om-id"><rect x="0" y="0" width="1200" height="630" fill="#fff"/></mask><rect x="0" y="0" width="1200" height="630" fill="#fefbfb"/><defs><clipPath id="satori_bc-id-0"><path x="105" y="39" width="1056" height="504" d="M109,39 h1048 a4,4 0 0 1 4,4 v496 a4,4 0 0 1 -4,4 h-1048 a4,4 0 0 1 -4,-4 v-496 a4,4 0 0 1 4,-4"/></clipPath></defs><mask id="satori_om-id-0"><rect x="109" y="43" width="1048" height="496" fill="#fff"/><path width="1056" height="504" fill="none" stroke="#000" stroke-width="8" d="M106.172,40.172 A4,4 0 0 1 109,39 h1048 a4,4 0 0 1 4,4 v496 a4,4 0 0 1 -4,4 h-1048 a4,4 0 0 1 -4,-4 v-496 A4,4 0 0 1 106.172,40.172"/></mask><g opacity="0.9"><path x="105" y="39" width="1056" height="504" fill="#ecebeb" d="M109,39 h1048 a4,4 0 0 1 4,4 v496 a4,4 0 0 1 -4,4 h-1048 a4,4 0 0 1 -4,-4 v-496 a4,4 0 0 1 4,-4"/><path width="1056" height="504" clip-path="url(#satori_bc-id-0)" fill="none" stroke="#000" stroke-width="8" d="M106.172,40.172 A4,4 0 0 1 109,39 h1048 a4,4 0 0 1 4,4 v496 a4,4 0 0 1 -4,4 h-1048 a4,4 0 0 1 -4,-4 v-496 A4,4 0 0 1 106.172,40.172"/></g><defs><clipPath id="satori_bc-id-1"><path x="72" y="63" width="1056" height="504" d="M76,63 h1048 a4,4 0 0 1 4,4 v496 a4,4 0 0 1 -4,4 h-1048 a4,4 0 0 1 -4,-4 v-496 a4,4 0 0 1 4,-4"/></clipPath></defs><mask id="satori_om-id-1"><rect x="76" y="67" width="1048" height="496" fill="#fff"/><path width="1056" height="504" fill="none" stroke="#000" stroke-width="8" d="M73.172,64.172 A4,4 0 0 1 76,63 h1048 a4,4 0 0 1 4,4 v496 a4,4 0 0 1 -4,4 h-1048 a4,4 0 0 1 -4,-4 v-496 A4,4 0 0 1 73.172,64.172"/></mask><path x="72" y="63" width="1056" height="504" fill="#fefbfb" d="M76,63 h1048 a4,4 0 0 1 4,4 v496 a4,4 0 0 1 -4,4 h-1048 a4,4 0 0 1 -4,-4 v-496 a4,4 0 0 1 4,-4"/><path width="1056" height="504" clip-path="url(#satori_bc-id-1)" fill="none" stroke="#000" stroke-width="8" d="M73.172,64.172 A4,4 0 0 1 76,63 h1048 a4,4 0 0 1 4,4 v496 a4,4 0 0 1 -4,4 h-1048 a4,4 0 0 1 -4,-4 v-496 A4,4 0 0 1 73.172,64.172"/><mask id="satori_om-id-1-0"><rect x="128" y="87" width="944" height="446" fill="#fff"/></mask><clipPath id="satori_cp-id-1-0-0"><rect x="128" y="103" width="944" height="94"/></clipPath><mask id="satori_om-id-1-0-0"><rect x="128" y="103" width="944" height="94" fill="#fff"/></mask><path fill="black" d="M156.3 183.0L156.3 176.2L155.8 176.2Q154.4 179.6 151.8 181.7Q149.2 183.8 144.8 183.8L144.8 183.8Q141.7 183.8 139.1 182.7Q136.6 181.5 134.7 179.1Q132.9 176.8 131.9 173.1Q130.8 169.4 130.8 164.4L130.8 164.4Q130.8 159.3 131.9 155.7Q132.9 152.0 134.7 149.6Q136.6 147.2 139.1 146.1Q141.7 144.9 144.8 144.9L144.8 144.9Q147.0 144.9 148.7 145.5Q150.5 146.1 151.8 147.1Q153.1 148.1 154.1 149.5Q155.1 150.9 155.8 152.6L155.8 152.6L156.3 152.6L156.3 129.7L167.0 129.7L167.0 183.0L156.3 183.0ZM149.4 175.5L149.4 175.5Q152.2 175.5 154.2 174.2Q156.3 172.8 156.3 169.8L156.3 169.8L156.3 158.9Q156.3 156.0 154.2 154.6Q152.2 153.2 149.4 153.2L149.4 153.2Q145.8 153.2 143.8 155.4Q141.9 157.6 141.9 161.5L141.9 161.5L141.9 167.3Q141.9 171.1 143.8 173.3Q145.8 175.5 149.4 175.5ZM195.1 141.0L195.1 141.0Q191.5 141.0 190.1 139.6Q188.7 138.1 188.7 136.0L188.7 136.0L188.7 133.9Q188.7 131.8 190.1 130.3Q191.5 128.9 195.1 128.9L195.1 128.9Q198.7 128.9 200.1 130.3Q201.5 131.8 201.5 133.9L201.5 133.9L201.5 136.0Q201.5 138.1 200.1 139.6Q198.7 141.0 195.1 141.0ZM178.0 183.0L178.0 174.7L189.8 174.7L189.8 154.1L178.0 154.1L178.0 145.8L200.4 145.8L200.4 174.7L211.4 174.7L211.4 183.0L178.0 183.0ZM255.6 183.0L249.5 183.0Q246.2 183.0 244.1 181.3Q242.1 179.6 241.8 176.4L241.8 176.4L241.4 176.4Q240.4 180.1 237.4 181.9Q234.4 183.8 230.1 183.8L230.1 183.8Q224.7 183.8 221.4 180.9Q218.1 178.0 218.1 172.7L218.1 172.7Q218.1 166.9 222.4 164.1Q226.6 161.3 234.8 161.3L234.8 161.3L240.8 161.3L240.8 159.4Q240.8 156.1 239.3 154.4Q237.7 152.7 234.1 152.7L234.1 152.7Q230.7 152.7 228.6 154.0Q226.5 155.3 225.0 157.4L225.0 157.4L219.2 152.2Q221.0 149.0 225.0 147.0Q229.0 144.9 235.3 144.9L235.3 144.9Q242.9 144.9 247.2 148.4Q251.5 151.9 251.5 159.0L251.5 159.0L251.5 175.2L255.6 175.2L255.6 183.0ZM234.1 176.8L234.1 176.8Q236.9 176.8 238.9 175.5Q240.8 174.1 240.8 171.5L240.8 171.5L240.8 167.0L235.1 167.0Q228.6 167.0 228.6 171.4L228.6 171.4L228.6 172.9Q228.6 174.8 230.1 175.8Q231.6 176.8 234.1 176.8ZM299.6 186.7L299.6 186.7Q299.6 192.6 294.6 195.4Q289.6 198.2 279.0 198.2L279.0 198.2Q273.7 198.2 270.2 197.6Q266.7 197.0 264.7 195.8Q262.6 194.7 261.8 193.1Q261.0 191.5 261.0 189.6L261.0 189.6Q261.0 186.5 262.9 184.9Q264.7 183.2 268.1 182.4L268.1 182.4L268.1 181.9Q265.7 181.2 264.3 179.9Q262.9 178.6 262.9 176.1L262.9 176.1Q262.9 173.4 264.8 172.1Q266.6 170.8 269.6 170.1L269.6 170.1L269.6 169.6Q266.3 168.0 264.5 165.2Q262.6 162.3 262.6 158.2L262.6 158.2Q262.6 154.9 263.8 152.5Q264.9 150.0 267.1 148.3Q269.2 146.7 272.1 145.8Q275.1 144.9 278.8 144.9L278.8 144.9Q282.3 144.9 285.3 145.7L285.3 145.7L285.3 143.7Q285.3 141.6 286.8 140.1Q288.3 138.7 291.0 138.7L291.0 138.7L297.6 138.7L297.6 146.4L288.6 146.4L288.6 147.1Q291.7 148.7 293.3 151.5Q295.0 154.2 295.0 158.2L295.0 158.2Q295.0 161.4 293.9 163.9Q292.7 166.3 290.6 168.0Q288.4 169.7 285.4 170.6Q282.4 171.4 278.8 171.4L278.8 171.4Q277.1 171.4 275.6 171.3Q274.1 171.1 272.7 170.7L272.7 170.7Q271.9 171.1 271.4 171.8Q270.8 172.4 270.8 173.4L270.8 173.4Q270.8 174.3 271.3 174.8Q271.7 175.3 272.5 175.6Q273.2 175.8 274.2 175.9Q275.2 176.0 276.3 176.0L276.3 176.0L284.8 176.0Q288.8 176.0 291.6 176.8Q294.4 177.6 296.2 179.0Q298.0 180.4 298.8 182.4Q299.6 184.3 299.6 186.7ZM289.5 187.5L289.5 187.5Q289.5 186.0 288.3 185.2Q287.2 184.4 284.0 184.4L284.0 184.4L271.2 184.4Q269.8 185.6 269.8 187.4L269.8 187.4Q269.8 189.1 271.2 190.3Q272.7 191.4 276.2 191.4L276.2 191.4L282.5 191.4Q286.2 191.4 287.8 190.4Q289.5 189.4 289.5 187.5ZM278.8 164.7L278.8 164.7Q282.0 164.7 283.5 163.1Q285.0 161.5 285.0 159.0L285.0 159.0L285.0 157.3Q285.0 154.9 283.5 153.3Q282.0 151.7 278.8 151.7L278.8 151.7Q275.6 151.7 274.2 153.3Q272.7 154.9 272.7 157.3L272.7 157.3L272.7 159.0Q272.7 161.5 274.2 163.1Q275.6 164.7 278.8 164.7ZM306.1 183.0L306.1 174.7L314.7 174.7L314.7 154.1L306.1 154.1L306.1 145.8L325.4 145.8L325.4 156.3L325.9 156.3Q326.4 154.3 327.3 152.4Q328.2 150.5 329.6 149.0Q331.0 147.5 333.0 146.7Q335.0 145.8 337.7 145.8L337.7 145.8L341.3 145.8L341.3 155.6L333.3 155.6Q329.4 155.6 327.4 157.9Q325.4 160.3 325.4 163.7L325.4 163.7L325.4 174.7L337.6 174.7L337.6 183.0L306.1 183.0ZM385.2 183.0L379.1 183.0Q375.8 183.0 373.7 181.3Q371.7 179.6 371.4 176.4L371.4 176.4L371.0 176.4Q370.0 180.1 367.0 181.9Q364.0 183.8 359.7 183.8L359.7 183.8Q354.3 183.8 351.0 180.9Q347.7 178.0 347.7 172.7L347.7 172.7Q347.7 166.9 352.0 164.1Q356.2 161.3 364.4 161.3L364.4 161.3L370.4 161.3L370.4 159.4Q370.4 156.1 368.9 154.4Q367.3 152.7 363.7 152.7L363.7 152.7Q360.3 152.7 358.2 154.0Q356.1 155.3 354.6 157.4L354.6 157.4L348.8 152.2Q350.6 149.0 354.6 147.0Q358.6 144.9 364.9 144.9L364.9 144.9Q372.5 144.9 376.8 148.4Q381.1 151.9 381.1 159.0L381.1 159.0L381.1 175.2L385.2 175.2L385.2 183.0ZM363.7 176.8L363.7 176.8Q366.5 176.8 368.5 175.5Q370.4 174.1 370.4 171.5L370.4 171.5L370.4 167.0L364.7 167.0Q358.2 167.0 358.2 171.4L358.2 171.4L358.2 172.9Q358.2 174.8 359.7 175.8Q361.2 176.8 363.7 176.8ZM397.9 183.0L389.4 183.0L389.4 145.8L397.9 145.8L397.9 151.3L398.4 151.3Q399.3 148.7 400.9 146.8Q402.5 144.9 405.5 144.9L405.5 144.9Q410.9 144.9 412.1 151.3L412.1 151.3L412.5 151.3Q413.0 150.0 413.6 148.8Q414.3 147.7 415.2 146.8Q416.1 145.9 417.4 145.4Q418.7 144.9 420.5 144.9L420.5 144.9Q428.2 144.9 428.2 156.4L428.2 156.4L428.2 183.0L419.7 183.0L419.7 157.5Q419.7 154.9 418.8 153.8Q417.9 152.8 416.4 152.8L416.4 152.8Q415.1 152.8 414.1 153.7Q413.1 154.6 413.1 156.5L413.1 156.5L413.1 183.0L404.5 183.0L404.5 157.5Q404.5 154.9 403.7 153.8Q402.8 152.8 401.4 152.8L401.4 152.8Q399.9 152.8 398.9 153.7Q397.9 154.6 397.9 156.5L397.9 156.5L397.9 183.0ZM451.6 183.8L451.6 183.8Q445.4 183.8 440.8 181.9Q436.2 180.1 433.9 176.8L433.9 176.8L439.9 171.3Q442.1 173.7 445.0 175.0Q447.9 176.3 451.6 176.3L451.6 176.3Q454.8 176.3 456.6 175.4Q458.4 174.4 458.4 172.4L458.4 172.4Q458.4 170.8 457.2 170.2Q456.0 169.6 453.8 169.2L453.8 169.2L447.8 168.3Q445.3 167.9 443.1 167.1Q441.0 166.4 439.4 165.1Q437.8 163.8 436.9 161.9Q435.9 160.1 435.9 157.4L435.9 157.4Q435.9 151.6 440.4 148.2Q444.9 144.9 452.9 144.9L452.9 144.9Q458.4 144.9 462.3 146.4Q466.1 147.9 468.4 150.6L468.4 150.6L463.1 156.7Q461.4 154.9 458.8 153.6Q456.2 152.4 452.6 152.4L452.6 152.4Q446.4 152.4 446.4 156.2L446.4 156.2Q446.4 157.8 447.6 158.4Q448.8 159.0 451.0 159.4L451.0 159.4L456.9 160.3Q459.4 160.7 461.6 161.5Q463.7 162.2 465.4 163.5Q467.0 164.8 467.9 166.7Q468.8 168.6 468.8 171.2L468.8 171.2Q468.8 177.0 464.3 180.4Q459.8 183.8 451.6 183.8Z " clip-path="url(#satori_cp-id-1-0-0)" mask="url(#satori_om-id-1-0-0)"/><mask id="satori_om-id-1-0-1"><rect x="128" y="489" width="944" height="36" fill="#fff"/></mask><mask id="satori_om-id-1-0-1-0"><rect x="128" y="489" width="152" height="36" fill="#fff"/></mask><path fill="black" d="M130.7 520.3L130.7 499.6L132.9 499.6L132.9 508.2L133.0 508.2Q134.4 505.5 137.5 505.5L137.5 505.5Q140.1 505.5 141.6 507.5Q143.1 509.5 143.1 513.0L143.1 513.0Q143.1 516.6 141.6 518.6Q140.1 520.6 137.5 520.6L137.5 520.6Q134.4 520.6 133.0 517.9L133.0 517.9L132.9 517.9L132.9 520.3L130.7 520.3ZM136.6 518.6L136.6 518.6Q138.6 518.6 139.6 517.4Q140.7 516.2 140.7 514.3L140.7 514.3L140.7 511.8Q140.7 509.9 139.6 508.7Q138.6 507.5 136.6 507.5L136.6 507.5Q135.8 507.5 135.2 507.7Q134.5 507.9 134.0 508.2Q133.5 508.6 133.2 509.2Q132.9 509.7 132.9 510.4L132.9 510.4L132.9 515.7Q132.9 516.4 133.2 516.9Q133.5 517.5 134.0 517.8Q134.5 518.2 135.2 518.4Q135.8 518.6 136.6 518.6ZM155.4 511.9L157.9 505.8L160.1 505.8L152.9 523.4Q152.7 524.1 152.4 524.5Q152.1 525.0 151.7 525.3Q151.2 525.6 150.7 525.7Q150.1 525.9 149.3 525.9L149.3 525.9L147.1 525.9L147.1 524.0L150.5 524.0L152.1 520.0L146.3 505.8L148.6 505.8L151.0 511.9L153.2 517.4L153.3 517.4L155.4 511.9Z "/><mask id="satori_om-id-1-0-1-0-1"><rect x="162" y="489" width="17" height="36" fill="#fff"/></mask><clipPath id="satori_cp-id-1-0-1-0-2"><rect x="179" y="489" width="101" height="36"/></clipPath><mask id="satori_om-id-1-0-1-0-2"><rect x="179" y="489" width="101" height="36" fill="#fff"/></mask><path fill="black" d="M195.0 520.1L192.6 520.1Q191.3 520.1 190.6 519.4Q189.8 518.8 189.6 517.5L189.6 517.5L189.5 517.5Q189.1 519.0 187.9 519.7Q186.8 520.4 185.1 520.4L185.1 520.4Q183.0 520.4 181.7 519.3Q180.5 518.2 180.5 516.1L180.5 516.1Q180.5 513.8 182.1 512.8Q183.8 511.7 187.0 511.7L187.0 511.7L189.3 511.7L189.3 510.9Q189.3 509.6 188.7 509.0Q188.1 508.3 186.6 508.3L186.6 508.3Q185.3 508.3 184.5 508.8Q183.7 509.3 183.1 510.2L183.1 510.2L180.8 508.1Q181.6 506.9 183.1 506.1Q184.7 505.3 187.1 505.3L187.1 505.3Q190.1 505.3 191.8 506.7Q193.4 508.0 193.4 510.8L193.4 510.8L193.4 517.1L195.0 517.1L195.0 520.1ZM186.7 517.7L186.7 517.7Q187.8 517.7 188.5 517.2Q189.3 516.6 189.3 515.6L189.3 515.6L189.3 513.9L187.1 513.9Q184.5 513.9 184.5 515.6L184.5 515.6L184.5 516.2Q184.5 516.9 185.1 517.3Q185.7 517.7 186.7 517.7ZM198.4 525.7L198.4 522.5L203.9 522.5L203.9 508.9L198.3 508.9L198.3 505.6L208.1 505.6L208.1 521.5Q208.1 523.3 207.0 524.5Q205.9 525.7 203.7 525.7L203.7 525.7L198.4 525.7ZM206.0 503.8L206.0 503.8Q204.6 503.8 204.0 503.2Q203.5 502.6 203.5 501.8L203.5 501.8L203.5 501.0Q203.5 500.2 204.0 499.6Q204.6 499.1 206.0 499.1L206.0 499.1Q207.4 499.1 207.9 499.6Q208.5 500.2 208.5 501.0L208.5 501.0L208.5 501.8Q208.5 502.6 207.9 503.2Q207.4 503.8 206.0 503.8ZM218.6 520.1L214.4 520.1L214.4 505.6L218.6 505.6L218.6 508.3L218.7 508.3Q219.0 507.7 219.3 507.1Q219.7 506.6 220.2 506.2Q220.7 505.8 221.4 505.5Q222.1 505.3 223.0 505.3L223.0 505.3Q224.0 505.3 224.9 505.7Q225.8 506.0 226.4 506.7Q227.0 507.4 227.3 508.4Q227.7 509.4 227.7 510.7L227.7 510.7L227.7 520.1L223.5 520.1L223.5 511.3Q223.5 508.5 221.1 508.5L221.1 508.5Q220.6 508.5 220.2 508.6Q219.7 508.8 219.3 509.0Q219.0 509.3 218.8 509.7Q218.6 510.1 218.6 510.6L218.6 510.6L218.6 520.1ZM242.9 520.1L238.9 520.1L238.9 516.3L230.1 516.3L230.1 512.8L237.9 500.5L242.9 500.5L242.9 513.1L245.4 513.1L245.4 516.3L242.9 516.3L242.9 520.1ZM238.6 504.9L233.5 513.1L238.9 513.1L238.9 504.9L238.6 504.9ZM254.6 520.4L254.6 520.4Q250.7 520.4 248.8 517.8Q247.0 515.1 247.0 510.3L247.0 510.3Q247.0 505.5 248.8 502.9Q250.7 500.2 254.6 500.2L254.6 500.2Q258.5 500.2 260.4 502.9Q262.2 505.5 262.2 510.3L262.2 510.3Q262.2 515.1 260.4 517.8Q258.5 520.4 254.6 520.4ZM254.6 517.1L254.6 517.1Q256.5 517.1 257.2 515.8Q258.0 514.5 258.0 512.1L258.0 512.1L258.0 508.5Q258.0 506.1 257.2 504.8Q256.5 503.5 254.6 503.5L254.6 503.5Q252.7 503.5 252.0 504.8Q251.2 506.1 251.2 508.5L251.2 508.5L251.2 512.1Q251.2 514.5 252.0 515.8Q252.7 517.1 254.6 517.1ZM254.6 512.0L254.6 512.0Q253.6 512.0 253.2 511.6Q252.9 511.2 252.9 510.6L252.9 510.6L252.9 510.0Q252.9 509.5 253.2 509.1Q253.6 508.7 254.6 508.7L254.6 508.7Q255.6 508.7 256.0 509.1Q256.3 509.5 256.3 510.0L256.3 510.0L256.3 510.6Q256.3 511.2 256.0 511.6Q255.6 512.0 254.6 512.0ZM276.5 520.1L272.5 520.1L272.5 516.3L263.7 516.3L263.7 512.8L271.5 500.5L276.5 500.5L276.5 513.1L279.0 513.1L279.0 516.3L276.5 516.3L276.5 520.1ZM272.2 504.9L267.1 513.1L272.5 513.1L272.5 504.9L272.2 504.9Z " clip-path="url(#satori_cp-id-1-0-1-0-2)" mask="url(#satori_om-id-1-0-1-0-2)"/><clipPath id="satori_cp-id-1-0-1-1"><rect x="1037" y="489" width="34" height="36"/></clipPath><mask id="satori_om-id-1-0-1-1"><rect x="1037" y="489" width="34" height="36" fill="#fff"/></mask><path fill="black" d="M1052.9 520.1L1037.9 520.1L1037.9 498.3L1052.9 498.3L1052.9 520.1ZM1040.7 501.1L1040.7 517.3L1050.1 517.3L1050.1 501.1L1040.7 501.1ZM1069.7 520.1L1054.7 520.1L1054.7 498.3L1069.7 498.3L1069.7 520.1ZM1057.5 501.1L1057.5 517.3L1066.9 517.3L1066.9 501.1L1057.5 501.1Z " clip-path="url(#satori_cp-id-1-0-1-1)" mask="url(#satori_om-id-1-0-1-1)"/></svg>