<svg width="1200" height="630" viewBox="0 0 1200 630" xmlns="http://www.w3.org/2000/svg"><mask id="satori_om-id"><rect x="0" y="0" width="1200" height="630" fill="#fff"/></mask><rect x="0" y="0" width="1200" height="630" fill="#fefbfb"/><defs><clipPath id="satori_bc-id-0"><path x="105" y="39" width="1056" height="504" d="M109,39 h1048 a4,4 0 0 1 4,4 v496 a4,4 0 0 1 -4,4 h-1048 a4,4 0 0 1 -4,-4 v-496 a4,4 0 0 1 4,-4"/></clipPath></defs><mask id="satori_om-id-0"><rect x="109" y="43" width="1048" height="496" fill="#fff"/><path width="1056" height="504" fill="none" stroke="#000" stroke-width="8" d="M106.172,40.172 A4,4 0 0 1 109,39 h1048 a4,4 0 0 1 4,4 v496 a4,4 0 0 1 -4,4 h-1048 a4,4 0 0 1 -4,-4 v-496 A4,4 0 0 1 106.172,40.172"/></mask><g opacity="0.9"><path x="105" y="39" width="1056" height="504" fill="#ecebeb" d="M109,39 h1048 a4,4 0 0 1 4,4 v496 a4,4 0 0 1 -4,4 h-1048 a4,4 0 0 1 -4,-4 v-496 a4,4 0 0 1 4,-4"/><path width="1056" height="504" clip-path="url(#satori_bc-id-0)" fill="none" stroke="#000" stroke-width="8" d="M106.172,40.172 A4,4 0 0 1 109,39 h1048 a4,4 0 0 1 4,4 v496 a4,4 0 0 1 -4,4 h-1048 a4,4 0 0 1 -4,-4 v-496 A4,4 0 0 1 106.172,40.172"/></g><defs><clipPath id="satori_bc-id-1"><path x="72" y="63" width="1056" height="504" d="M76,63 h1048 a4,4 0 0 1 4,4 v496 a4,4 0 0 1 -4,4 h-1048 a4,4 0 0 1 -4,-4 v-496 a4,4 0 0 1 4,-4"/></clipPath></defs><mask id="satori_om-id-1"><rect x="76" y="67" width="1048" height="496" fill="#fff"/><path width="1056" height="504" fill="none" stroke="#000" stroke-width="8" d="M73.172,64.172 A4,4 0 0 1 76,63 h1048 a4,4 0 0 1 4,4 v496 a4,4 0 0 1 -4,4 h-1048 a4,4 0 0 1 -4,-4 v-496 A4,4 0 0 1 73.172,64.172"/></mask><path x="72" y="63" width="1056" height="504" fill="#fefbfb" d="M76,63 h1048 a4,4 0 0 1 4,4 v496 a4,4 0 0 1 -4,4 h-1048 a4,4 0 0 1 -4,-4 v-496 a4,4 0 0 1 4,-4"/><path width="1056" height="504" clip-path="url(#satori_bc-id-1)" fill="none" stroke="#000" stroke-width="8" d="M73.172,64.172 A4,4 0 0 1 76,63 h1048 a4,4 0 0 1 4,4 v496 a4,4 0 0 1 -4,4 h-1048 a4,4 0 0 1 -4,-4 v-496 A4,4 0 0 1 73.172,64.172"/><mask id="satori_om-id-1-0"><rect x="128" y="87" width="944" height="446" fill="#fff"/></mask><clipPath id="satori_cp-id-1-0-0"><rect x="128" y="103" width="944" height="94"/></clipPath><mask id="satori_om-id-1-0-0"><rect x="128" y="103" width="944" height="94" fill="#fff"/></mask><path fill="black" d="M156.3 183.0L156.3 176.2L155.8 176.2Q154.4 179.6 151.8 181.7Q149.2 183.8 144.8 183.8L144.8 183.8Q141.7 183.8 139.1 182.7Q136.6 181.5 134.7 179.1Q132.9 176.8 131.9 173.1Q130.8 169.4 130.8 164.4L130.8 164.4Q130.8 159.3 131.9 155.7Q132.9 152.0 134.7 149.6Q136.6 147.2 139.1 146.1Q141.7 144.9 144.8 144.9L144.8 144.9Q147.0 144.9 148.7 145.5Q150.5 146.1 151.8 147.1Q153.1 148.1 154.1 149.5Q155.1 150.9 155.8 152.6L155.8 152.6L156.3 152.6L156.3 129.7L167.0 129.7L167.0 183.0L156.3 183.0ZM149.4 175.5L149.4 175.5Q152.2 175.5 154.2 174.2Q156.3 172.8 156.3 169.8L156.3 169.8L156.3 158.9Q156.3 156.0 154.2 154.6Q152.2 153.2 149.4 153.2L149.4 153.2Q145.8 153.2 143.8 155.4Q141.9 157.6 141.9 161.5L141.9 161.5L141.9 167.3Q141.9 171.1 143.8 173.3Q145.8 175.5 149.4 175.5ZM196.6 161.4L202.2 145.8L213.0 145.8L195.5 188.9Q193.9 193.0 191.1 195.2Q188.4 197.4 183.7 197.4L183.7 197.4L176.3 197.4L176.3 189.1L185.2 189.1L187.5 182.7L172.6 145.8L184.0 145.8L189.4 161.4L192.8 172.2L193.4 172.2L196.6 161.4ZM229.7 183.0L219.1 183.0L219.1 145.8L229.7 145.8L229.7 152.6L230.2 152.6Q230.8 151.0 231.8 149.6Q232.7 148.2 234.0 147.2Q235.4 146.2 237.1 145.5Q238.9 144.9 241.1 144.9L241.1 144.9Q243.8 144.9 246.0 145.8Q248.2 146.7 249.8 148.5Q251.4 150.3 252.3 152.9Q253.2 155.5 253.2 158.9L253.2 158.9L253.2 183.0L242.6 183.0L242.6 160.3Q242.6 153.1 236.3 153.1L236.3 153.1Q235.1 153.1 233.9 153.5Q232.7 153.8 231.8 154.5Q230.8 155.2 230.3 156.2Q229.7 157.2 229.7 158.5L229.7 158.5L229.7 183.0ZM298.8 183.0L292.7 183.0Q289.4 183.0 287.3 181.3Q285.3 179.6 285.0 176.4L285.0 176.4L284.6 176.4Q283.6 180.1 280.6 181.9Q277.6 183.8 273.3 183.8L273.3 183.8Q267.9 183.8 264.6 180.9Q261.3 178.0 261.3 172.7L261.3 172.7Q261.3 166.9 265.6 164.1Q269.8 161.3 278.0 161.3L278.0 161.3L284.0 161.3L284.0 159.4Q284.0 156.1 282.5 154.4Q280.9 152.7 277.3 152.7L277.3 152.7Q273.9 152.7 271.8 154.0Q269.7 155.3 268.2 157.4L268.2 157.4L262.4 152.2Q264.2 149.0 268.2 147.0Q272.2 144.9 278.5 144.9L278.5 144.9Q286.1 144.9 290.4 148.4Q294.7 151.9 294.7 159.0L294.7 159.0L294.7 175.2L298.8 175.2L298.8 183.0ZM277.3 176.8L277.3 176.8Q280.1 176.8 282.1 175.5Q284.0 174.1 284.0 171.5L284.0 171.5L284.0 167.0L278.3 167.0Q271.8 167.0 271.8 171.4L271.8 171.4L271.8 172.9Q271.8 174.8 273.3 175.8Q274.8 176.8 277.3 176.8ZM311.5 183.0L303.0 183.0L303.0 145.8L311.5 145.8L311.5 151.3L312.0 151.3Q312.9 148.7 314.5 146.8Q316.1 144.9 319.1 144.9L319.1 144.9Q324.5 144.9 325.7 151.3L325.7 151.3L326.1 151.3Q326.6 150.0 327.2 148.8Q327.9 147.7 328.8 146.8Q329.7 145.9 331.0 145.4Q332.3 144.9 334.1 144.9L334.1 144.9Q341.8 144.9 341.8 156.4L341.8 156.4L341.8 183.0L333.3 183.0L333.3 157.5Q333.3 154.9 332.4 153.8Q331.5 152.8 330.0 152.8L330.0 152.8Q328.7 152.8 327.7 153.7Q326.7 154.6 326.7 156.5L326.7 156.5L326.7 183.0L318.1 183.0L318.1 157.5Q318.1 154.9 317.3 153.8Q316.4 152.8 315.0 152.8L315.0 152.8Q313.5 152.8 312.5 153.7Q311.5 154.6 311.5 156.5L311.5 156.5L311.5 183.0ZM367.9 141.0L367.9 141.0Q364.3 141.0 362.9 139.6Q361.5 138.1 361.5 136.0L361.5 136.0L361.5 133.9Q361.5 131.8 362.9 130.3Q364.3 128.9 367.9 128.9L367.9 128.9Q371.5 128.9 372.9 130.3Q374.3 131.8 374.3 133.9L374.3 133.9L374.3 136.0Q374.3 138.1 372.9 139.6Q371.5 141.0 367.9 141.0ZM350.8 183.0L350.8 174.7L362.6 174.7L362.6 154.1L350.8 154.1L350.8 145.8L373.2 145.8L373.2 174.7L384.2 174.7L384.2 183.0L350.8 183.0ZM410.3 183.8L410.3 183.8Q405.9 183.8 402.4 182.5Q398.9 181.2 396.5 178.6Q394.1 176.1 392.8 172.5Q391.5 168.9 391.5 164.4L391.5 164.4Q391.5 159.8 392.8 156.2Q394.1 152.6 396.5 150.1Q398.9 147.6 402.4 146.3Q405.9 144.9 410.2 144.9L410.2 144.9Q416.4 144.9 420.1 147.4Q423.8 149.9 425.7 154.0L425.7 154.0L417.5 158.5Q416.5 156.3 414.9 154.9Q413.3 153.4 410.2 153.4L410.2 153.4Q406.6 153.4 404.6 155.6Q402.6 157.7 402.6 161.4L402.6 161.4L402.6 167.4Q402.6 171.1 404.6 173.2Q406.6 175.3 410.4 175.3L410.4 175.3Q413.5 175.3 415.2 173.9Q417.0 172.4 418.2 170.1L418.2 170.1L426.3 174.7Q424.3 178.8 420.4 181.3Q416.6 183.8 410.3 183.8Z M477.8 197.4L477.8 145.8L488.5 145.8L488.5 152.6L489.0 152.6Q490.4 149.3 493.0 147.1Q495.6 144.9 500.0 144.9L500.0 144.9Q503.1 144.9 505.7 146.1Q508.2 147.2 510.1 149.6Q511.9 152.0 512.9 155.7Q514.0 159.3 514.0 164.4L514.0 164.4Q514.0 169.4 512.9 173.1Q511.9 176.8 510.1 179.1Q508.2 181.5 505.7 182.7Q503.1 183.8 500.0 183.8L500.0 183.8Q495.6 183.8 493.0 181.7Q490.4 179.6 489.0 176.2L489.0 176.2L488.5 176.2L488.5 197.4L477.8 197.4ZM495.4 175.5L495.4 175.5Q499.0 175.5 501.0 173.3Q502.9 171.1 502.9 167.3L502.9 167.3L502.9 161.5Q502.9 157.6 501.0 155.4Q499.0 153.2 495.4 153.2L495.4 153.2Q492.6 153.2 490.6 154.6Q488.5 156.0 488.5 158.9L488.5 158.9L488.5 169.8Q488.5 172.8 490.6 174.2Q492.6 175.5 495.4 175.5ZM522.1 183.0L522.1 174.7L530.7 174.7L530.7 154.1L522.1 154.1L522.1 145.8L541.4 145.8L541.4 156.3L541.9 156.3Q542.4 154.3 543.3 152.4Q544.2 150.5 545.6 149.0Q547.0 147.5 549.0 146.7Q551.0 145.8 553.7 145.8L553.7 145.8L557.3 145.8L557.3 155.6L549.3 155.6Q545.4 155.6 543.4 157.9Q541.4 160.3 541.4 163.7L541.4 163.7L541.4 174.7L553.6 174.7L553.6 183.0L522.1 183.0ZM581.6 183.8L581.6 183.8Q577.3 183.8 573.8 182.5Q570.4 181.2 568.0 178.6Q565.5 176.1 564.2 172.5Q563.0 168.9 563.0 164.4L563.0 164.4Q563.0 159.8 564.2 156.2Q565.5 152.6 568.0 150.1Q570.4 147.6 573.8 146.3Q577.3 144.9 581.6 144.9L581.6 144.9Q585.9 144.9 589.4 146.3Q592.8 147.6 595.2 150.1Q597.7 152.6 599.0 156.2Q600.2 159.8 600.2 164.4L600.2 164.4Q600.2 168.9 599.0 172.5Q597.7 176.1 595.2 178.6Q592.8 181.2 589.4 182.5Q585.9 183.8 581.6 183.8ZM581.6 175.9L581.6 175.9Q585.2 175.9 587.2 173.7Q589.2 171.4 589.2 167.3L589.2 167.3L589.2 161.4Q589.2 157.3 587.2 155.1Q585.2 152.9 581.6 152.9L581.6 152.9Q578.0 152.9 576.0 155.1Q574.0 157.3 574.0 161.4L574.0 161.4L574.0 167.3Q574.0 171.4 576.0 173.7Q578.0 175.9 581.6 175.9ZM645.2 186.7L645.2 186.7Q645.2 192.6 640.2 195.4Q635.2 198.2 624.6 198.2L624.6 198.2Q619.3 198.2 615.8 197.6Q612.3 197.0 610.3 195.8Q608.2 194.7 607.4 193.1Q606.6 191.5 606.6 189.6L606.6 189.6Q606.6 186.5 608.5 184.9Q610.3 183.2 613.7 182.4L613.7 182.4L613.7 181.9Q611.3 181.2 609.9 179.9Q608.5 178.6 608.5 176.1L608.5 176.1Q608.5 173.4 610.4 172.1Q612.2 170.8 615.2 170.1L615.2 170.1L615.2 169.6Q611.9 168.0 610.1 165.2Q608.2 162.3 608.2 158.2L608.2 158.2Q608.2 154.9 609.4 152.5Q610.5 150.0 612.7 148.3Q614.8 146.7 617.7 145.8Q620.7 144.9 624.4 144.9L624.4 144.9Q627.9 144.9 630.9 145.7L630.9 145.7L630.9 143.7Q630.9 141.6 632.4 140.1Q633.9 138.7 636.6 138.7L636.6 138.7L643.2 138.7L643.2 146.4L634.2 146.4L634.2 147.1Q637.3 148.7 638.9 151.5Q640.6 154.2 640.6 158.2L640.6 158.2Q640.6 161.4 639.5 163.9Q638.3 166.3 636.2 168.0Q634.0 169.7 631.0 170.6Q628.0 171.4 624.4 171.4L624.4 171.4Q622.7 171.4 621.2 171.3Q619.7 171.1 618.3 170.7L618.3 170.7Q617.5 171.1 617.0 171.8Q616.4 172.4 616.4 173.4L616.4 173.4Q616.4 174.3 616.9 174.8Q617.3 175.3 618.1 175.6Q618.8 175.8 619.8 175.9Q620.8 176.0 621.9 176.0L621.9 176.0L630.4 176.0Q634.4 176.0 637.2 176.8Q640.0 177.6 641.8 179.0Q643.6 180.4 644.4 182.4Q645.2 184.3 645.2 186.7ZM635.1 187.5L635.1 187.5Q635.1 186.0 633.9 185.2Q632.8 184.4 629.6 184.4L629.6 184.4L616.8 184.4Q615.4 185.6 615.4 187.4L615.4 187.4Q615.4 189.1 616.8 190.3Q618.3 191.4 621.8 191.4L621.8 191.4L628.1 191.4Q631.8 191.4 633.4 190.4Q635.1 189.4 635.1 187.5ZM624.4 164.7L624.4 164.7Q627.6 164.7 629.1 163.1Q630.6 161.5 630.6 159.0L630.6 159.0L630.6 157.3Q630.6 154.9 629.1 153.3Q627.6 151.7 624.4 151.7L624.4 151.7Q621.2 151.7 619.8 153.3Q618.3 154.9 618.3 157.3L618.3 157.3L618.3 159.0Q618.3 161.5 619.8 163.1Q621.2 164.7 624.4 164.7ZM651.7 183.0L651.7 174.7L660.3 174.7L660.3 154.1L651.7 154.1L651.7 145.8L671.0 145.8L671.0 156.3L671.5 156.3Q672.0 154.3 672.9 152.4Q673.8 150.5 675.2 149.0Q676.6 147.5 678.6 146.7Q680.6 145.8 683.3 145.8L683.3 145.8L686.9 145.8L686.9 155.6L678.9 155.6Q675.0 155.6 673.0 157.9Q671.0 160.3 671.0 163.7L671.0 163.7L671.0 174.7L683.2 174.7L683.2 183.0L651.7 183.0ZM730.8 183.0L724.7 183.0Q721.4 183.0 719.3 181.3Q717.3 179.6 717.0 176.4L717.0 176.4L716.6 176.4Q715.6 180.1 712.6 181.9Q709.6 183.8 705.3 183.8L705.3 183.8Q699.9 183.8 696.6 180.9Q693.3 178.0 693.3 172.7L693.3 172.7Q693.3 166.9 697.6 164.1Q701.8 161.3 710.0 161.3L710.0 161.3L716.0 161.3L716.0 159.4Q716.0 156.1 714.5 154.4Q712.9 152.7 709.3 152.7L709.3 152.7Q705.9 152.7 703.8 154.0Q701.7 155.3 700.2 157.4L700.2 157.4L694.4 152.2Q696.2 149.0 700.2 147.0Q704.2 144.9 710.5 144.9L710.5 144.9Q718.1 144.9 722.4 148.4Q726.7 151.9 726.7 159.0L726.7 159.0L726.7 175.2L730.8 175.2L730.8 183.0ZM709.3 176.8L709.3 176.8Q712.1 176.8 714.1 175.5Q716.0 174.1 716.0 171.5L716.0 171.5L716.0 167.0L710.3 167.0Q703.8 167.0 703.8 171.4L703.8 171.4L703.8 172.9Q703.8 174.8 705.3 175.8Q706.8 176.8 709.3 176.8ZM743.5 183.0L735.0 183.0L735.0 145.8L743.5 145.8L743.5 151.3L744.0 151.3Q744.9 148.7 746.5 146.8Q748.1 144.9 751.1 144.9L751.1 144.9Q756.5 144.9 757.7 151.3L757.7 151.3L758.1 151.3Q758.6 150.0 759.2 148.8Q759.9 147.7 760.8 146.8Q761.7 145.9 763.0 145.4Q764.3 144.9 766.1 144.9L766.1 144.9Q773.8 144.9 773.8 156.4L773.8 156.4L773.8 183.0L765.3 183.0L765.3 157.5Q765.3 154.9 764.4 153.8Q763.5 152.8 762.0 152.8L762.0 152.8Q760.7 152.8 759.7 153.7Q758.7 154.6 758.7 156.5L758.7 156.5L758.7 183.0L750.1 183.0L750.1 157.5Q750.1 154.9 749.3 153.8Q748.4 152.8 747.0 152.8L747.0 152.8Q745.5 152.8 744.5 153.7Q743.5 154.6 743.5 156.5L743.5 156.5L743.5 183.0ZM786.7 183.0L778.2 183.0L778.2 145.8L786.7 145.8L786.7 151.3L787.2 151.3Q788.1 148.7 789.7 146.8Q791.3 144.9 794.3 144.9L794.3 144.9Q799.7 144.9 800.9 151.3L800.9 151.3L801.3 151.3Q801.8 150.0 802.4 148.8Q803.1 147.7 804.0 146.8Q804.9 145.9 806.2 145.4Q807.5 144.9 809.3 144.9L809.3 144.9Q817.0 144.9 817.0 156.4L817.0 156.4L817.0 183.0L808.5 183.0L808.5 157.5Q808.5 154.9 807.6 153.8Q806.7 152.8 805.2 152.8L805.2 152.8Q803.9 152.8 802.9 153.7Q801.9 154.6 801.9 156.5L801.9 156.5L801.9 183.0L793.3 183.0L793.3 157.5Q793.3 154.9 792.5 153.8Q791.6 152.8 790.2 152.8L790.2 152.8Q788.7 152.8 787.7 153.7Q786.7 154.6 786.7 156.5L786.7 156.5L786.7 183.0ZM843.1 141.0L843.1 141.0Q839.5 141.0 838.1 139.6Q836.7 138.1 836.7 136.0L836.7 136.0L836.7 133.9Q836.7 131.8 838.1 130.3Q839.5 128.9 843.1 128.9L843.1 128.9Q846.7 128.9 848.1 130.3Q849.5 131.8 849.5 133.9L849.5 133.9L849.5 136.0Q849.5 138.1 848.1 139.6Q846.7 141.0 843.1 141.0ZM826.0 183.0L826.0 174.7L837.8 174.7L837.8 154.1L826.0 154.1L826.0 145.8L848.4 145.8L848.4 174.7L859.4 174.7L859.4 183.0L826.0 183.0ZM877.7 183.0L867.1 183.0L867.1 145.8L877.7 145.8L877.7 152.6L878.2 152.6Q878.8 151.0 879.8 149.6Q880.7 148.2 882.0 147.2Q883.4 146.2 885.1 145.5Q886.9 144.9 889.1 144.9L889.1 144.9Q891.8 144.9 894.0 145.8Q896.2 146.7 897.8 148.5Q899.4 150.3 900.3 152.9Q901.2 155.5 901.2 158.9L901.2 158.9L901.2 183.0L890.6 183.0L890.6 160.3Q890.6 153.1 884.3 153.1L884.3 153.1Q883.1 153.1 881.9 153.5Q880.7 153.8 879.8 154.5Q878.8 155.2 878.3 156.2Q877.7 157.2 877.7 158.5L877.7 158.5L877.7 183.0ZM947.6 186.7L947.6 186.7Q947.6 192.6 942.6 195.4Q937.6 198.2 927.0 198.2L927.0 198.2Q921.7 198.2 918.2 197.6Q914.7 197.0 912.7 195.8Q910.6 194.7 909.8 193.1Q909.0 191.5 909.0 189.6L909.0 189.6Q909.0 186.5 910.9 184.9Q912.7 183.2 916.1 182.4L916.1 182.4L916.1 181.9Q913.7 181.2 912.3 179.9Q910.9 178.6 910.9 176.1L910.9 176.1Q910.9 173.4 912.8 172.1Q914.6 170.8 917.6 170.1L917.6 170.1L917.6 169.6Q914.3 168.0 912.5 165.2Q910.6 162.3 910.6 158.2L910.6 158.2Q910.6 154.9 911.8 152.5Q912.9 150.0 915.1 148.3Q917.2 146.7 920.1 145.8Q923.1 144.9 926.8 144.9L926.8 144.9Q930.3 144.9 933.3 145.7L933.3 145.7L933.3 143.7Q933.3 141.6 934.8 140.1Q936.3 138.7 939.0 138.7L939.0 138.7L945.6 138.7L945.6 146.4L936.6 146.4L936.6 147.1Q939.7 148.7 941.3 151.5Q943.0 154.2 943.0 158.2L943.0 158.2Q943.0 161.4 941.9 163.9Q940.7 166.3 938.6 168.0Q936.4 169.7 933.4 170.6Q930.4 171.4 926.8 171.4L926.8 171.4Q925.1 171.4 923.6 171.3Q922.1 171.1 920.7 170.7L920.7 170.7Q919.9 171.1 919.4 171.8Q918.8 172.4 918.8 173.4L918.8 173.4Q918.8 174.3 919.3 174.8Q919.7 175.3 920.5 175.6Q921.2 175.8 922.2 175.9Q923.2 176.0 924.3 176.0L924.3 176.0L932.8 176.0Q936.8 176.0 939.6 176.8Q942.4 177.6 944.2 179.0Q946.0 180.4 946.8 182.4Q947.6 184.3 947.6 186.7ZM937.5 187.5L937.5 187.5Q937.5 186.0 936.3 185.2Q935.2 184.4 932.0 184.4L932.0 184.4L919.2 184.4Q917.8 185.6 917.8 187.4L917.8 187.4Q917.8 189.1 919.2 190.3Q920.7 191.4 924.2 191.4L924.2 191.4L930.5 191.4Q934.2 191.4 935.8 190.4Q937.5 189.4 937.5 187.5ZM926.8 164.7L926.8 164.7Q930.0 164.7 931.5 163.1Q933.0 161.5 933.0 159.0L933.0 159.0L933.0 157.3Q933.0 154.9 931.5 153.3Q930.0 151.7 926.8 151.7L926.8 151.7Q923.6 151.7 922.2 153.3Q920.7 154.9 920.7 157.3L920.7 157.3L920.7 159.0Q920.7 161.5 922.2 163.1Q923.6 164.7 926.8 164.7Z " clip-path="url(#satori_cp-id-1-0-0)" mask="url(#satori_om-id-1-0-0)"/><mask id="satori_om-id-1-0-1"><rect x="128" y="489" width="944" height="36" fill="#fff"/></mask><mask id="satori_om-id-1-0-1-0"><rect x="128" y="489" width="152" height="36" fill="#fff"/></mask><path fill="black" d="M130.7 520.3L130.7 499.6L132.9 499.6L132.9 508.2L133.0 508.2Q134.4 505.5 137.5 505.5L137.5 505.5Q140.1 505.5 141.6 507.5Q143.1 509.5 143.1 513.0L143.1 513.0Q143.1 516.6 141.6 518.6Q140.1 520.6 137.5 520.6L137.5 520.6Q134.4 520.6 133.0 517.9L133.0 517.9L132.9 517.9L132.9 520.3L130.7 520.3ZM136.6 518.6L136.6 518.6Q138.6 518.6 139.6 517.4Q140.7 516.2 140.7 514.3L140.7 514.3L140.7 511.8Q140.7 509.9 139.6 508.7Q138.6 507.5 136.6 507.5L136.6 507.5Q135.8 507.5 135.2 507.7Q134.5 507.9 134.0 508.2Q133.5 508.6 133.2 509.2Q132.9 509.7 132.9 510.4L132.9 510.4L132.9 515.7Q132.9 516.4 133.2 516.9Q133.5 517.5 134.0 517.8Q134.5 518.2 135.2 518.4Q135.8 518.6 136.6 518.6ZM155.4 511.9L157.9 505.8L160.1 505.8L152.9 523.4Q152.7 524.1 152.4 524.5Q152.1 525.0 151.7 525.3Q151.2 525.6 150.7 525.7Q150.1 525.9 149.3 525.9L149.3 525.9L147.1 525.9L147.1 524.0L150.5 524.0L152.1 520.0L146.3 505.8L148.6 505.8L151.0 511.9L153.2 517.4L153.3 517.4L155.4 511.9Z "/><mask id="satori_om-id-1-0-1-0-1"><rect x="162" y="489" width="17" height="36" fill="#fff"/></mask><clipPath id="satori_cp-id-1-0-1-0-2"><rect x="179" y="489" width="101" height="36"/></clipPath><mask id="satori_om-id-1-0-1-0-2"><rect x="179" y="489" width="101" height="36" fill="#fff"/></mask><path fill="black" d="M195.0 520.1L192.6 520.1Q191.3 520.1 190.6 519.4Q189.8 518.8 189.6 517.5L189.6 517.5L189.5 517.5Q189.1 519.0 187.9 519.7Q186.8 520.4 185.1 520.4L185.1 520.4Q183.0 520.4 181.7 519.3Q180.5 518.2 180.5 516.1L180.5 516.1Q180.5 513.8 182.1 512.8Q183.8 511.7 187.0 511.7L187.0 511.7L189.3 511.7L189.3 510.9Q189.3 509.6 188.7 509.0Q188.1 508.3 186.6 508.3L186.6 508.3Q185.3 508.3 184.5 508.8Q183.7 509.3 183.1 510.2L183.1 510.2L180.8 508.1Q181.6 506.9 183.1 506.1Q184.7 505.3 187.1 505.3L187.1 505.3Q190.1 505.3 191.8 506.7Q193.4 508.0 193.4 510.8L193.4 510.8L193.4 517.1L195.0 517.1L195.0 520.1ZM186.7 517.7L186.7 517.7Q187.8 517.7 188.5 517.2Q189.3 516.6 189.3 515.6L189.3 515.6L189.3 513.9L187.1 513.9Q184.5 513.9 184.5 515.6L184.5 515.6L184.5 516.2Q184.5 516.9 185.1 517.3Q185.7 517.7 186.7 517.7ZM198.4 525.7L198.4 522.5L203.9 522.5L203.9 508.9L198.3 508.9L198.3 505.6L208.1 505.6L208.1 521.5Q208.1 523.3 207.0 524.5Q205.9 525.7 203.7 525.7L203.7 525.7L198.4 525.7ZM206.0 503.8L206.0 503.8Q204.6 503.8 204.0 503.2Q203.5 502.6 203.5 501.8L203.5 501.8L203.5 501.0Q203.5 500.2 204.0 499.6Q204.6 499.1 206.0 499.1L206.0 499.1Q207.4 499.1 207.9 499.6Q208.5 500.2 208.5 501.0L208.5 501.0L208.5 501.8Q208.5 502.6 207.9 503.2Q207.4 503.8 206.0 503.8ZM218.6 520.1L214.4 520.1L214.4 505.6L218.6 505.6L218.6 508.3L218.7 508.3Q219.0 507.7 219.3 507.1Q219.7 506.6 220.2 506.2Q220.7 505.8 221.4 505.5Q222.1 505.3 223.0 505.3L223.0 505.3Q224.0 505.3 224.9 505.7Q225.8 506.0 226.4 506.7Q227.0 507.4 227.3 508.4Q227.7 509.4 227.7 510.7L227.7 510.7L227.7 520.1L223.5 520.1L223.5 511.3Q223.5 508.5 221.1 508.5L221.1 508.5Q220.6 508.5 220.2 508.6Q219.7 508.8 219.3 509.0Q219.0 509.3 218.8 509.7Q218.6 510.1 218.6 510.6L218.6 510.6L218.6 520.1ZM242.9 520.1L238.9 520.1L238.9 516.3L230.1 516.3L230.1 512.8L237.9 500.5L242.9 500.5L242.9 513.1L245.4 513.1L245.4 516.3L242.9 516.3L242.9 520.1ZM238.6 504.9L233.5 513.1L238.9 513.1L238.9 504.9L238.6 504.9ZM254.6 520.4L254.6 520.4Q250.7 520.4 248.8 517.8Q247.0 515.1 247.0 510.3L247.0 510.3Q247.0 505.5 248.8 502.9Q250.7 500.2 254.6 500.2L254.6 500.2Q258.5 500.2 260.4 502.9Q262.2 505.5 262.2 510.3L262.2 510.3Q262.2 515.1 260.4 517.8Q258.5 520.4 254.6 520.4ZM254.6 517.1L254.6 517.1Q256.5 517.1 257.2 515.8Q258.0 514.5 258.0 512.1L258.0 512.1L258.0 508.5Q258.0 506.1 257.2 504.8Q256.5 503.5 254.6 503.5L254.6 503.5Q252.7 503.5 252.0 504.8Q251.2 506.1 251.2 508.5L251.2 508.5L251.2 512.1Q251.2 514.5 252.0 515.8Q252.7 517.1 254.6 517.1ZM254.6 512.0L254.6 512.0Q253.6 512.0 253.2 511.6Q252.9 511.2 252.9 510.6L252.9 510.6L252.9 510.0Q252.9 509.5 253.2 509.1Q253.6 508.7 254.6 508.7L254.6 508.7Q255.6 508.7 256.0 509.1Q256.3 509.5 256.3 510.0L256.3 510.0L256.3 510.6Q256.3 511.2 256.0 511.6Q255.6 512.0 254.6 512.0ZM276.5 520.1L272.5 520.1L272.5 516.3L263.7 516.3L263.7 512.8L271.5 500.5L276.5 500.5L276.5 513.1L279.0 513.1L279.0 516.3L276.5 516.3L276.5 520.1ZM272.2 504.9L267.1 513.1L272.5 513.1L272.5 504.9L272.2 504.9Z " clip-path="url(#satori_cp-id-1-0-1-0-2)" mask="url(#satori_om-id-1-0-1-0-2)"/><clipPath id="satori_cp-id-1-0-1-1"><rect x="1037" y="489" width="34" height="36"/></clipPath><mask id="satori_om-id-1-0-1-1"><rect x="1037" y="489" width="34" height="36" fill="#fff"/></mask><path fill="black" d="M1052.9 520.1L1037.9 520.1L1037.9 498.3L1052.9 498.3L1052.9 520.1ZM1040.7 501.1L1040.7 517.3L1050.1 517.3L1050.1 501.1L1040.7 501.1ZM1069.7 520.1L1054.7 520.1L1054.7 498.3L1069.7 498.3L1069.7 520.1ZM1057.5 501.1L1057.5 517.3L1066.9 517.3L1066.9 501.1L1057.5 501.1Z " clip-path="url(#satori_cp-id-1-0-1-1)" mask="url(#satori_om-id-1-0-1-1)"/></svg>