<svg width="1200" height="630" viewBox="0 0 1200 630" xmlns="http://www.w3.org/2000/svg"><mask id="satori_om-id"><rect x="0" y="0" width="1200" height="630" fill="#fff"/></mask><rect x="0" y="0" width="1200" height="630" fill="#fefbfb"/><defs><clipPath id="satori_bc-id-0"><path x="105" y="39" width="1056" height="504" d="M109,39 h1048 a4,4 0 0 1 4,4 v496 a4,4 0 0 1 -4,4 h-1048 a4,4 0 0 1 -4,-4 v-496 a4,4 0 0 1 4,-4"/></clipPath></defs><mask id="satori_om-id-0"><rect x="109" y="43" width="1048" height="496" fill="#fff"/><path width="1056" height="504" fill="none" stroke="#000" stroke-width="8" d="M106.172,40.172 A4,4 0 0 1 109,39 h1048 a4,4 0 0 1 4,4 v496 a4,4 0 0 1 -4,4 h-1048 a4,4 0 0 1 -4,-4 v-496 A4,4 0 0 1 106.172,40.172"/></mask><g opacity="0.9"><path x="105" y="39" width="1056" height="504" fill="#ecebeb" d="M109,39 h1048 a4,4 0 0 1 4,4 v496 a4,4 0 0 1 -4,4 h-1048 a4,4 0 0 1 -4,-4 v-496 a4,4 0 0 1 4,-4"/><path width="1056" height="504" clip-path="url(#satori_bc-id-0)" fill="none" stroke="#000" stroke-width="8" d="M106.172,40.172 A4,4 0 0 1 109,39 h1048 a4,4 0 0 1 4,4 v496 a4,4 0 0 1 -4,4 h-1048 a4,4 0 0 1 -4,-4 v-496 A4,4 0 0 1 106.172,40.172"/></g><defs><clipPath id="satori_bc-id-1"><path x="72" y="63" width="1056" height="504" d="M76,63 h1048 a4,4 0 0 1 4,4 v496 a4,4 0 0 1 -4,4 h-1048 a4,4 0 0 1 -4,-4 v-496 a4,4 0 0 1 4,-4"/></clipPath></defs><mask id="satori_om-id-1"><rect x="76" y="67" width="1048" height="496" fill="#fff"/><path width="1056" height="504" fill="none" stroke="#000" stroke-width="8" d="M73.172,64.172 A4,4 0 0 1 76,63 h1048 a4,4 0 0 1 4,4 v496 a4,4 0 0 1 -4,4 h-1048 a4,4 0 0 1 -4,-4 v-496 A4,4 0 0 1 73.172,64.172"/></mask><path x="72" y="63" width="1056" height="504" fill="#fefbfb" d="M76,63 h1048 a4,4 0 0 1 4,4 v496 a4,4 0 0 1 -4,4 h-1048 a4,4 0 0 1 -4,-4 v-496 a4,4 0 0 1 4,-4"/><path width="1056" height="504" clip-path="url(#satori_bc-id-1)" fill="none" stroke="#000" stroke-width="8" d="M73.172,64.172 A4,4 0 0 1 76,63 h1048 a4,4 0 0 1 4,4 v496 a4,4 0 0 1 -4,4 h-1048 a4,4 0 0 1 -4,-4 v-496 A4,4 0 0 1 73.172,64.172"/><mask id="satori_om-id-1-0"><rect x="128" y="87" width="944" height="446" fill="#fff"/></mask><clipPath id="satori_cp-id-1-0-0"><rect x="128" y="103" width="944" height="94"/></clipPath><mask id="satori_om-id-1-0-0"><rect x="128" y="103" width="944" height="94" fill="#fff"/></mask><path fill="black" d="M165.9 183.0L133.8 183.0L133.8 132.7L165.9 132.7L165.9 141.6L144.6 141.6L144.6 153.1L165.2 153.1L165.2 161.9L144.6 161.9L144.6 174.1L165.9 174.1L165.9 183.0ZM194.0 183.8L194.0 183.8Q183.9 183.8 179.0 177.0Q174.2 170.2 174.2 157.8L174.2 157.8Q174.2 145.4 179.0 138.6Q183.9 131.8 194.0 131.8L194.0 131.8Q197.8 131.8 200.8 132.9Q203.8 133.9 206.0 135.8Q208.1 137.7 209.5 140.3Q210.9 143.0 211.7 146.3L211.7 146.3L201.7 148.8Q201.2 147.0 200.6 145.4Q200.1 143.9 199.2 142.8Q198.3 141.8 196.9 141.2Q195.6 140.5 193.7 140.5L193.7 140.5Q189.3 140.5 187.5 144.0Q185.7 147.4 185.7 153.4L185.7 153.4L185.7 162.2Q185.7 168.3 187.5 171.7Q189.3 175.1 193.7 175.1L193.7 175.1Q197.5 175.1 199.2 172.8Q200.9 170.5 201.7 166.9L201.7 166.9L211.7 169.3Q210.9 172.7 209.5 175.3Q208.1 178.0 206.0 179.9Q203.8 181.8 200.8 182.8Q197.8 183.8 194.0 183.8ZM245.4 183.0L245.4 160.6L246.0 146.5L245.4 146.5L236.0 172.4L226.6 146.5L226.0 146.5L226.6 160.6L226.6 183.0L217.2 183.0L217.2 132.7L230.0 132.7L236.1 149.6L236.7 149.6L242.9 132.7L254.8 132.7L254.8 183.0L245.4 183.0ZM300.4 183.0L288.9 183.0L285.8 170.9L272.0 170.9L268.9 183.0L258.0 183.0L271.6 132.7L286.8 132.7L300.4 183.0ZM284.1 162.1L279.2 143.1L278.6 143.1L273.7 162.1L284.1 162.1ZM321.6 183.8L321.6 183.8Q315.3 183.8 310.6 181.7Q305.9 179.6 303.0 176.0L303.0 176.0L309.3 169.1Q312.0 172.2 315.3 173.6Q318.6 175.0 322.0 175.0L322.0 175.0Q325.9 175.0 327.9 173.3Q329.9 171.6 329.9 168.3L329.9 168.3Q329.9 165.7 328.3 164.3Q326.8 162.9 323.1 162.4L323.1 162.4L317.9 161.5Q311.1 160.3 308.1 156.5Q305.0 152.6 305.0 147.1L305.0 147.1Q305.0 139.8 309.8 135.8Q314.6 131.8 323.1 131.8L323.1 131.8Q329.0 131.8 333.3 133.6Q337.6 135.4 340.3 138.5L340.3 138.5L334.1 145.4Q332.1 143.1 329.4 141.9Q326.6 140.6 323.2 140.6L323.2 140.6Q315.9 140.6 315.9 146.6L315.9 146.6Q315.9 149.2 317.5 150.5Q319.2 151.8 322.8 152.4L322.8 152.4L328.1 153.4Q334.2 154.4 337.5 158.0Q340.8 161.5 340.8 167.5L340.8 167.5Q340.8 171.0 339.6 174.0Q338.4 177.0 335.9 179.2Q333.5 181.4 329.9 182.6Q326.4 183.8 321.6 183.8ZM367.1 183.8L367.1 183.8Q362.7 183.8 359.2 182.5Q355.7 181.2 353.3 178.6Q350.9 176.1 349.6 172.5Q348.3 168.9 348.3 164.4L348.3 164.4Q348.3 159.8 349.6 156.2Q350.9 152.6 353.3 150.1Q355.7 147.6 359.2 146.3Q362.7 144.9 367.0 144.9L367.0 144.9Q373.2 144.9 376.9 147.4Q380.6 149.9 382.5 154.0L382.5 154.0L374.3 158.5Q373.3 156.3 371.7 154.9Q370.1 153.4 367.0 153.4L367.0 153.4Q363.4 153.4 361.4 155.6Q359.4 157.7 359.4 161.4L359.4 161.4L359.4 167.4Q359.4 171.1 361.4 173.2Q363.4 175.3 367.2 175.3L367.2 175.3Q370.3 175.3 372.0 173.9Q373.8 172.4 375.0 170.1L375.0 170.1L383.1 174.7Q381.1 178.8 377.2 181.3Q373.4 183.8 367.1 183.8ZM392.5 183.0L392.5 174.7L401.1 174.7L401.1 154.1L392.5 154.1L392.5 145.8L411.8 145.8L411.8 156.3L412.3 156.3Q412.8 154.3 413.7 152.4Q414.6 150.5 416.0 149.0Q417.4 147.5 419.4 146.7Q421.4 145.8 424.1 145.8L424.1 145.8L427.7 145.8L427.7 155.6L419.7 155.6Q415.8 155.6 413.8 157.9Q411.8 160.3 411.8 163.7L411.8 163.7L411.8 174.7L424.0 174.7L424.0 183.0L392.5 183.0ZM454.3 141.0L454.3 141.0Q450.7 141.0 449.3 139.6Q447.9 138.1 447.9 136.0L447.9 136.0L447.9 133.9Q447.9 131.8 449.3 130.3Q450.7 128.9 454.3 128.9L454.3 128.9Q457.9 128.9 459.3 130.3Q460.7 131.8 460.7 133.9L460.7 133.9L460.7 136.0Q460.7 138.1 459.3 139.6Q457.9 141.0 454.3 141.0ZM437.2 183.0L437.2 174.7L449.0 174.7L449.0 154.1L437.2 154.1L437.2 145.8L459.6 145.8L459.6 174.7L470.6 174.7L470.6 183.0L437.2 183.0ZM477.8 197.4L477.8 145.8L488.5 145.8L488.5 152.6L489.0 152.6Q490.4 149.3 493.0 147.1Q495.6 144.9 500.0 144.9L500.0 144.9Q503.1 144.9 505.7 146.1Q508.2 147.2 510.1 149.6Q511.9 152.0 512.9 155.7Q514.0 159.3 514.0 164.4L514.0 164.4Q514.0 169.4 512.9 173.1Q511.9 176.8 510.1 179.1Q508.2 181.5 505.7 182.7Q503.1 183.8 500.0 183.8L500.0 183.8Q495.6 183.8 493.0 181.7Q490.4 179.6 489.0 176.2L489.0 176.2L488.5 176.2L488.5 197.4L477.8 197.4ZM495.4 175.5L495.4 175.5Q499.0 175.5 501.0 173.3Q502.9 171.1 502.9 167.3L502.9 167.3L502.9 161.5Q502.9 157.6 501.0 155.4Q499.0 153.2 495.4 153.2L495.4 153.2Q492.6 153.2 490.6 154.6Q488.5 156.0 488.5 158.9L488.5 158.9L488.5 169.8Q488.5 172.8 490.6 174.2Q492.6 175.5 495.4 175.5ZM555.0 183.0L541.3 183.0Q535.5 183.0 532.7 179.9Q529.9 176.9 529.9 172.2L529.9 172.2L529.9 154.1L519.8 154.1L519.8 145.8L526.4 145.8Q528.8 145.8 529.8 144.9Q530.8 143.9 530.8 141.4L530.8 141.4L530.8 132.7L540.6 132.7L540.6 145.8L555.0 145.8L555.0 154.1L540.6 154.1L540.6 174.7L555.0 174.7L555.0 183.0ZM600.9 183.0L562.3 183.0L562.3 126.8L600.9 126.8L600.9 183.0ZM569.5 134.0L569.5 175.8L593.7 175.8L593.7 134.0L569.5 134.0ZM644.1 183.0L605.5 183.0L605.5 126.8L644.1 126.8L644.1 183.0ZM612.7 134.0L612.7 175.8L636.9 175.8L636.9 134.0L612.7 134.0Z " clip-path="url(#satori_cp-id-1-0-0)" mask="url(#satori_om-id-1-0-0)"/><mask id="satori_om-id-1-0-1"><rect x="128" y="489" width="944" height="36" fill="#fff"/></mask><mask id="satori_om-id-1-0-1-0"><rect x="128" y="489" width="152" height="36" fill="#fff"/></mask><path fill="black" d="M130.7 520.3L130.7 499.6L132.9 499.6L132.9 508.2L133.0 508.2Q134.4 505.5 137.5 505.5L137.5 505.5Q140.1 505.5 141.6 507.5Q143.1 509.5 143.1 513.0L143.1 513.0Q143.1 516.6 141.6 518.6Q140.1 520.6 137.5 520.6L137.5 520.6Q134.4 520.6 133.0 517.9L133.0 517.9L132.9 517.9L132.9 520.3L130.7 520.3ZM136.6 518.6L136.6 518.6Q138.6 518.6 139.6 517.4Q140.7 516.2 140.7 514.3L140.7 514.3L140.7 511.8Q140.7 509.9 139.6 508.7Q138.6 507.5 136.6 507.5L136.6 507.5Q135.8 507.5 135.2 507.7Q134.5 507.9 134.0 508.2Q133.5 508.6 133.2 509.2Q132.9 509.7 132.9 510.4L132.9 510.4L132.9 515.7Q132.9 516.4 133.2 516.9Q133.5 517.5 134.0 517.8Q134.5 518.2 135.2 518.4Q135.8 518.6 136.6 518.6ZM155.4 511.9L157.9 505.8L160.1 505.8L152.9 523.4Q152.7 524.1 152.4 524.5Q152.1 525.0 151.7 525.3Q151.2 525.6 150.7 525.7Q150.1 525.9 149.3 525.9L149.3 525.9L147.1 525.9L147.1 524.0L150.5 524.0L152.1 520.0L146.3 505.8L148.6 505.8L151.0 511.9L153.2 517.4L153.3 517.4L155.4 511.9Z "/><mask id="satori_om-id-1-0-1-0-1"><rect x="162" y="489" width="17" height="36" fill="#fff"/></mask><clipPath id="satori_cp-id-1-0-1-0-2"><rect x="179" y="489" width="101" height="36"/></clipPath><mask id="satori_om-id-1-0-1-0-2"><rect x="179" y="489" width="101" height="36" fill="#fff"/></mask><path fill="black" d="M195.0 520.1L192.6 520.1Q191.3 520.1 190.6 519.4Q189.8 518.8 189.6 517.5L189.6 517.5L189.5 517.5Q189.1 519.0 187.9 519.7Q186.8 520.4 185.1 520.4L185.1 520.4Q183.0 520.4 181.7 519.3Q180.5 518.2 180.5 516.1L180.5 516.1Q180.5 513.8 182.1 512.8Q183.8 511.7 187.0 511.7L187.0 511.7L189.3 511.7L189.3 510.9Q189.3 509.6 188.7 509.0Q188.1 508.3 186.6 508.3L186.6 508.3Q185.3 508.3 184.5 508.8Q183.7 509.3 183.1 510.2L183.1 510.2L180.8 508.1Q181.6 506.9 183.1 506.1Q184.7 505.3 187.1 505.3L187.1 505.3Q190.1 505.3 191.8 506.7Q193.4 508.0 193.4 510.8L193.4 510.8L193.4 517.1L195.0 517.1L195.0 520.1ZM186.7 517.7L186.7 517.7Q187.8 517.7 188.5 517.2Q189.3 516.6 189.3 515.6L189.3 515.6L189.3 513.9L187.1 513.9Q184.5 513.9 184.5 515.6L184.5 515.6L184.5 516.2Q184.5 516.9 185.1 517.3Q185.7 517.7 186.7 517.7ZM198.4 525.7L198.4 522.5L203.9 522.5L203.9 508.9L198.3 508.9L198.3 505.6L208.1 505.6L208.1 521.5Q208.1 523.3 207.0 524.5Q205.9 525.7 203.7 525.7L203.7 525.7L198.4 525.7ZM206.0 503.8L206.0 503.8Q204.6 503.8 204.0 503.2Q203.5 502.6 203.5 501.8L203.5 501.8L203.5 501.0Q203.5 500.2 204.0 499.6Q204.6 499.1 206.0 499.1L206.0 499.1Q207.4 499.1 207.9 499.6Q208.5 500.2 208.5 501.0L208.5 501.0L208.5 501.8Q208.5 502.6 207.9 503.2Q207.4 503.8 206.0 503.8ZM218.6 520.1L214.4 520.1L214.4 505.6L218.6 505.6L218.6 508.3L218.7 508.3Q219.0 507.7 219.3 507.1Q219.7 506.6 220.2 506.2Q220.7 505.8 221.4 505.5Q222.1 505.3 223.0 505.3L223.0 505.3Q224.0 505.3 224.9 505.7Q225.8 506.0 226.4 506.7Q227.0 507.4 227.3 508.4Q227.7 509.4 227.7 510.7L227.7 510.7L227.7 520.1L223.5 520.1L223.5 511.3Q223.5 508.5 221.1 508.5L221.1 508.5Q220.6 508.5 220.2 508.6Q219.7 508.8 219.3 509.0Q219.0 509.3 218.8 509.7Q218.6 510.1 218.6 510.6L218.6 510.6L218.6 520.1ZM242.9 520.1L238.9 520.1L238.9 516.3L230.1 516.3L230.1 512.8L237.9 500.5L242.9 500.5L242.9 513.1L245.4 513.1L245.4 516.3L242.9 516.3L242.9 520.1ZM238.6 504.9L233.5 513.1L238.9 513.1L238.9 504.9L238.6 504.9ZM254.6 520.4L254.6 520.4Q250.7 520.4 248.8 517.8Q247.0 515.1 247.0 510.3L247.0 510.3Q247.0 505.5 248.8 502.9Q250.7 500.2 254.6 500.2L254.6 500.2Q258.5 500.2 260.4 502.9Q262.2 505.5 262.2 510.3L262.2 510.3Q262.2 515.1 260.4 517.8Q258.5 520.4 254.6 520.4ZM254.6 517.1L254.6 517.1Q256.5 517.1 257.2 515.8Q258.0 514.5 258.0 512.1L258.0 512.1L258.0 508.5Q258.0 506.1 257.2 504.8Q256.5 503.5 254.6 503.5L254.6 503.5Q252.7 503.5 252.0 504.8Q251.2 506.1 251.2 508.5L251.2 508.5L251.2 512.1Q251.2 514.5 252.0 515.8Q252.7 517.1 254.6 517.1ZM254.6 512.0L254.6 512.0Q253.6 512.0 253.2 511.6Q252.9 511.2 252.9 510.6L252.9 510.6L252.9 510.0Q252.9 509.5 253.2 509.1Q253.6 508.7 254.6 508.7L254.6 508.7Q255.6 508.7 256.0 509.1Q256.3 509.5 256.3 510.0L256.3 510.0L256.3 510.6Q256.3 511.2 256.0 511.6Q255.6 512.0 254.6 512.0ZM276.5 520.1L272.5 520.1L272.5 516.3L263.7 516.3L263.7 512.8L271.5 500.5L276.5 500.5L276.5 513.1L279.0 513.1L279.0 516.3L276.5 516.3L276.5 520.1ZM272.2 504.9L267.1 513.1L272.5 513.1L272.5 504.9L272.2 504.9Z " clip-path="url(#satori_cp-id-1-0-1-0-2)" mask="url(#satori_om-id-1-0-1-0-2)"/><clipPath id="satori_cp-id-1-0-1-1"><rect x="1037" y="489" width="34" height="36"/></clipPath><mask id="satori_om-id-1-0-1-1"><rect x="1037" y="489" width="34" height="36" fill="#fff"/></mask><path fill="black" d="M1052.9 520.1L1037.9 520.1L1037.9 498.3L1052.9 498.3L1052.9 520.1ZM1040.7 501.1L1040.7 517.3L1050.1 517.3L1050.1 501.1L1040.7 501.1ZM1069.7 520.1L1054.7 520.1L1054.7 498.3L1069.7 498.3L1069.7 520.1ZM1057.5 501.1L1057.5 517.3L1066.9 517.3L1066.9 501.1L1057.5 501.1Z " clip-path="url(#satori_cp-id-1-0-1-1)" mask="url(#satori_om-id-1-0-1-1)"/></svg>