<svg width="1200" height="630" viewBox="0 0 1200 630" xmlns="http://www.w3.org/2000/svg"><mask id="satori_om-id"><rect x="0" y="0" width="1200" height="630" fill="#fff"/></mask><rect x="0" y="0" width="1200" height="630" fill="#fefbfb"/><defs><clipPath id="satori_bc-id-0"><path x="105" y="39" width="1056" height="504" d="M109,39 h1048 a4,4 0 0 1 4,4 v496 a4,4 0 0 1 -4,4 h-1048 a4,4 0 0 1 -4,-4 v-496 a4,4 0 0 1 4,-4"/></clipPath></defs><mask id="satori_om-id-0"><rect x="109" y="43" width="1048" height="496" fill="#fff"/><path width="1056" height="504" fill="none" stroke="#000" stroke-width="8" d="M106.172,40.172 A4,4 0 0 1 109,39 h1048 a4,4 0 0 1 4,4 v496 a4,4 0 0 1 -4,4 h-1048 a4,4 0 0 1 -4,-4 v-496 A4,4 0 0 1 106.172,40.172"/></mask><g opacity="0.9"><path x="105" y="39" width="1056" height="504" fill="#ecebeb" d="M109,39 h1048 a4,4 0 0 1 4,4 v496 a4,4 0 0 1 -4,4 h-1048 a4,4 0 0 1 -4,-4 v-496 a4,4 0 0 1 4,-4"/><path width="1056" height="504" clip-path="url(#satori_bc-id-0)" fill="none" stroke="#000" stroke-width="8" d="M106.172,40.172 A4,4 0 0 1 109,39 h1048 a4,4 0 0 1 4,4 v496 a4,4 0 0 1 -4,4 h-1048 a4,4 0 0 1 -4,-4 v-496 A4,4 0 0 1 106.172,40.172"/></g><defs><clipPath id="satori_bc-id-1"><path x="72" y="63" width="1056" height="504" d="M76,63 h1048 a4,4 0 0 1 4,4 v496 a4,4 0 0 1 -4,4 h-1048 a4,4 0 0 1 -4,-4 v-496 a4,4 0 0 1 4,-4"/></clipPath></defs><mask id="satori_om-id-1"><rect x="76" y="67" width="1048" height="496" fill="#fff"/><path width="1056" height="504" fill="none" stroke="#000" stroke-width="8" d="M73.172,64.172 A4,4 0 0 1 76,63 h1048 a4,4 0 0 1 4,4 v496 a4,4 0 0 1 -4,4 h-1048 a4,4 0 0 1 -4,-4 v-496 A4,4 0 0 1 73.172,64.172"/></mask><path x="72" y="63" width="1056" height="504" fill="#fefbfb" d="M76,63 h1048 a4,4 0 0 1 4,4 v496 a4,4 0 0 1 -4,4 h-1048 a4,4 0 0 1 -4,-4 v-496 a4,4 0 0 1 4,-4"/><path width="1056" height="504" clip-path="url(#satori_bc-id-1)" fill="none" stroke="#000" stroke-width="8" d="M73.172,64.172 A4,4 0 0 1 76,63 h1048 a4,4 0 0 1 4,4 v496 a4,4 0 0 1 -4,4 h-1048 a4,4 0 0 1 -4,-4 v-496 A4,4 0 0 1 73.172,64.172"/><mask id="satori_om-id-1-0"><rect x="128" y="87" width="944" height="446" fill="#fff"/></mask><clipPath id="satori_cp-id-1-0-0"><rect x="128" y="103" width="944" height="94"/></clipPath><mask id="satori_om-id-1-0-0"><rect x="128" y="103" width="944" height="94" fill="#fff"/></mask><path fill="black" d="M170.0 186.7L170.0 186.7Q170.0 192.6 165.0 195.4Q160.0 198.2 149.4 198.2L149.4 198.2Q144.1 198.2 140.6 197.6Q137.1 197.0 135.1 195.8Q133.0 194.7 132.2 193.1Q131.4 191.5 131.4 189.6L131.4 189.6Q131.4 186.5 133.3 184.9Q135.1 183.2 138.5 182.4L138.5 182.4L138.5 181.9Q136.1 181.2 134.7 179.9Q133.3 178.6 133.3 176.1L133.3 176.1Q133.3 173.4 135.2 172.1Q137 170.8 140.0 170.1L140.0 170.1L140.0 169.6Q136.7 168.0 134.9 165.2Q133.0 162.3 133.0 158.2L133.0 158.2Q133.0 154.9 134.2 152.5Q135.3 150.0 137.5 148.3Q139.6 146.7 142.5 145.8Q145.5 144.9 149.2 144.9L149.2 144.9Q152.7 144.9 155.7 145.7L155.7 145.7L155.7 143.7Q155.7 141.6 157.2 140.1Q158.7 138.7 161.4 138.7L161.4 138.7L168.0 138.7L168.0 146.4L159.0 146.4L159.0 147.1Q162.1 148.7 163.7 151.5Q165.4 154.2 165.4 158.2L165.4 158.2Q165.4 161.4 164.3 163.9Q163.1 166.3 161.0 168.0Q158.8 169.7 155.8 170.6Q152.8 171.4 149.2 171.4L149.2 171.4Q147.5 171.4 146 171.3Q144.5 171.1 143.1 170.7L143.1 170.7Q142.3 171.1 141.8 171.8Q141.2 172.4 141.2 173.4L141.2 173.4Q141.2 174.3 141.7 174.8Q142.1 175.3 142.9 175.6Q143.6 175.8 144.6 175.9Q145.6 176.0 146.7 176.0L146.7 176.0L155.2 176.0Q159.2 176.0 162.0 176.8Q164.8 177.6 166.6 179.0Q168.4 180.4 169.2 182.4Q170.0 184.3 170.0 186.7ZM159.9 187.5L159.9 187.5Q159.9 186.0 158.7 185.2Q157.6 184.4 154.4 184.4L154.4 184.4L141.6 184.4Q140.2 185.6 140.2 187.4L140.2 187.4Q140.2 189.1 141.6 190.3Q143.1 191.4 146.6 191.4L146.6 191.4L152.9 191.4Q156.6 191.4 158.2 190.4Q159.9 189.4 159.9 187.5ZM149.2 164.7L149.2 164.7Q152.4 164.7 153.9 163.1Q155.4 161.5 155.4 159.0L155.4 159.0L155.4 157.3Q155.4 154.9 153.9 153.3Q152.4 151.7 149.2 151.7L149.2 151.7Q146 151.7 144.6 153.3Q143.1 154.9 143.1 157.3L143.1 157.3L143.1 159.0Q143.1 161.5 144.6 163.1Q146 164.7 149.2 164.7ZM195.1 141.0L195.1 141.0Q191.5 141.0 190.1 139.6Q188.7 138.1 188.7 136.0L188.7 136.0L188.7 133.9Q188.7 131.8 190.1 130.3Q191.5 128.9 195.1 128.9L195.1 128.9Q198.7 128.9 200.1 130.3Q201.5 131.8 201.5 133.9L201.5 133.9L201.5 136.0Q201.5 138.1 200.1 139.6Q198.7 141.0 195.1 141.0ZM178.0 183.0L178.0 174.7L189.8 174.7L189.8 154.1L178.0 154.1L178.0 145.8L200.4 145.8L200.4 174.7L211.4 174.7L211.4 183.0L178.0 183.0ZM252.6 183.0L238.9 183.0Q233.1 183.0 230.3 179.9Q227.5 176.9 227.5 172.2L227.5 172.2L227.5 154.1L217.4 154.1L217.4 145.8L224.0 145.8Q226.4 145.8 227.4 144.9Q228.4 143.9 228.4 141.4L228.4 141.4L228.4 132.7L238.2 132.7L238.2 145.8L252.6 145.8L252.6 154.1L238.2 154.1L238.2 174.7L252.6 174.7L252.6 183.0Z " clip-path="url(#satori_cp-id-1-0-0)" mask="url(#satori_om-id-1-0-0)"/><mask id="satori_om-id-1-0-1"><rect x="128" y="489" width="944" height="36" fill="#fff"/></mask><mask id="satori_om-id-1-0-1-0"><rect x="128" y="489" width="152" height="36" fill="#fff"/></mask><path fill="black" d="M130.7 520.3L130.7 499.6L132.9 499.6L132.9 508.2L133.0 508.2Q134.4 505.5 137.5 505.5L137.5 505.5Q140.1 505.5 141.6 507.5Q143.1 509.5 143.1 513.0L143.1 513.0Q143.1 516.6 141.6 518.6Q140.1 520.6 137.5 520.6L137.5 520.6Q134.4 520.6 133.0 517.9L133.0 517.9L132.9 517.9L132.9 520.3L130.7 520.3ZM136.6 518.6L136.6 518.6Q138.6 518.6 139.6 517.4Q140.7 516.2 140.7 514.3L140.7 514.3L140.7 511.8Q140.7 509.9 139.6 508.7Q138.6 507.5 136.6 507.5L136.6 507.5Q135.8 507.5 135.2 507.7Q134.5 507.9 134.0 508.2Q133.5 508.6 133.2 509.2Q132.9 509.7 132.9 510.4L132.9 510.4L132.9 515.7Q132.9 516.4 133.2 516.9Q133.5 517.5 134.0 517.8Q134.5 518.2 135.2 518.4Q135.8 518.6 136.6 518.6ZM155.4 511.9L157.9 505.8L160.1 505.8L152.9 523.4Q152.7 524.1 152.4 524.5Q152.1 525.0 151.7 525.3Q151.2 525.6 150.7 525.7Q150.1 525.9 149.3 525.9L149.3 525.9L147.1 525.9L147.1 524.0L150.5 524.0L152.1 520.0L146.3 505.8L148.6 505.8L151.0 511.9L153.2 517.4L153.3 517.4L155.4 511.9Z "/><mask id="satori_om-id-1-0-1-0-1"><rect x="162" y="489" width="17" height="36" fill="#fff"/></mask><clipPath id="satori_cp-id-1-0-1-0-2"><rect x="179" y="489" width="101" height="36"/></clipPath><mask id="satori_om-id-1-0-1-0-2"><rect x="179" y="489" width="101" height="36" fill="#fff"/></mask><path fill="black" d="M195.0 520.1L192.6 520.1Q191.3 520.1 190.6 519.4Q189.8 518.8 189.6 517.5L189.6 517.5L189.5 517.5Q189.1 519.0 187.9 519.7Q186.8 520.4 185.1 520.4L185.1 520.4Q183.0 520.4 181.7 519.3Q180.5 518.2 180.5 516.1L180.5 516.1Q180.5 513.8 182.1 512.8Q183.8 511.7 187.0 511.7L187.0 511.7L189.3 511.7L189.3 510.9Q189.3 509.6 188.7 509.0Q188.1 508.3 186.6 508.3L186.6 508.3Q185.3 508.3 184.5 508.8Q183.7 509.3 183.1 510.2L183.1 510.2L180.8 508.1Q181.6 506.9 183.1 506.1Q184.7 505.3 187.1 505.3L187.1 505.3Q190.1 505.3 191.8 506.7Q193.4 508.0 193.4 510.8L193.4 510.8L193.4 517.1L195.0 517.1L195.0 520.1ZM186.7 517.7L186.7 517.7Q187.8 517.7 188.5 517.2Q189.3 516.6 189.3 515.6L189.3 515.6L189.3 513.9L187.1 513.9Q184.5 513.9 184.5 515.6L184.5 515.6L184.5 516.2Q184.5 516.9 185.1 517.3Q185.7 517.7 186.7 517.7ZM198.4 525.7L198.4 522.5L203.9 522.5L203.9 508.9L198.3 508.9L198.3 505.6L208.1 505.6L208.1 521.5Q208.1 523.3 207.0 524.5Q205.9 525.7 203.7 525.7L203.7 525.7L198.4 525.7ZM206.0 503.8L206.0 503.8Q204.6 503.8 204.0 503.2Q203.5 502.6 203.5 501.8L203.5 501.8L203.5 501.0Q203.5 500.2 204.0 499.6Q204.6 499.1 206.0 499.1L206.0 499.1Q207.4 499.1 207.9 499.6Q208.5 500.2 208.5 501.0L208.5 501.0L208.5 501.8Q208.5 502.6 207.9 503.2Q207.4 503.8 206.0 503.8ZM218.6 520.1L214.4 520.1L214.4 505.6L218.6 505.6L218.6 508.3L218.7 508.3Q219.0 507.7 219.3 507.1Q219.7 506.6 220.2 506.2Q220.7 505.8 221.4 505.5Q222.1 505.3 223.0 505.3L223.0 505.3Q224.0 505.3 224.9 505.7Q225.8 506.0 226.4 506.7Q227.0 507.4 227.3 508.4Q227.7 509.4 227.7 510.7L227.7 510.7L227.7 520.1L223.5 520.1L223.5 511.3Q223.5 508.5 221.1 508.5L221.1 508.5Q220.6 508.5 220.2 508.6Q219.7 508.8 219.3 509.0Q219.0 509.3 218.8 509.7Q218.6 510.1 218.6 510.6L218.6 510.6L218.6 520.1ZM242.9 520.1L238.9 520.1L238.9 516.3L230.1 516.3L230.1 512.8L237.9 500.5L242.9 500.5L242.9 513.1L245.4 513.1L245.4 516.3L242.9 516.3L242.9 520.1ZM238.6 504.9L233.5 513.1L238.9 513.1L238.9 504.9L238.6 504.9ZM254.6 520.4L254.6 520.4Q250.7 520.4 248.8 517.8Q247.0 515.1 247.0 510.3L247.0 510.3Q247.0 505.5 248.8 502.9Q250.7 500.2 254.6 500.2L254.6 500.2Q258.5 500.2 260.4 502.9Q262.2 505.5 262.2 510.3L262.2 510.3Q262.2 515.1 260.4 517.8Q258.5 520.4 254.6 520.4ZM254.6 517.1L254.6 517.1Q256.5 517.1 257.2 515.8Q258.0 514.5 258.0 512.1L258.0 512.1L258.0 508.5Q258.0 506.1 257.2 504.8Q256.5 503.5 254.6 503.5L254.6 503.5Q252.7 503.5 252.0 504.8Q251.2 506.1 251.2 508.5L251.2 508.5L251.2 512.1Q251.2 514.5 252.0 515.8Q252.7 517.1 254.6 517.1ZM254.6 512.0L254.6 512.0Q253.6 512.0 253.2 511.6Q252.9 511.2 252.9 510.6L252.9 510.6L252.9 510.0Q252.9 509.5 253.2 509.1Q253.6 508.7 254.6 508.7L254.6 508.7Q255.6 508.7 256.0 509.1Q256.3 509.5 256.3 510.0L256.3 510.0L256.3 510.6Q256.3 511.2 256.0 511.6Q255.6 512.0 254.6 512.0ZM276.5 520.1L272.5 520.1L272.5 516.3L263.7 516.3L263.7 512.8L271.5 500.5L276.5 500.5L276.5 513.1L279.0 513.1L279.0 516.3L276.5 516.3L276.5 520.1ZM272.2 504.9L267.1 513.1L272.5 513.1L272.5 504.9L272.2 504.9Z " clip-path="url(#satori_cp-id-1-0-1-0-2)" mask="url(#satori_om-id-1-0-1-0-2)"/><clipPath id="satori_cp-id-1-0-1-1"><rect x="1037" y="489" width="34" height="36"/></clipPath><mask id="satori_om-id-1-0-1-1"><rect x="1037" y="489" width="34" height="36" fill="#fff"/></mask><path fill="black" d="M1052.9 520.1L1037.9 520.1L1037.9 498.3L1052.9 498.3L1052.9 520.1ZM1040.7 501.1L1040.7 517.3L1050.1 517.3L1050.1 501.1L1040.7 501.1ZM1069.7 520.1L1054.7 520.1L1054.7 498.3L1069.7 498.3L1069.7 520.1ZM1057.5 501.1L1057.5 517.3L1066.9 517.3L1066.9 501.1L1057.5 501.1Z " clip-path="url(#satori_cp-id-1-0-1-1)" mask="url(#satori_om-id-1-0-1-1)"/></svg>