<svg width="1200" height="630" viewBox="0 0 1200 630" xmlns="http://www.w3.org/2000/svg"><mask id="satori_om-id"><rect x="0" y="0" width="1200" height="630" fill="#fff"/></mask><rect x="0" y="0" width="1200" height="630" fill="#fefbfb"/><defs><clipPath id="satori_bc-id-0"><path x="105" y="39" width="1056" height="504" d="M109,39 h1048 a4,4 0 0 1 4,4 v496 a4,4 0 0 1 -4,4 h-1048 a4,4 0 0 1 -4,-4 v-496 a4,4 0 0 1 4,-4"/></clipPath></defs><mask id="satori_om-id-0"><rect x="109" y="43" width="1048" height="496" fill="#fff"/><path width="1056" height="504" fill="none" stroke="#000" stroke-width="8" d="M106.172,40.172 A4,4 0 0 1 109,39 h1048 a4,4 0 0 1 4,4 v496 a4,4 0 0 1 -4,4 h-1048 a4,4 0 0 1 -4,-4 v-496 A4,4 0 0 1 106.172,40.172"/></mask><g opacity="0.9"><path x="105" y="39" width="1056" height="504" fill="#ecebeb" d="M109,39 h1048 a4,4 0 0 1 4,4 v496 a4,4 0 0 1 -4,4 h-1048 a4,4 0 0 1 -4,-4 v-496 a4,4 0 0 1 4,-4"/><path width="1056" height="504" clip-path="url(#satori_bc-id-0)" fill="none" stroke="#000" stroke-width="8" d="M106.172,40.172 A4,4 0 0 1 109,39 h1048 a4,4 0 0 1 4,4 v496 a4,4 0 0 1 -4,4 h-1048 a4,4 0 0 1 -4,-4 v-496 A4,4 0 0 1 106.172,40.172"/></g><defs><clipPath id="satori_bc-id-1"><path x="72" y="63" width="1056" height="504" d="M76,63 h1048 a4,4 0 0 1 4,4 v496 a4,4 0 0 1 -4,4 h-1048 a4,4 0 0 1 -4,-4 v-496 a4,4 0 0 1 4,-4"/></clipPath></defs><mask id="satori_om-id-1"><rect x="76" y="67" width="1048" height="496" fill="#fff"/><path width="1056" height="504" fill="none" stroke="#000" stroke-width="8" d="M73.172,64.172 A4,4 0 0 1 76,63 h1048 a4,4 0 0 1 4,4 v496 a4,4 0 0 1 -4,4 h-1048 a4,4 0 0 1 -4,-4 v-496 A4,4 0 0 1 73.172,64.172"/></mask><path x="72" y="63" width="1056" height="504" fill="#fefbfb" d="M76,63 h1048 a4,4 0 0 1 4,4 v496 a4,4 0 0 1 -4,4 h-1048 a4,4 0 0 1 -4,-4 v-496 a4,4 0 0 1 4,-4"/><path width="1056" height="504" clip-path="url(#satori_bc-id-1)" fill="none" stroke="#000" stroke-width="8" d="M73.172,64.172 A4,4 0 0 1 76,63 h1048 a4,4 0 0 1 4,4 v496 a4,4 0 0 1 -4,4 h-1048 a4,4 0 0 1 -4,-4 v-496 A4,4 0 0 1 73.172,64.172"/><mask id="satori_om-id-1-0"><rect x="128" y="87" width="944" height="446" fill="#fff"/></mask><clipPath id="satori_cp-id-1-0-0"><rect x="128" y="103" width="944" height="94"/></clipPath><mask id="satori_om-id-1-0-0"><rect x="128" y="103" width="944" height="94" fill="#fff"/></mask><path fill="black" d="M170.0 186.7L170.0 186.7Q170.0 192.6 165.0 195.4Q160.0 198.2 149.4 198.2L149.4 198.2Q144.1 198.2 140.6 197.6Q137.1 197.0 135.1 195.8Q133.0 194.7 132.2 193.1Q131.4 191.5 131.4 189.6L131.4 189.6Q131.4 186.5 133.3 184.9Q135.1 183.2 138.5 182.4L138.5 182.4L138.5 181.9Q136.1 181.2 134.7 179.9Q133.3 178.6 133.3 176.1L133.3 176.1Q133.3 173.4 135.2 172.1Q137 170.8 140.0 170.1L140.0 170.1L140.0 169.6Q136.7 168.0 134.9 165.2Q133.0 162.3 133.0 158.2L133.0 158.2Q133.0 154.9 134.2 152.5Q135.3 150.0 137.5 148.3Q139.6 146.7 142.5 145.8Q145.5 144.9 149.2 144.9L149.2 144.9Q152.7 144.9 155.7 145.7L155.7 145.7L155.7 143.7Q155.7 141.6 157.2 140.1Q158.7 138.7 161.4 138.7L161.4 138.7L168.0 138.7L168.0 146.4L159.0 146.4L159.0 147.1Q162.1 148.7 163.7 151.5Q165.4 154.2 165.4 158.2L165.4 158.2Q165.4 161.4 164.3 163.9Q163.1 166.3 161.0 168.0Q158.8 169.7 155.8 170.6Q152.8 171.4 149.2 171.4L149.2 171.4Q147.5 171.4 146 171.3Q144.5 171.1 143.1 170.7L143.1 170.7Q142.3 171.1 141.8 171.8Q141.2 172.4 141.2 173.4L141.2 173.4Q141.2 174.3 141.7 174.8Q142.1 175.3 142.9 175.6Q143.6 175.8 144.6 175.9Q145.6 176.0 146.7 176.0L146.7 176.0L155.2 176.0Q159.2 176.0 162.0 176.8Q164.8 177.6 166.6 179.0Q168.4 180.4 169.2 182.4Q170.0 184.3 170.0 186.7ZM159.9 187.5L159.9 187.5Q159.9 186.0 158.7 185.2Q157.6 184.4 154.4 184.4L154.4 184.4L141.6 184.4Q140.2 185.6 140.2 187.4L140.2 187.4Q140.2 189.1 141.6 190.3Q143.1 191.4 146.6 191.4L146.6 191.4L152.9 191.4Q156.6 191.4 158.2 190.4Q159.9 189.4 159.9 187.5ZM149.2 164.7L149.2 164.7Q152.4 164.7 153.9 163.1Q155.4 161.5 155.4 159.0L155.4 159.0L155.4 157.3Q155.4 154.9 153.9 153.3Q152.4 151.7 149.2 151.7L149.2 151.7Q146 151.7 144.6 153.3Q143.1 154.9 143.1 157.3L143.1 157.3L143.1 159.0Q143.1 161.5 144.6 163.1Q146 164.7 149.2 164.7ZM176.1 183.0L176.1 174.7L187.5 174.7L187.5 138.0L176.1 138.0L176.1 129.7L198.1 129.7L198.1 174.7L209.5 174.7L209.5 183.0L176.1 183.0ZM235.6 183.8L235.6 183.8Q229.4 183.8 224.8 181.9Q220.2 180.1 217.9 176.8L217.9 176.8L223.9 171.3Q226.1 173.7 229.0 175.0Q231.9 176.3 235.6 176.3L235.6 176.3Q238.8 176.3 240.6 175.4Q242.4 174.4 242.4 172.4L242.4 172.4Q242.4 170.8 241.2 170.2Q240.0 169.6 237.8 169.2L237.8 169.2L231.8 168.3Q229.3 167.9 227.1 167.1Q225.0 166.4 223.4 165.1Q221.8 163.8 220.9 161.9Q219.9 160.1 219.9 157.4L219.9 157.4Q219.9 151.6 224.4 148.2Q228.9 144.9 236.9 144.9L236.9 144.9Q242.4 144.9 246.3 146.4Q250.1 147.9 252.4 150.6L252.4 150.6L247.1 156.7Q245.4 154.9 242.8 153.6Q240.2 152.4 236.6 152.4L236.6 152.4Q230.4 152.4 230.4 156.2L230.4 156.2Q230.4 157.8 231.6 158.4Q232.8 159.0 235.0 159.4L235.0 159.4L240.9 160.3Q243.4 160.7 245.6 161.5Q247.7 162.2 249.4 163.5Q251.0 164.8 251.9 166.7Q252.8 168.6 252.8 171.2L252.8 171.2Q252.8 177.0 248.3 180.4Q243.8 183.8 235.6 183.8ZM262.5 183.0L262.5 174.7L273.9 174.7L273.9 138.0L262.5 138.0L262.5 129.7L284.5 129.7L284.5 174.7L295.9 174.7L295.9 183.0L262.5 183.0Z M348.9 183.0L344.5 145.8L353.4 145.8L356.0 175.9L356.7 175.9L361.1 145.8L370.5 145.8L374.8 175.9L375.5 175.9L378.3 145.8L386.7 145.8L382.3 183.0L369.6 183.0L366.0 157.3L365.2 157.3L361.6 183.0L348.9 183.0ZM411.1 141.0L411.1 141.0Q407.5 141.0 406.1 139.6Q404.7 138.1 404.7 136.0L404.7 136.0L404.7 133.9Q404.7 131.8 406.1 130.3Q407.5 128.9 411.1 128.9L411.1 128.9Q414.7 128.9 416.1 130.3Q417.5 131.8 417.5 133.9L417.5 133.9L417.5 136.0Q417.5 138.1 416.1 139.6Q414.7 141.0 411.1 141.0ZM394.0 183.0L394.0 174.7L405.8 174.7L405.8 154.1L394.0 154.1L394.0 145.8L416.4 145.8L416.4 174.7L427.4 174.7L427.4 183.0L394.0 183.0ZM468.6 183.0L454.9 183.0Q449.1 183.0 446.3 179.9Q443.5 176.9 443.5 172.2L443.5 172.2L443.5 154.1L433.4 154.1L433.4 145.8L440.0 145.8Q442.4 145.8 443.4 144.9Q444.4 143.9 444.4 141.4L444.4 141.4L444.4 132.7L454.2 132.7L454.2 145.8L468.6 145.8L468.6 154.1L454.2 154.1L454.2 174.7L468.6 174.7L468.6 183.0ZM478.3 183.0L478.3 129.7L488.9 129.7L488.9 152.6L489.4 152.6Q490.0 151.0 491.0 149.6Q491.9 148.2 493.2 147.2Q494.6 146.2 496.3 145.5Q498.1 144.9 500.3 144.9L500.3 144.9Q503.0 144.9 505.2 145.8Q507.4 146.7 509.0 148.5Q510.6 150.3 511.5 152.9Q512.4 155.5 512.4 158.9L512.4 158.9L512.4 183.0L501.8 183.0L501.8 160.3Q501.8 153.1 495.5 153.1L495.5 153.1Q494.3 153.1 493.1 153.5Q491.9 153.8 491.0 154.5Q490.0 155.2 489.5 156.2Q488.9 157.2 488.9 158.5L488.9 158.5L488.9 183.0L478.3 183.0Z M564.7 183.0L564.7 129.7L575.3 129.7L575.3 159.9L575.8 159.9L580.8 154.1L588.6 145.8L600.8 145.8L586.4 160.5L602.3 183.0L589.7 183.0L578.9 166.5L575.3 170.1L575.3 183.0L564.7 183.0ZM624.8 183.8L624.8 183.8Q620.5 183.8 617.0 182.5Q613.6 181.2 611.2 178.6Q608.7 176.1 607.4 172.5Q606.2 168.9 606.2 164.4L606.2 164.4Q606.2 159.8 607.4 156.2Q608.7 152.6 611.2 150.1Q613.6 147.6 617.0 146.3Q620.5 144.9 624.8 144.9L624.8 144.9Q629.1 144.9 632.6 146.3Q636.0 147.6 638.4 150.1Q640.9 152.6 642.2 156.2Q643.4 159.8 643.4 164.4L643.4 164.4Q643.4 168.9 642.2 172.5Q640.9 176.1 638.4 178.6Q636.0 181.2 632.6 182.5Q629.1 183.8 624.8 183.8ZM624.8 175.9L624.8 175.9Q628.4 175.9 630.4 173.7Q632.4 171.4 632.4 167.3L632.4 167.3L632.4 161.4Q632.4 157.3 630.4 155.1Q628.4 152.9 624.8 152.9L624.8 152.9Q621.2 152.9 619.2 155.1Q617.2 157.3 617.2 161.4L617.2 161.4L617.2 167.3Q617.2 171.4 619.2 173.7Q621.2 175.9 624.8 175.9ZM674.7 183.0L674.7 176.2L674.2 176.2Q672.8 179.6 670.2 181.7Q667.6 183.8 663.2 183.8L663.2 183.8Q660.1 183.8 657.5 182.7Q655.0 181.5 653.1 179.1Q651.3 176.8 650.3 173.1Q649.2 169.4 649.2 164.4L649.2 164.4Q649.2 159.3 650.3 155.7Q651.3 152.0 653.1 149.6Q655.0 147.2 657.5 146.1Q660.1 144.9 663.2 144.9L663.2 144.9Q665.4 144.9 667.1 145.5Q668.9 146.1 670.2 147.1Q671.5 148.1 672.5 149.5Q673.5 150.9 674.2 152.6L674.2 152.6L674.7 152.6L674.7 129.7L685.4 129.7L685.4 183.0L674.7 183.0ZM667.8 175.5L667.8 175.5Q670.6 175.5 672.6 174.2Q674.7 172.8 674.7 169.8L674.7 169.8L674.7 158.9Q674.7 156.0 672.6 154.6Q670.6 153.2 667.8 153.2L667.8 153.2Q664.2 153.2 662.2 155.4Q660.3 157.6 660.3 161.5L660.3 161.5L660.3 167.3Q660.3 171.1 662.2 173.3Q664.2 175.5 667.8 175.5ZM712.2 183.8L712.2 183.8Q702.8 183.8 698.0 178.6Q693.2 173.4 693.2 164.5L693.2 164.5Q693.2 160.0 694.5 156.3Q695.7 152.7 698.1 150.2Q700.4 147.6 703.7 146.3Q707.1 144.9 711.3 144.9L711.3 144.9Q715.4 144.9 718.8 146.3Q722.1 147.6 724.4 150.0Q726.7 152.5 727.9 156.0Q729.2 159.5 729.2 163.8L729.2 163.8L729.2 167.0L703.8 167.0L703.8 167.6Q703.8 171.2 706.0 173.4Q708.2 175.6 712.6 175.6L712.6 175.6Q715.9 175.6 718.3 174.3Q720.6 173.1 722.4 171.0L722.4 171.0L728.1 177.3Q726.0 179.9 722.1 181.9Q718.2 183.8 712.2 183.8ZM711.3 152.6L711.3 152.6Q707.9 152.6 705.8 154.7Q703.8 156.8 703.8 160.4L703.8 160.4L703.8 161.0L718.8 161.0L718.8 160.4Q718.8 156.7 716.8 154.7Q714.8 152.6 711.3 152.6ZM737.7 183.0L737.7 174.7L749.1 174.7L749.1 138.0L737.7 138.0L737.7 129.7L759.7 129.7L759.7 174.7L771.1 174.7L771.1 183.0L737.7 183.0ZM799.9 141.0L799.9 141.0Q796.3 141.0 794.9 139.6Q793.5 138.1 793.5 136.0L793.5 136.0L793.5 133.9Q793.5 131.8 794.9 130.3Q796.3 128.9 799.9 128.9L799.9 128.9Q803.5 128.9 804.9 130.3Q806.3 131.8 806.3 133.9L806.3 133.9L806.3 136.0Q806.3 138.1 804.9 139.6Q803.5 141.0 799.9 141.0ZM782.8 183.0L782.8 174.7L794.6 174.7L794.6 154.1L782.8 154.1L782.8 145.8L805.2 145.8L805.2 174.7L816.2 174.7L816.2 183.0L782.8 183.0ZM824.3 183.0L824.3 174.7L835.3 174.7L835.3 154.1L823.6 154.1L823.6 145.8L835.3 145.8L835.3 140.4Q835.3 135.6 838.0 132.7Q840.8 129.7 846.6 129.7L846.6 129.7L859.2 129.7L859.2 138.0L845.9 138.0L845.9 145.8L859.2 145.8L859.2 154.1L845.9 154.1L845.9 174.7L857.6 174.7L857.6 183.0L824.3 183.0ZM885.0 183.8L885.0 183.8Q875.6 183.8 870.8 178.6Q866.0 173.4 866.0 164.5L866.0 164.5Q866.0 160.0 867.3 156.3Q868.5 152.7 870.9 150.2Q873.2 147.6 876.5 146.3Q879.9 144.9 884.1 144.9L884.1 144.9Q888.2 144.9 891.6 146.3Q894.9 147.6 897.2 150.0Q899.5 152.5 900.7 156.0Q902.0 159.5 902.0 163.8L902.0 163.8L902.0 167.0L876.6 167.0L876.6 167.6Q876.6 171.2 878.8 173.4Q881.0 175.6 885.4 175.6L885.4 175.6Q888.7 175.6 891.1 174.3Q893.4 173.1 895.2 171.0L895.2 171.0L900.9 177.3Q898.8 179.9 894.9 181.9Q891.0 183.8 885.0 183.8ZM884.1 152.6L884.1 152.6Q880.7 152.6 878.6 154.7Q876.6 156.8 876.6 160.4L876.6 160.4L876.6 161.0L891.6 161.0L891.6 160.4Q891.6 156.7 889.6 154.7Q887.6 152.6 884.1 152.6Z " clip-path="url(#satori_cp-id-1-0-0)" mask="url(#satori_om-id-1-0-0)"/><mask id="satori_om-id-1-0-1"><rect x="128" y="489" width="944" height="36" fill="#fff"/></mask><mask id="satori_om-id-1-0-1-0"><rect x="128" y="489" width="152" height="36" fill="#fff"/></mask><path fill="black" d="M130.7 520.3L130.7 499.6L132.9 499.6L132.9 508.2L133.0 508.2Q134.4 505.5 137.5 505.5L137.5 505.5Q140.1 505.5 141.6 507.5Q143.1 509.5 143.1 513.0L143.1 513.0Q143.1 516.6 141.6 518.6Q140.1 520.6 137.5 520.6L137.5 520.6Q134.4 520.6 133.0 517.9L133.0 517.9L132.9 517.9L132.9 520.3L130.7 520.3ZM136.6 518.6L136.6 518.6Q138.6 518.6 139.6 517.4Q140.7 516.2 140.7 514.3L140.7 514.3L140.7 511.8Q140.7 509.9 139.6 508.7Q138.6 507.5 136.6 507.5L136.6 507.5Q135.8 507.5 135.2 507.7Q134.5 507.9 134.0 508.2Q133.5 508.6 133.2 509.2Q132.9 509.7 132.9 510.4L132.9 510.4L132.9 515.7Q132.9 516.4 133.2 516.9Q133.5 517.5 134.0 517.8Q134.5 518.2 135.2 518.4Q135.8 518.6 136.6 518.6ZM155.4 511.9L157.9 505.8L160.1 505.8L152.9 523.4Q152.7 524.1 152.4 524.5Q152.1 525.0 151.7 525.3Q151.2 525.6 150.7 525.7Q150.1 525.9 149.3 525.9L149.3 525.9L147.1 525.9L147.1 524.0L150.5 524.0L152.1 520.0L146.3 505.8L148.6 505.8L151.0 511.9L153.2 517.4L153.3 517.4L155.4 511.9Z "/><mask id="satori_om-id-1-0-1-0-1"><rect x="162" y="489" width="17" height="36" fill="#fff"/></mask><clipPath id="satori_cp-id-1-0-1-0-2"><rect x="179" y="489" width="101" height="36"/></clipPath><mask id="satori_om-id-1-0-1-0-2"><rect x="179" y="489" width="101" height="36" fill="#fff"/></mask><path fill="black" d="M195.0 520.1L192.6 520.1Q191.3 520.1 190.6 519.4Q189.8 518.8 189.6 517.5L189.6 517.5L189.5 517.5Q189.1 519.0 187.9 519.7Q186.8 520.4 185.1 520.4L185.1 520.4Q183.0 520.4 181.7 519.3Q180.5 518.2 180.5 516.1L180.5 516.1Q180.5 513.8 182.1 512.8Q183.8 511.7 187.0 511.7L187.0 511.7L189.3 511.7L189.3 510.9Q189.3 509.6 188.7 509.0Q188.1 508.3 186.6 508.3L186.6 508.3Q185.3 508.3 184.5 508.8Q183.7 509.3 183.1 510.2L183.1 510.2L180.8 508.1Q181.6 506.9 183.1 506.1Q184.7 505.3 187.1 505.3L187.1 505.3Q190.1 505.3 191.8 506.7Q193.4 508.0 193.4 510.8L193.4 510.8L193.4 517.1L195.0 517.1L195.0 520.1ZM186.7 517.7L186.7 517.7Q187.8 517.7 188.5 517.2Q189.3 516.6 189.3 515.6L189.3 515.6L189.3 513.9L187.1 513.9Q184.5 513.9 184.5 515.6L184.5 515.6L184.5 516.2Q184.5 516.9 185.1 517.3Q185.7 517.7 186.7 517.7ZM198.4 525.7L198.4 522.5L203.9 522.5L203.9 508.9L198.3 508.9L198.3 505.6L208.1 505.6L208.1 521.5Q208.1 523.3 207.0 524.5Q205.9 525.7 203.7 525.7L203.7 525.7L198.4 525.7ZM206.0 503.8L206.0 503.8Q204.6 503.8 204.0 503.2Q203.5 502.6 203.5 501.8L203.5 501.8L203.5 501.0Q203.5 500.2 204.0 499.6Q204.6 499.1 206.0 499.1L206.0 499.1Q207.4 499.1 207.9 499.6Q208.5 500.2 208.5 501.0L208.5 501.0L208.5 501.8Q208.5 502.6 207.9 503.2Q207.4 503.8 206.0 503.8ZM218.6 520.1L214.4 520.1L214.4 505.6L218.6 505.6L218.6 508.3L218.7 508.3Q219.0 507.7 219.3 507.1Q219.7 506.6 220.2 506.2Q220.7 505.8 221.4 505.5Q222.1 505.3 223.0 505.3L223.0 505.3Q224.0 505.3 224.9 505.7Q225.8 506.0 226.4 506.7Q227.0 507.4 227.3 508.4Q227.7 509.4 227.7 510.7L227.7 510.7L227.7 520.1L223.5 520.1L223.5 511.3Q223.5 508.5 221.1 508.5L221.1 508.5Q220.6 508.5 220.2 508.6Q219.7 508.8 219.3 509.0Q219.0 509.3 218.8 509.7Q218.6 510.1 218.6 510.6L218.6 510.6L218.6 520.1ZM242.9 520.1L238.9 520.1L238.9 516.3L230.1 516.3L230.1 512.8L237.9 500.5L242.9 500.5L242.9 513.1L245.4 513.1L245.4 516.3L242.9 516.3L242.9 520.1ZM238.6 504.9L233.5 513.1L238.9 513.1L238.9 504.9L238.6 504.9ZM254.6 520.4L254.6 520.4Q250.7 520.4 248.8 517.8Q247.0 515.1 247.0 510.3L247.0 510.3Q247.0 505.5 248.8 502.9Q250.7 500.2 254.6 500.2L254.6 500.2Q258.5 500.2 260.4 502.9Q262.2 505.5 262.2 510.3L262.2 510.3Q262.2 515.1 260.4 517.8Q258.5 520.4 254.6 520.4ZM254.6 517.1L254.6 517.1Q256.5 517.1 257.2 515.8Q258.0 514.5 258.0 512.1L258.0 512.1L258.0 508.5Q258.0 506.1 257.2 504.8Q256.5 503.5 254.6 503.5L254.6 503.5Q252.7 503.5 252.0 504.8Q251.2 506.1 251.2 508.5L251.2 508.5L251.2 512.1Q251.2 514.5 252.0 515.8Q252.7 517.1 254.6 517.1ZM254.6 512.0L254.6 512.0Q253.6 512.0 253.2 511.6Q252.9 511.2 252.9 510.6L252.9 510.6L252.9 510.0Q252.9 509.5 253.2 509.1Q253.6 508.7 254.6 508.7L254.6 508.7Q255.6 508.7 256.0 509.1Q256.3 509.5 256.3 510.0L256.3 510.0L256.3 510.6Q256.3 511.2 256.0 511.6Q255.6 512.0 254.6 512.0ZM276.5 520.1L272.5 520.1L272.5 516.3L263.7 516.3L263.7 512.8L271.5 500.5L276.5 500.5L276.5 513.1L279.0 513.1L279.0 516.3L276.5 516.3L276.5 520.1ZM272.2 504.9L267.1 513.1L272.5 513.1L272.5 504.9L272.2 504.9Z " clip-path="url(#satori_cp-id-1-0-1-0-2)" mask="url(#satori_om-id-1-0-1-0-2)"/><clipPath id="satori_cp-id-1-0-1-1"><rect x="1037" y="489" width="34" height="36"/></clipPath><mask id="satori_om-id-1-0-1-1"><rect x="1037" y="489" width="34" height="36" fill="#fff"/></mask><path fill="black" d="M1052.9 520.1L1037.9 520.1L1037.9 498.3L1052.9 498.3L1052.9 520.1ZM1040.7 501.1L1040.7 517.3L1050.1 517.3L1050.1 501.1L1040.7 501.1ZM1069.7 520.1L1054.7 520.1L1054.7 498.3L1069.7 498.3L1069.7 520.1ZM1057.5 501.1L1057.5 517.3L1066.9 517.3L1066.9 501.1L1057.5 501.1Z " clip-path="url(#satori_cp-id-1-0-1-1)" mask="url(#satori_om-id-1-0-1-1)"/></svg>