<svg width="1200" height="630" viewBox="0 0 1200 630" xmlns="http://www.w3.org/2000/svg"><mask id="satori_om-id"><rect x="0" y="0" width="1200" height="630" fill="#fff"/></mask><rect x="0" y="0" width="1200" height="630" fill="#fefbfb"/><defs><clipPath id="satori_bc-id-0"><path x="105" y="39" width="1056" height="504" d="M109,39 h1048 a4,4 0 0 1 4,4 v496 a4,4 0 0 1 -4,4 h-1048 a4,4 0 0 1 -4,-4 v-496 a4,4 0 0 1 4,-4"/></clipPath></defs><mask id="satori_om-id-0"><rect x="109" y="43" width="1048" height="496" fill="#fff"/><path width="1056" height="504" fill="none" stroke="#000" stroke-width="8" d="M106.172,40.172 A4,4 0 0 1 109,39 h1048 a4,4 0 0 1 4,4 v496 a4,4 0 0 1 -4,4 h-1048 a4,4 0 0 1 -4,-4 v-496 A4,4 0 0 1 106.172,40.172"/></mask><g opacity="0.9"><path x="105" y="39" width="1056" height="504" fill="#ecebeb" d="M109,39 h1048 a4,4 0 0 1 4,4 v496 a4,4 0 0 1 -4,4 h-1048 a4,4 0 0 1 -4,-4 v-496 a4,4 0 0 1 4,-4"/><path width="1056" height="504" clip-path="url(#satori_bc-id-0)" fill="none" stroke="#000" stroke-width="8" d="M106.172,40.172 A4,4 0 0 1 109,39 h1048 a4,4 0 0 1 4,4 v496 a4,4 0 0 1 -4,4 h-1048 a4,4 0 0 1 -4,-4 v-496 A4,4 0 0 1 106.172,40.172"/></g><defs><clipPath id="satori_bc-id-1"><path x="72" y="63" width="1056" height="504" d="M76,63 h1048 a4,4 0 0 1 4,4 v496 a4,4 0 0 1 -4,4 h-1048 a4,4 0 0 1 -4,-4 v-496 a4,4 0 0 1 4,-4"/></clipPath></defs><mask id="satori_om-id-1"><rect x="76" y="67" width="1048" height="496" fill="#fff"/><path width="1056" height="504" fill="none" stroke="#000" stroke-width="8" d="M73.172,64.172 A4,4 0 0 1 76,63 h1048 a4,4 0 0 1 4,4 v496 a4,4 0 0 1 -4,4 h-1048 a4,4 0 0 1 -4,-4 v-496 A4,4 0 0 1 73.172,64.172"/></mask><path x="72" y="63" width="1056" height="504" fill="#fefbfb" d="M76,63 h1048 a4,4 0 0 1 4,4 v496 a4,4 0 0 1 -4,4 h-1048 a4,4 0 0 1 -4,-4 v-496 a4,4 0 0 1 4,-4"/><path width="1056" height="504" clip-path="url(#satori_bc-id-1)" fill="none" stroke="#000" stroke-width="8" d="M73.172,64.172 A4,4 0 0 1 76,63 h1048 a4,4 0 0 1 4,4 v496 a4,4 0 0 1 -4,4 h-1048 a4,4 0 0 1 -4,-4 v-496 A4,4 0 0 1 73.172,64.172"/><mask id="satori_om-id-1-0"><rect x="128" y="87" width="944" height="446" fill="#fff"/></mask><clipPath id="satori_cp-id-1-0-0"><rect x="128" y="103" width="944" height="94"/></clipPath><mask id="satori_om-id-1-0-0"><rect x="128" y="103" width="944" height="94" fill="#fff"/></mask><path fill="black" d="M132.9 183.0L128.5 145.8L137.4 145.8L140.0 175.9L140.7 175.9L145.1 145.8L154.5 145.8L158.8 175.9L159.5 175.9L162.3 145.8L170.7 145.8L166.3 183.0L153.6 183.0L150.0 157.3L149.2 157.3L145.6 183.0L132.9 183.0ZM193.8 183.8L193.8 183.8Q184.4 183.8 179.6 178.6Q174.8 173.4 174.8 164.5L174.8 164.5Q174.8 160.0 176.1 156.3Q177.3 152.7 179.7 150.2Q182 147.6 185.3 146.3Q188.7 144.9 192.9 144.9L192.9 144.9Q197.0 144.9 200.4 146.3Q203.7 147.6 206.0 150.0Q208.3 152.5 209.5 156.0Q210.8 159.5 210.8 163.8L210.8 163.8L210.8 167.0L185.4 167.0L185.4 167.6Q185.4 171.2 187.6 173.4Q189.8 175.6 194.2 175.6L194.2 175.6Q197.5 175.6 199.9 174.3Q202.2 173.1 204.0 171.0L204.0 171.0L209.7 177.3Q207.6 179.9 203.7 181.9Q199.8 183.8 193.8 183.8ZM192.9 152.6L192.9 152.6Q189.5 152.6 187.4 154.7Q185.4 156.8 185.4 160.4L185.4 160.4L185.4 161.0L200.4 161.0L200.4 160.4Q200.4 156.7 198.4 154.7Q196.4 152.6 192.9 152.6ZM218.6 183.0L218.6 129.7L229.3 129.7L229.3 152.6L229.8 152.6Q231.2 149.3 233.8 147.1Q236.4 144.9 240.8 144.9L240.8 144.9Q243.9 144.9 246.5 146.1Q249.0 147.2 250.9 149.6Q252.7 152.0 253.7 155.7Q254.8 159.3 254.8 164.4L254.8 164.4Q254.8 169.4 253.7 173.1Q252.7 176.8 250.9 179.1Q249.0 181.5 246.5 182.7Q243.9 183.8 240.8 183.8L240.8 183.8Q236.4 183.8 233.8 181.7Q231.2 179.6 229.8 176.2L229.8 176.2L229.3 176.2L229.3 183.0L218.6 183.0ZM236.2 175.5L236.2 175.5Q239.8 175.5 241.8 173.3Q243.7 171.1 243.7 167.3L243.7 167.3L243.7 161.5Q243.7 157.6 241.8 155.4Q239.8 153.2 236.2 153.2L236.2 153.2Q233.4 153.2 231.4 154.6Q229.3 156.0 229.3 158.9L229.3 158.9L229.3 169.8Q229.3 172.8 231.4 174.2Q233.4 175.5 236.2 175.5Z M323.9 183.8L323.9 183.8Q319.5 183.8 316.0 182.5Q312.5 181.2 310.1 178.6Q307.7 176.1 306.4 172.5Q305.1 168.9 305.1 164.4L305.1 164.4Q305.1 159.8 306.4 156.2Q307.7 152.6 310.1 150.1Q312.5 147.6 316.0 146.3Q319.5 144.9 323.8 144.9L323.8 144.9Q330.0 144.9 333.7 147.4Q337.4 149.9 339.3 154.0L339.3 154.0L331.1 158.5Q330.1 156.3 328.5 154.9Q326.9 153.4 323.8 153.4L323.8 153.4Q320.2 153.4 318.2 155.6Q316.2 157.7 316.2 161.4L316.2 161.4L316.2 167.4Q316.2 171.1 318.2 173.2Q320.2 175.3 324.0 175.3L324.0 175.3Q327.1 175.3 328.8 173.9Q330.6 172.4 331.8 170.1L331.8 170.1L339.9 174.7Q337.9 178.8 334.0 181.3Q330.2 183.8 323.9 183.8ZM365.6 183.8L365.6 183.8Q361.3 183.8 357.8 182.5Q354.4 181.2 352.0 178.6Q349.5 176.1 348.2 172.5Q347.0 168.9 347.0 164.4L347.0 164.4Q347.0 159.8 348.2 156.2Q349.5 152.6 352.0 150.1Q354.4 147.6 357.8 146.3Q361.3 144.9 365.6 144.9L365.6 144.9Q369.9 144.9 373.4 146.3Q376.8 147.6 379.2 150.1Q381.7 152.6 383.0 156.2Q384.2 159.8 384.2 164.4L384.2 164.4Q384.2 168.9 383.0 172.5Q381.7 176.1 379.2 178.6Q376.8 181.2 373.4 182.5Q369.9 183.8 365.6 183.8ZM365.6 175.9L365.6 175.9Q369.2 175.9 371.2 173.7Q373.2 171.4 373.2 167.3L373.2 167.3L373.2 161.4Q373.2 157.3 371.2 155.1Q369.2 152.9 365.6 152.9L365.6 152.9Q362.0 152.9 360.0 155.1Q358.0 157.3 358.0 161.4L358.0 161.4L358.0 167.3Q358.0 171.4 360.0 173.7Q362.0 175.9 365.6 175.9ZM397.9 183.0L389.4 183.0L389.4 145.8L397.9 145.8L397.9 151.3L398.4 151.3Q399.3 148.7 400.9 146.8Q402.5 144.9 405.5 144.9L405.5 144.9Q410.9 144.9 412.1 151.3L412.1 151.3L412.5 151.3Q413.0 150.0 413.6 148.8Q414.3 147.7 415.2 146.8Q416.1 145.9 417.4 145.4Q418.7 144.9 420.5 144.9L420.5 144.9Q428.2 144.9 428.2 156.4L428.2 156.4L428.2 183.0L419.7 183.0L419.7 157.5Q419.7 154.9 418.8 153.8Q417.9 152.8 416.4 152.8L416.4 152.8Q415.1 152.8 414.1 153.7Q413.1 154.6 413.1 156.5L413.1 156.5L413.1 183.0L404.5 183.0L404.5 157.5Q404.5 154.9 403.7 153.8Q402.8 152.8 401.4 152.8L401.4 152.8Q399.9 152.8 398.9 153.7Q397.9 154.6 397.9 156.5L397.9 156.5L397.9 183.0ZM434.6 197.4L434.6 145.8L445.3 145.8L445.3 152.6L445.8 152.6Q447.2 149.3 449.8 147.1Q452.4 144.9 456.8 144.9L456.8 144.9Q459.9 144.9 462.5 146.1Q465.0 147.2 466.9 149.6Q468.7 152.0 469.7 155.7Q470.8 159.3 470.8 164.4L470.8 164.4Q470.8 169.4 469.7 173.1Q468.7 176.8 466.9 179.1Q465.0 181.5 462.5 182.7Q459.9 183.8 456.8 183.8L456.8 183.8Q452.4 183.8 449.8 181.7Q447.2 179.6 445.8 176.2L445.8 176.2L445.3 176.2L445.3 197.4L434.6 197.4ZM452.2 175.5L452.2 175.5Q455.8 175.5 457.8 173.3Q459.7 171.1 459.7 167.3L459.7 167.3L459.7 161.5Q459.7 157.6 457.8 155.4Q455.8 153.2 452.2 153.2L452.2 153.2Q449.4 153.2 447.4 154.6Q445.3 156.0 445.3 158.9L445.3 158.9L445.3 169.8Q445.3 172.8 447.4 174.2Q449.4 175.5 452.2 175.5ZM495.2 183.8L495.2 183.8Q490.9 183.8 487.4 182.5Q484.0 181.2 481.6 178.6Q479.1 176.1 477.8 172.5Q476.6 168.9 476.6 164.4L476.6 164.4Q476.6 159.8 477.8 156.2Q479.1 152.6 481.6 150.1Q484.0 147.6 487.4 146.3Q490.9 144.9 495.2 144.9L495.2 144.9Q499.5 144.9 503.0 146.3Q506.4 147.6 508.8 150.1Q511.3 152.6 512.6 156.2Q513.8 159.8 513.8 164.4L513.8 164.4Q513.8 168.9 512.6 172.5Q511.3 176.1 508.8 178.6Q506.4 181.2 503.0 182.5Q499.5 183.8 495.2 183.8ZM495.2 175.9L495.2 175.9Q498.8 175.9 500.8 173.7Q502.8 171.4 502.8 167.3L502.8 167.3L502.8 161.4Q502.8 157.3 500.8 155.1Q498.8 152.9 495.2 152.9L495.2 152.9Q491.6 152.9 489.6 155.1Q487.6 157.3 487.6 161.4L487.6 161.4L487.6 167.3Q487.6 171.4 489.6 173.7Q491.6 175.9 495.2 175.9ZM532.1 183.0L521.5 183.0L521.5 145.8L532.1 145.8L532.1 152.6L532.6 152.6Q533.2 151.0 534.2 149.6Q535.1 148.2 536.4 147.2Q537.8 146.2 539.5 145.5Q541.3 144.9 543.5 144.9L543.5 144.9Q546.2 144.9 548.4 145.8Q550.6 146.7 552.2 148.5Q553.8 150.3 554.7 152.9Q555.6 155.5 555.6 158.9L555.6 158.9L555.6 183.0L545.0 183.0L545.0 160.3Q545.0 153.1 538.7 153.1L538.7 153.1Q537.5 153.1 536.3 153.5Q535.1 153.8 534.2 154.5Q533.2 155.2 532.7 156.2Q532.1 157.2 532.1 158.5L532.1 158.5L532.1 183.0ZM582.6 183.8L582.6 183.8Q573.2 183.8 568.4 178.6Q563.6 173.4 563.6 164.5L563.6 164.5Q563.6 160.0 564.9 156.3Q566.1 152.7 568.5 150.2Q570.8 147.6 574.1 146.3Q577.5 144.9 581.7 144.9L581.7 144.9Q585.8 144.9 589.2 146.3Q592.5 147.6 594.8 150.0Q597.1 152.5 598.3 156.0Q599.6 159.5 599.6 163.8L599.6 163.8L599.6 167.0L574.2 167.0L574.2 167.6Q574.2 171.2 576.4 173.4Q578.6 175.6 583.0 175.6L583.0 175.6Q586.3 175.6 588.7 174.3Q591.0 173.1 592.8 171.0L592.8 171.0L598.5 177.3Q596.4 179.9 592.5 181.9Q588.6 183.8 582.6 183.8ZM581.7 152.6L581.7 152.6Q578.3 152.6 576.2 154.7Q574.2 156.8 574.2 160.4L574.2 160.4L574.2 161.0L589.2 161.0L589.2 160.4Q589.2 156.7 587.2 154.7Q585.2 152.6 581.7 152.6ZM618.5 183.0L607.9 183.0L607.9 145.8L618.5 145.8L618.5 152.6L619.0 152.6Q619.6 151.0 620.6 149.6Q621.5 148.2 622.8 147.2Q624.2 146.2 625.9 145.5Q627.7 144.9 629.9 144.9L629.9 144.9Q632.6 144.9 634.8 145.8Q637.0 146.7 638.6 148.5Q640.2 150.3 641.1 152.9Q642.0 155.5 642.0 158.9L642.0 158.9L642.0 183.0L631.4 183.0L631.4 160.3Q631.4 153.1 625.1 153.1L625.1 153.1Q623.9 153.1 622.7 153.5Q621.5 153.8 620.6 154.5Q619.6 155.2 619.1 156.2Q618.5 157.2 618.5 158.5L618.5 158.5L618.5 183.0ZM684.6 183.0L670.9 183.0Q665.1 183.0 662.3 179.9Q659.5 176.9 659.5 172.2L659.5 172.2L659.5 154.1L649.4 154.1L649.4 145.8L656.0 145.8Q658.4 145.8 659.4 144.9Q660.4 143.9 660.4 141.4L660.4 141.4L660.4 132.7L670.2 132.7L670.2 145.8L684.6 145.8L684.6 154.1L670.2 154.1L670.2 174.7L684.6 174.7L684.6 183.0Z " clip-path="url(#satori_cp-id-1-0-0)" mask="url(#satori_om-id-1-0-0)"/><mask id="satori_om-id-1-0-1"><rect x="128" y="489" width="944" height="36" fill="#fff"/></mask><mask id="satori_om-id-1-0-1-0"><rect x="128" y="489" width="152" height="36" fill="#fff"/></mask><path fill="black" d="M130.7 520.3L130.7 499.6L132.9 499.6L132.9 508.2L133.0 508.2Q134.4 505.5 137.5 505.5L137.5 505.5Q140.1 505.5 141.6 507.5Q143.1 509.5 143.1 513.0L143.1 513.0Q143.1 516.6 141.6 518.6Q140.1 520.6 137.5 520.6L137.5 520.6Q134.4 520.6 133.0 517.9L133.0 517.9L132.9 517.9L132.9 520.3L130.7 520.3ZM136.6 518.6L136.6 518.6Q138.6 518.6 139.6 517.4Q140.7 516.2 140.7 514.3L140.7 514.3L140.7 511.8Q140.7 509.9 139.6 508.7Q138.6 507.5 136.6 507.5L136.6 507.5Q135.8 507.5 135.2 507.7Q134.5 507.9 134.0 508.2Q133.5 508.6 133.2 509.2Q132.9 509.7 132.9 510.4L132.9 510.4L132.9 515.7Q132.9 516.4 133.2 516.9Q133.5 517.5 134.0 517.8Q134.5 518.2 135.2 518.4Q135.8 518.6 136.6 518.6ZM155.4 511.9L157.9 505.8L160.1 505.8L152.9 523.4Q152.7 524.1 152.4 524.5Q152.1 525.0 151.7 525.3Q151.2 525.6 150.7 525.7Q150.1 525.9 149.3 525.9L149.3 525.9L147.1 525.9L147.1 524.0L150.5 524.0L152.1 520.0L146.3 505.8L148.6 505.8L151.0 511.9L153.2 517.4L153.3 517.4L155.4 511.9Z "/><mask id="satori_om-id-1-0-1-0-1"><rect x="162" y="489" width="17" height="36" fill="#fff"/></mask><clipPath id="satori_cp-id-1-0-1-0-2"><rect x="179" y="489" width="101" height="36"/></clipPath><mask id="satori_om-id-1-0-1-0-2"><rect x="179" y="489" width="101" height="36" fill="#fff"/></mask><path fill="black" d="M195.0 520.1L192.6 520.1Q191.3 520.1 190.6 519.4Q189.8 518.8 189.6 517.5L189.6 517.5L189.5 517.5Q189.1 519.0 187.9 519.7Q186.8 520.4 185.1 520.4L185.1 520.4Q183.0 520.4 181.7 519.3Q180.5 518.2 180.5 516.1L180.5 516.1Q180.5 513.8 182.1 512.8Q183.8 511.7 187.0 511.7L187.0 511.7L189.3 511.7L189.3 510.9Q189.3 509.6 188.7 509.0Q188.1 508.3 186.6 508.3L186.6 508.3Q185.3 508.3 184.5 508.8Q183.7 509.3 183.1 510.2L183.1 510.2L180.8 508.1Q181.6 506.9 183.1 506.1Q184.7 505.3 187.1 505.3L187.1 505.3Q190.1 505.3 191.8 506.7Q193.4 508.0 193.4 510.8L193.4 510.8L193.4 517.1L195.0 517.1L195.0 520.1ZM186.7 517.7L186.7 517.7Q187.8 517.7 188.5 517.2Q189.3 516.6 189.3 515.6L189.3 515.6L189.3 513.9L187.1 513.9Q184.5 513.9 184.5 515.6L184.5 515.6L184.5 516.2Q184.5 516.9 185.1 517.3Q185.7 517.7 186.7 517.7ZM198.4 525.7L198.4 522.5L203.9 522.5L203.9 508.9L198.3 508.9L198.3 505.6L208.1 505.6L208.1 521.5Q208.1 523.3 207.0 524.5Q205.9 525.7 203.7 525.7L203.7 525.7L198.4 525.7ZM206.0 503.8L206.0 503.8Q204.6 503.8 204.0 503.2Q203.5 502.6 203.5 501.8L203.5 501.8L203.5 501.0Q203.5 500.2 204.0 499.6Q204.6 499.1 206.0 499.1L206.0 499.1Q207.4 499.1 207.9 499.6Q208.5 500.2 208.5 501.0L208.5 501.0L208.5 501.8Q208.5 502.6 207.9 503.2Q207.4 503.8 206.0 503.8ZM218.6 520.1L214.4 520.1L214.4 505.6L218.6 505.6L218.6 508.3L218.7 508.3Q219.0 507.7 219.3 507.1Q219.7 506.6 220.2 506.2Q220.7 505.8 221.4 505.5Q222.1 505.3 223.0 505.3L223.0 505.3Q224.0 505.3 224.9 505.7Q225.8 506.0 226.4 506.7Q227.0 507.4 227.3 508.4Q227.7 509.4 227.7 510.7L227.7 510.7L227.7 520.1L223.5 520.1L223.5 511.3Q223.5 508.5 221.1 508.5L221.1 508.5Q220.6 508.5 220.2 508.6Q219.7 508.8 219.3 509.0Q219.0 509.3 218.8 509.7Q218.6 510.1 218.6 510.6L218.6 510.6L218.6 520.1ZM242.9 520.1L238.9 520.1L238.9 516.3L230.1 516.3L230.1 512.8L237.9 500.5L242.9 500.5L242.9 513.1L245.4 513.1L245.4 516.3L242.9 516.3L242.9 520.1ZM238.6 504.9L233.5 513.1L238.9 513.1L238.9 504.9L238.6 504.9ZM254.6 520.4L254.6 520.4Q250.7 520.4 248.8 517.8Q247.0 515.1 247.0 510.3L247.0 510.3Q247.0 505.5 248.8 502.9Q250.7 500.2 254.6 500.2L254.6 500.2Q258.5 500.2 260.4 502.9Q262.2 505.5 262.2 510.3L262.2 510.3Q262.2 515.1 260.4 517.8Q258.5 520.4 254.6 520.4ZM254.6 517.1L254.6 517.1Q256.5 517.1 257.2 515.8Q258.0 514.5 258.0 512.1L258.0 512.1L258.0 508.5Q258.0 506.1 257.2 504.8Q256.5 503.5 254.6 503.5L254.6 503.5Q252.7 503.5 252.0 504.8Q251.2 506.1 251.2 508.5L251.2 508.5L251.2 512.1Q251.2 514.5 252.0 515.8Q252.7 517.1 254.6 517.1ZM254.6 512.0L254.6 512.0Q253.6 512.0 253.2 511.6Q252.9 511.2 252.9 510.6L252.9 510.6L252.9 510.0Q252.9 509.5 253.2 509.1Q253.6 508.7 254.6 508.7L254.6 508.7Q255.6 508.7 256.0 509.1Q256.3 509.5 256.3 510.0L256.3 510.0L256.3 510.6Q256.3 511.2 256.0 511.6Q255.6 512.0 254.6 512.0ZM276.5 520.1L272.5 520.1L272.5 516.3L263.7 516.3L263.7 512.8L271.5 500.5L276.5 500.5L276.5 513.1L279.0 513.1L279.0 516.3L276.5 516.3L276.5 520.1ZM272.2 504.9L267.1 513.1L272.5 513.1L272.5 504.9L272.2 504.9Z " clip-path="url(#satori_cp-id-1-0-1-0-2)" mask="url(#satori_om-id-1-0-1-0-2)"/><clipPath id="satori_cp-id-1-0-1-1"><rect x="1037" y="489" width="34" height="36"/></clipPath><mask id="satori_om-id-1-0-1-1"><rect x="1037" y="489" width="34" height="36" fill="#fff"/></mask><path fill="black" d="M1052.9 520.1L1037.9 520.1L1037.9 498.3L1052.9 498.3L1052.9 520.1ZM1040.7 501.1L1040.7 517.3L1050.1 517.3L1050.1 501.1L1040.7 501.1ZM1069.7 520.1L1054.7 520.1L1054.7 498.3L1069.7 498.3L1069.7 520.1ZM1057.5 501.1L1057.5 517.3L1066.9 517.3L1066.9 501.1L1057.5 501.1Z " clip-path="url(#satori_cp-id-1-0-1-1)" mask="url(#satori_om-id-1-0-1-1)"/></svg>