<svg width="1200" height="630" viewBox="0 0 1200 630" xmlns="http://www.w3.org/2000/svg"><mask id="satori_om-id"><rect x="0" y="0" width="1200" height="630" fill="#fff"/></mask><rect x="0" y="0" width="1200" height="630" fill="#fefbfb"/><defs><clipPath id="satori_bc-id-0"><path x="105" y="39" width="1056" height="504" d="M109,39 h1048 a4,4 0 0 1 4,4 v496 a4,4 0 0 1 -4,4 h-1048 a4,4 0 0 1 -4,-4 v-496 a4,4 0 0 1 4,-4"/></clipPath></defs><mask id="satori_om-id-0"><rect x="109" y="43" width="1048" height="496" fill="#fff"/><path width="1056" height="504" fill="none" stroke="#000" stroke-width="8" d="M106.172,40.172 A4,4 0 0 1 109,39 h1048 a4,4 0 0 1 4,4 v496 a4,4 0 0 1 -4,4 h-1048 a4,4 0 0 1 -4,-4 v-496 A4,4 0 0 1 106.172,40.172"/></mask><g opacity="0.9"><path x="105" y="39" width="1056" height="504" fill="#ecebeb" d="M109,39 h1048 a4,4 0 0 1 4,4 v496 a4,4 0 0 1 -4,4 h-1048 a4,4 0 0 1 -4,-4 v-496 a4,4 0 0 1 4,-4"/><path width="1056" height="504" clip-path="url(#satori_bc-id-0)" fill="none" stroke="#000" stroke-width="8" d="M106.172,40.172 A4,4 0 0 1 109,39 h1048 a4,4 0 0 1 4,4 v496 a4,4 0 0 1 -4,4 h-1048 a4,4 0 0 1 -4,-4 v-496 A4,4 0 0 1 106.172,40.172"/></g><defs><clipPath id="satori_bc-id-1"><path x="72" y="63" width="1056" height="504" d="M76,63 h1048 a4,4 0 0 1 4,4 v496 a4,4 0 0 1 -4,4 h-1048 a4,4 0 0 1 -4,-4 v-496 a4,4 0 0 1 4,-4"/></clipPath></defs><mask id="satori_om-id-1"><rect x="76" y="67" width="1048" height="496" fill="#fff"/><path width="1056" height="504" fill="none" stroke="#000" stroke-width="8" d="M73.172,64.172 A4,4 0 0 1 76,63 h1048 a4,4 0 0 1 4,4 v496 a4,4 0 0 1 -4,4 h-1048 a4,4 0 0 1 -4,-4 v-496 A4,4 0 0 1 73.172,64.172"/></mask><path x="72" y="63" width="1056" height="504" fill="#fefbfb" d="M76,63 h1048 a4,4 0 0 1 4,4 v496 a4,4 0 0 1 -4,4 h-1048 a4,4 0 0 1 -4,-4 v-496 a4,4 0 0 1 4,-4"/><path width="1056" height="504" clip-path="url(#satori_bc-id-1)" fill="none" stroke="#000" stroke-width="8" d="M73.172,64.172 A4,4 0 0 1 76,63 h1048 a4,4 0 0 1 4,4 v496 a4,4 0 0 1 -4,4 h-1048 a4,4 0 0 1 -4,-4 v-496 A4,4 0 0 1 73.172,64.172"/><mask id="satori_om-id-1-0"><rect x="128" y="87" width="944" height="446" fill="#fff"/></mask><clipPath id="satori_cp-id-1-0-0"><rect x="128" y="103" width="944" height="94"/></clipPath><mask id="satori_om-id-1-0-0"><rect x="128" y="103" width="944" height="94" fill="#fff"/></mask><path fill="black" d="M168.9 183.0L130.3 183.0L130.3 126.8L168.9 126.8L168.9 183.0ZM137.5 134.0L137.5 175.8L161.7 175.8L161.7 134.0L137.5 134.0ZM212.1 183.0L173.5 183.0L173.5 126.8L212.1 126.8L212.1 183.0ZM180.7 134.0L180.7 175.8L204.9 175.8L204.9 134.0L180.7 134.0ZM256.4 186.7L256.4 186.7Q256.4 192.6 251.4 195.4Q246.4 198.2 235.8 198.2L235.8 198.2Q230.5 198.2 227.0 197.6Q223.5 197.0 221.5 195.8Q219.4 194.7 218.6 193.1Q217.8 191.5 217.8 189.6L217.8 189.6Q217.8 186.5 219.7 184.9Q221.5 183.2 224.9 182.4L224.9 182.4L224.9 181.9Q222.5 181.2 221.1 179.9Q219.7 178.6 219.7 176.1L219.7 176.1Q219.7 173.4 221.6 172.1Q223.4 170.8 226.4 170.1L226.4 170.1L226.4 169.6Q223.1 168.0 221.3 165.2Q219.4 162.3 219.4 158.2L219.4 158.2Q219.4 154.9 220.6 152.5Q221.7 150.0 223.9 148.3Q226.0 146.7 228.9 145.8Q231.9 144.9 235.6 144.9L235.6 144.9Q239.1 144.9 242.1 145.7L242.1 145.7L242.1 143.7Q242.1 141.6 243.6 140.1Q245.1 138.7 247.8 138.7L247.8 138.7L254.4 138.7L254.4 146.4L245.4 146.4L245.4 147.1Q248.5 148.7 250.1 151.5Q251.8 154.2 251.8 158.2L251.8 158.2Q251.8 161.4 250.7 163.9Q249.5 166.3 247.4 168.0Q245.2 169.7 242.2 170.6Q239.2 171.4 235.6 171.4L235.6 171.4Q233.9 171.4 232.4 171.3Q230.9 171.1 229.5 170.7L229.5 170.7Q228.7 171.1 228.2 171.8Q227.6 172.4 227.6 173.4L227.6 173.4Q227.6 174.3 228.1 174.8Q228.5 175.3 229.3 175.6Q230.0 175.8 231.0 175.9Q232.0 176.0 233.1 176.0L233.1 176.0L241.6 176.0Q245.6 176.0 248.4 176.8Q251.2 177.6 253.0 179.0Q254.8 180.4 255.6 182.4Q256.4 184.3 256.4 186.7ZM246.3 187.5L246.3 187.5Q246.3 186.0 245.1 185.2Q244.0 184.4 240.8 184.4L240.8 184.4L228.0 184.4Q226.6 185.6 226.6 187.4L226.6 187.4Q226.6 189.1 228.0 190.3Q229.5 191.4 233.0 191.4L233.0 191.4L239.3 191.4Q243.0 191.4 244.6 190.4Q246.3 189.4 246.3 187.5ZM235.6 164.7L235.6 164.7Q238.8 164.7 240.3 163.1Q241.8 161.5 241.8 159.0L241.8 159.0L241.8 157.3Q241.8 154.9 240.3 153.3Q238.8 151.7 235.6 151.7L235.6 151.7Q232.4 151.7 231.0 153.3Q229.5 154.9 229.5 157.3L229.5 157.3L229.5 159.0Q229.5 161.5 231.0 163.1Q232.4 164.7 235.6 164.7ZM278.8 183.8L278.8 183.8Q272.6 183.8 268.0 181.9Q263.4 180.1 261.1 176.8L261.1 176.8L267.1 171.3Q269.3 173.7 272.2 175.0Q275.1 176.3 278.8 176.3L278.8 176.3Q282.0 176.3 283.8 175.4Q285.6 174.4 285.6 172.4L285.6 172.4Q285.6 170.8 284.4 170.2Q283.2 169.6 281.0 169.2L281.0 169.2L275.0 168.3Q272.5 167.9 270.3 167.1Q268.2 166.4 266.6 165.1Q265.0 163.8 264.1 161.9Q263.1 160.1 263.1 157.4L263.1 157.4Q263.1 151.6 267.6 148.2Q272.1 144.9 280.1 144.9L280.1 144.9Q285.6 144.9 289.5 146.4Q293.3 147.9 295.6 150.6L295.6 150.6L290.3 156.7Q288.6 154.9 286.0 153.6Q283.4 152.4 279.8 152.4L279.8 152.4Q273.6 152.4 273.6 156.2L273.6 156.2Q273.6 157.8 274.8 158.4Q276.0 159.0 278.2 159.4L278.2 159.4L284.1 160.3Q286.6 160.7 288.8 161.5Q290.9 162.2 292.6 163.5Q294.2 164.8 295.1 166.7Q296.0 168.6 296.0 171.2L296.0 171.2Q296.0 177.0 291.5 180.4Q287.0 183.8 278.8 183.8ZM342.0 183.0L335.9 183.0Q332.6 183.0 330.5 181.3Q328.5 179.6 328.2 176.4L328.2 176.4L327.8 176.4Q326.8 180.1 323.8 181.9Q320.8 183.8 316.5 183.8L316.5 183.8Q311.1 183.8 307.8 180.9Q304.5 178.0 304.5 172.7L304.5 172.7Q304.5 166.9 308.8 164.1Q313.0 161.3 321.2 161.3L321.2 161.3L327.2 161.3L327.2 159.4Q327.2 156.1 325.7 154.4Q324.1 152.7 320.5 152.7L320.5 152.7Q317.1 152.7 315.0 154.0Q312.9 155.3 311.4 157.4L311.4 157.4L305.6 152.2Q307.4 149.0 311.4 147.0Q315.4 144.9 321.7 144.9L321.7 144.9Q329.3 144.9 333.6 148.4Q337.9 151.9 337.9 159.0L337.9 159.0L337.9 175.2L342.0 175.2L342.0 183.0ZM320.5 176.8L320.5 176.8Q323.3 176.8 325.3 175.5Q327.2 174.1 327.2 171.5L327.2 171.5L327.2 167.0L321.5 167.0Q315.0 167.0 315.0 171.4L315.0 171.4L315.0 172.9Q315.0 174.8 316.5 175.8Q318.0 176.8 320.5 176.8ZM348.2 197.4L348.2 145.8L358.9 145.8L358.9 152.6L359.4 152.6Q360.8 149.3 363.4 147.1Q366.0 144.9 370.4 144.9L370.4 144.9Q373.5 144.9 376.1 146.1Q378.6 147.2 380.5 149.6Q382.3 152.0 383.3 155.7Q384.4 159.3 384.4 164.4L384.4 164.4Q384.4 169.4 383.3 173.1Q382.3 176.8 380.5 179.1Q378.6 181.5 376.1 182.7Q373.5 183.8 370.4 183.8L370.4 183.8Q366.0 183.8 363.4 181.7Q360.8 179.6 359.4 176.2L359.4 176.2L358.9 176.2L358.9 197.4L348.2 197.4ZM365.8 175.5L365.8 175.5Q369.4 175.5 371.4 173.3Q373.3 171.1 373.3 167.3L373.3 167.3L373.3 161.5Q373.3 157.6 371.4 155.4Q369.4 153.2 365.8 153.2L365.8 153.2Q363.0 153.2 361.0 154.6Q358.9 156.0 358.9 158.9L358.9 158.9L358.9 169.8Q358.9 172.8 361.0 174.2Q363.0 175.5 365.8 175.5Z " clip-path="url(#satori_cp-id-1-0-0)" mask="url(#satori_om-id-1-0-0)"/><mask id="satori_om-id-1-0-1"><rect x="128" y="489" width="944" height="36" fill="#fff"/></mask><mask id="satori_om-id-1-0-1-0"><rect x="128" y="489" width="152" height="36" fill="#fff"/></mask><path fill="black" d="M130.7 520.3L130.7 499.6L132.9 499.6L132.9 508.2L133.0 508.2Q134.4 505.5 137.5 505.5L137.5 505.5Q140.1 505.5 141.6 507.5Q143.1 509.5 143.1 513.0L143.1 513.0Q143.1 516.6 141.6 518.6Q140.1 520.6 137.5 520.6L137.5 520.6Q134.4 520.6 133.0 517.9L133.0 517.9L132.9 517.9L132.9 520.3L130.7 520.3ZM136.6 518.6L136.6 518.6Q138.6 518.6 139.6 517.4Q140.7 516.2 140.7 514.3L140.7 514.3L140.7 511.8Q140.7 509.9 139.6 508.7Q138.6 507.5 136.6 507.5L136.6 507.5Q135.8 507.5 135.2 507.7Q134.5 507.9 134.0 508.2Q133.5 508.6 133.2 509.2Q132.9 509.7 132.9 510.4L132.9 510.4L132.9 515.7Q132.9 516.4 133.2 516.9Q133.5 517.5 134.0 517.8Q134.5 518.2 135.2 518.4Q135.8 518.6 136.6 518.6ZM155.4 511.9L157.9 505.8L160.1 505.8L152.9 523.4Q152.7 524.1 152.4 524.5Q152.1 525.0 151.7 525.3Q151.2 525.6 150.7 525.7Q150.1 525.9 149.3 525.9L149.3 525.9L147.1 525.9L147.1 524.0L150.5 524.0L152.1 520.0L146.3 505.8L148.6 505.8L151.0 511.9L153.2 517.4L153.3 517.4L155.4 511.9Z "/><mask id="satori_om-id-1-0-1-0-1"><rect x="162" y="489" width="17" height="36" fill="#fff"/></mask><clipPath id="satori_cp-id-1-0-1-0-2"><rect x="179" y="489" width="101" height="36"/></clipPath><mask id="satori_om-id-1-0-1-0-2"><rect x="179" y="489" width="101" height="36" fill="#fff"/></mask><path fill="black" d="M195.0 520.1L192.6 520.1Q191.3 520.1 190.6 519.4Q189.8 518.8 189.6 517.5L189.6 517.5L189.5 517.5Q189.1 519.0 187.9 519.7Q186.8 520.4 185.1 520.4L185.1 520.4Q183.0 520.4 181.7 519.3Q180.5 518.2 180.5 516.1L180.5 516.1Q180.5 513.8 182.1 512.8Q183.8 511.7 187.0 511.7L187.0 511.7L189.3 511.7L189.3 510.9Q189.3 509.6 188.7 509.0Q188.1 508.3 186.6 508.3L186.6 508.3Q185.3 508.3 184.5 508.8Q183.7 509.3 183.1 510.2L183.1 510.2L180.8 508.1Q181.6 506.9 183.1 506.1Q184.7 505.3 187.1 505.3L187.1 505.3Q190.1 505.3 191.8 506.7Q193.4 508.0 193.4 510.8L193.4 510.8L193.4 517.1L195.0 517.1L195.0 520.1ZM186.7 517.7L186.7 517.7Q187.8 517.7 188.5 517.2Q189.3 516.6 189.3 515.6L189.3 515.6L189.3 513.9L187.1 513.9Q184.5 513.9 184.5 515.6L184.5 515.6L184.5 516.2Q184.5 516.9 185.1 517.3Q185.7 517.7 186.7 517.7ZM198.4 525.7L198.4 522.5L203.9 522.5L203.9 508.9L198.3 508.9L198.3 505.6L208.1 505.6L208.1 521.5Q208.1 523.3 207.0 524.5Q205.9 525.7 203.7 525.7L203.7 525.7L198.4 525.7ZM206.0 503.8L206.0 503.8Q204.6 503.8 204.0 503.2Q203.5 502.6 203.5 501.8L203.5 501.8L203.5 501.0Q203.5 500.2 204.0 499.6Q204.6 499.1 206.0 499.1L206.0 499.1Q207.4 499.1 207.9 499.6Q208.5 500.2 208.5 501.0L208.5 501.0L208.5 501.8Q208.5 502.6 207.9 503.2Q207.4 503.8 206.0 503.8ZM218.6 520.1L214.4 520.1L214.4 505.6L218.6 505.6L218.6 508.3L218.7 508.3Q219.0 507.7 219.3 507.1Q219.7 506.6 220.2 506.2Q220.7 505.8 221.4 505.5Q222.1 505.3 223.0 505.3L223.0 505.3Q224.0 505.3 224.9 505.7Q225.8 506.0 226.4 506.7Q227.0 507.4 227.3 508.4Q227.7 509.4 227.7 510.7L227.7 510.7L227.7 520.1L223.5 520.1L223.5 511.3Q223.5 508.5 221.1 508.5L221.1 508.5Q220.6 508.5 220.2 508.6Q219.7 508.8 219.3 509.0Q219.0 509.3 218.8 509.7Q218.6 510.1 218.6 510.6L218.6 510.6L218.6 520.1ZM242.9 520.1L238.9 520.1L238.9 516.3L230.1 516.3L230.1 512.8L237.9 500.5L242.9 500.5L242.9 513.1L245.4 513.1L245.4 516.3L242.9 516.3L242.9 520.1ZM238.6 504.9L233.5 513.1L238.9 513.1L238.9 504.9L238.6 504.9ZM254.6 520.4L254.6 520.4Q250.7 520.4 248.8 517.8Q247.0 515.1 247.0 510.3L247.0 510.3Q247.0 505.5 248.8 502.9Q250.7 500.2 254.6 500.2L254.6 500.2Q258.5 500.2 260.4 502.9Q262.2 505.5 262.2 510.3L262.2 510.3Q262.2 515.1 260.4 517.8Q258.5 520.4 254.6 520.4ZM254.6 517.1L254.6 517.1Q256.5 517.1 257.2 515.8Q258.0 514.5 258.0 512.1L258.0 512.1L258.0 508.5Q258.0 506.1 257.2 504.8Q256.5 503.5 254.6 503.5L254.6 503.5Q252.7 503.5 252.0 504.8Q251.2 506.1 251.2 508.5L251.2 508.5L251.2 512.1Q251.2 514.5 252.0 515.8Q252.7 517.1 254.6 517.1ZM254.6 512.0L254.6 512.0Q253.6 512.0 253.2 511.6Q252.9 511.2 252.9 510.6L252.9 510.6L252.9 510.0Q252.9 509.5 253.2 509.1Q253.6 508.7 254.6 508.7L254.6 508.7Q255.6 508.7 256.0 509.1Q256.3 509.5 256.3 510.0L256.3 510.0L256.3 510.6Q256.3 511.2 256.0 511.6Q255.6 512.0 254.6 512.0ZM276.5 520.1L272.5 520.1L272.5 516.3L263.7 516.3L263.7 512.8L271.5 500.5L276.5 500.5L276.5 513.1L279.0 513.1L279.0 516.3L276.5 516.3L276.5 520.1ZM272.2 504.9L267.1 513.1L272.5 513.1L272.5 504.9L272.2 504.9Z " clip-path="url(#satori_cp-id-1-0-1-0-2)" mask="url(#satori_om-id-1-0-1-0-2)"/><clipPath id="satori_cp-id-1-0-1-1"><rect x="1037" y="489" width="34" height="36"/></clipPath><mask id="satori_om-id-1-0-1-1"><rect x="1037" y="489" width="34" height="36" fill="#fff"/></mask><path fill="black" d="M1052.9 520.1L1037.9 520.1L1037.9 498.3L1052.9 498.3L1052.9 520.1ZM1040.7 501.1L1040.7 517.3L1050.1 517.3L1050.1 501.1L1040.7 501.1ZM1069.7 520.1L1054.7 520.1L1054.7 498.3L1069.7 498.3L1069.7 520.1ZM1057.5 501.1L1057.5 517.3L1066.9 517.3L1066.9 501.1L1057.5 501.1Z " clip-path="url(#satori_cp-id-1-0-1-1)" mask="url(#satori_om-id-1-0-1-1)"/></svg>