<svg width="1200" height="630" viewBox="0 0 1200 630" xmlns="http://www.w3.org/2000/svg"><mask id="satori_om-id"><rect x="0" y="0" width="1200" height="630" fill="#fff"/></mask><rect x="0" y="0" width="1200" height="630" fill="#fefbfb"/><defs><clipPath id="satori_bc-id-0"><path x="105" y="39" width="1056" height="504" d="M109,39 h1048 a4,4 0 0 1 4,4 v496 a4,4 0 0 1 -4,4 h-1048 a4,4 0 0 1 -4,-4 v-496 a4,4 0 0 1 4,-4"/></clipPath></defs><mask id="satori_om-id-0"><rect x="109" y="43" width="1048" height="496" fill="#fff"/><path width="1056" height="504" fill="none" stroke="#000" stroke-width="8" d="M106.172,40.172 A4,4 0 0 1 109,39 h1048 a4,4 0 0 1 4,4 v496 a4,4 0 0 1 -4,4 h-1048 a4,4 0 0 1 -4,-4 v-496 A4,4 0 0 1 106.172,40.172"/></mask><g opacity="0.9"><path x="105" y="39" width="1056" height="504" fill="#ecebeb" d="M109,39 h1048 a4,4 0 0 1 4,4 v496 a4,4 0 0 1 -4,4 h-1048 a4,4 0 0 1 -4,-4 v-496 a4,4 0 0 1 4,-4"/><path width="1056" height="504" clip-path="url(#satori_bc-id-0)" fill="none" stroke="#000" stroke-width="8" d="M106.172,40.172 A4,4 0 0 1 109,39 h1048 a4,4 0 0 1 4,4 v496 a4,4 0 0 1 -4,4 h-1048 a4,4 0 0 1 -4,-4 v-496 A4,4 0 0 1 106.172,40.172"/></g><defs><clipPath id="satori_bc-id-1"><path x="72" y="63" width="1056" height="504" d="M76,63 h1048 a4,4 0 0 1 4,4 v496 a4,4 0 0 1 -4,4 h-1048 a4,4 0 0 1 -4,-4 v-496 a4,4 0 0 1 4,-4"/></clipPath></defs><mask id="satori_om-id-1"><rect x="76" y="67" width="1048" height="496" fill="#fff"/><path width="1056" height="504" fill="none" stroke="#000" stroke-width="8" d="M73.172,64.172 A4,4 0 0 1 76,63 h1048 a4,4 0 0 1 4,4 v496 a4,4 0 0 1 -4,4 h-1048 a4,4 0 0 1 -4,-4 v-496 A4,4 0 0 1 73.172,64.172"/></mask><path x="72" y="63" width="1056" height="504" fill="#fefbfb" d="M76,63 h1048 a4,4 0 0 1 4,4 v496 a4,4 0 0 1 -4,4 h-1048 a4,4 0 0 1 -4,-4 v-496 a4,4 0 0 1 4,-4"/><path width="1056" height="504" clip-path="url(#satori_bc-id-1)" fill="none" stroke="#000" stroke-width="8" d="M73.172,64.172 A4,4 0 0 1 76,63 h1048 a4,4 0 0 1 4,4 v496 a4,4 0 0 1 -4,4 h-1048 a4,4 0 0 1 -4,-4 v-496 A4,4 0 0 1 73.172,64.172"/><mask id="satori_om-id-1-0"><rect x="128" y="87" width="944" height="446" fill="#fff"/></mask><clipPath id="satori_cp-id-1-0-0"><rect x="128" y="103" width="944" height="94"/></clipPath><mask id="satori_om-id-1-0-0"><rect x="128" y="103" width="944" height="94" fill="#fff"/></mask><path fill="black" d="M168.9 183.0L130.3 183.0L130.3 126.8L168.9 126.8L168.9 183.0ZM137.5 134.0L137.5 175.8L161.7 175.8L161.7 134.0L137.5 134.0ZM212.1 183.0L173.5 183.0L173.5 126.8L212.1 126.8L212.1 183.0ZM180.7 134.0L180.7 175.8L204.9 175.8L204.9 134.0L180.7 134.0ZM218.6 183.0L218.6 129.7L229.3 129.7L229.3 152.6L229.8 152.6Q231.2 149.3 233.8 147.1Q236.4 144.9 240.8 144.9L240.8 144.9Q243.9 144.9 246.5 146.1Q249.0 147.2 250.9 149.6Q252.7 152.0 253.7 155.7Q254.8 159.3 254.8 164.4L254.8 164.4Q254.8 169.4 253.7 173.1Q252.7 176.8 250.9 179.1Q249.0 181.5 246.5 182.7Q243.9 183.8 240.8 183.8L240.8 183.8Q236.4 183.8 233.8 181.7Q231.2 179.6 229.8 176.2L229.8 176.2L229.3 176.2L229.3 183.0L218.6 183.0ZM236.2 175.5L236.2 175.5Q239.8 175.5 241.8 173.3Q243.7 171.1 243.7 167.3L243.7 167.3L243.7 161.5Q243.7 157.6 241.8 155.4Q239.8 153.2 236.2 153.2L236.2 153.2Q233.4 153.2 231.4 154.6Q229.3 156.0 229.3 158.9L229.3 158.9L229.3 169.8Q229.3 172.8 231.4 174.2Q233.4 175.5 236.2 175.5ZM298.8 183.0L292.7 183.0Q289.4 183.0 287.3 181.3Q285.3 179.6 285.0 176.4L285.0 176.4L284.6 176.4Q283.6 180.1 280.6 181.9Q277.6 183.8 273.3 183.8L273.3 183.8Q267.9 183.8 264.6 180.9Q261.3 178.0 261.3 172.7L261.3 172.7Q261.3 166.9 265.6 164.1Q269.8 161.3 278.0 161.3L278.0 161.3L284.0 161.3L284.0 159.4Q284.0 156.1 282.5 154.4Q280.9 152.7 277.3 152.7L277.3 152.7Q273.9 152.7 271.8 154.0Q269.7 155.3 268.2 157.4L268.2 157.4L262.4 152.2Q264.2 149.0 268.2 147.0Q272.2 144.9 278.5 144.9L278.5 144.9Q286.1 144.9 290.4 148.4Q294.7 151.9 294.7 159.0L294.7 159.0L294.7 175.2L298.8 175.2L298.8 183.0ZM277.3 176.8L277.3 176.8Q280.1 176.8 282.1 175.5Q284.0 174.1 284.0 171.5L284.0 171.5L284.0 167.0L278.3 167.0Q271.8 167.0 271.8 171.4L271.8 171.4L271.8 172.9Q271.8 174.8 273.3 175.8Q274.8 176.8 277.3 176.8ZM306.1 183.0L306.1 174.7L314.7 174.7L314.7 154.1L306.1 154.1L306.1 145.8L325.4 145.8L325.4 156.3L325.9 156.3Q326.4 154.3 327.3 152.4Q328.2 150.5 329.6 149.0Q331.0 147.5 333.0 146.7Q335.0 145.8 337.7 145.8L337.7 145.8L341.3 145.8L341.3 155.6L333.3 155.6Q329.4 155.6 327.4 157.9Q325.4 160.3 325.4 163.7L325.4 163.7L325.4 174.7L337.6 174.7L337.6 183.0L306.1 183.0ZM348.2 183.0L348.2 129.7L358.9 129.7L358.9 152.6L359.4 152.6Q360.8 149.3 363.4 147.1Q366.0 144.9 370.4 144.9L370.4 144.9Q373.5 144.9 376.1 146.1Q378.6 147.2 380.5 149.6Q382.3 152.0 383.3 155.7Q384.4 159.3 384.4 164.4L384.4 164.4Q384.4 169.4 383.3 173.1Q382.3 176.8 380.5 179.1Q378.6 181.5 376.1 182.7Q373.5 183.8 370.4 183.8L370.4 183.8Q366.0 183.8 363.4 181.7Q360.8 179.6 359.4 176.2L359.4 176.2L358.9 176.2L358.9 183.0L348.2 183.0ZM365.8 175.5L365.8 175.5Q369.4 175.5 371.4 173.3Q373.3 171.1 373.3 167.3L373.3 167.3L373.3 161.5Q373.3 157.6 371.4 155.4Q369.4 153.2 365.8 153.2L365.8 153.2Q363.0 153.2 361.0 154.6Q358.9 156.0 358.9 158.9L358.9 158.9L358.9 169.8Q358.9 172.8 361.0 174.2Q363.0 175.5 365.8 175.5ZM428.4 183.0L422.3 183.0Q419.0 183.0 416.9 181.3Q414.9 179.6 414.6 176.4L414.6 176.4L414.2 176.4Q413.2 180.1 410.2 181.9Q407.2 183.8 402.9 183.8L402.9 183.8Q397.5 183.8 394.2 180.9Q390.9 178.0 390.9 172.7L390.9 172.7Q390.9 166.9 395.2 164.1Q399.4 161.3 407.6 161.3L407.6 161.3L413.6 161.3L413.6 159.4Q413.6 156.1 412.1 154.4Q410.5 152.7 406.9 152.7L406.9 152.7Q403.5 152.7 401.4 154.0Q399.3 155.3 397.8 157.4L397.8 157.4L392.0 152.2Q393.8 149.0 397.8 147.0Q401.8 144.9 408.1 144.9L408.1 144.9Q415.7 144.9 420.0 148.4Q424.3 151.9 424.3 159.0L424.3 159.0L424.3 175.2L428.4 175.2L428.4 183.0ZM406.9 176.8L406.9 176.8Q409.7 176.8 411.7 175.5Q413.6 174.1 413.6 171.5L413.6 171.5L413.6 167.0L407.9 167.0Q401.4 167.0 401.4 171.4L401.4 171.4L401.4 172.9Q401.4 174.8 402.9 175.8Q404.4 176.8 406.9 176.8ZM452.0 183.8L452.0 183.8Q448.0 183.8 446.2 182.1Q444.4 180.3 444.4 177.8L444.4 177.8L444.4 175.3Q444.4 172.9 446.2 171.1Q448.0 169.3 452.0 169.3L452.0 169.3Q456.0 169.3 457.8 171.1Q459.6 172.9 459.6 175.3L459.6 175.3L459.6 177.8Q459.6 180.3 457.8 182.1Q456.0 183.8 452.0 183.8ZM480.2 197.4L480.2 189.1L494.5 189.1L494.5 154.1L480.1 154.1L480.1 145.8L505.1 145.8L505.1 186.6Q505.1 191.3 502.3 194.3Q499.5 197.4 493.8 197.4L493.8 197.4L480.2 197.4ZM499.8 141.0L499.8 141.0Q496.2 141.0 494.8 139.6Q493.4 138.1 493.4 136.0L493.4 136.0L493.4 133.9Q493.4 131.8 494.8 130.3Q496.2 128.9 499.8 128.9L499.8 128.9Q503.3 128.9 504.8 130.3Q506.2 131.8 506.2 133.9L506.2 133.9L506.2 136.0Q506.2 138.1 504.8 139.6Q503.3 141.0 499.8 141.0ZM538.0 183.8L538.0 183.8Q531.8 183.8 527.2 181.9Q522.6 180.1 520.3 176.8L520.3 176.8L526.3 171.3Q528.5 173.7 531.4 175.0Q534.3 176.3 538.0 176.3L538.0 176.3Q541.2 176.3 543.0 175.4Q544.8 174.4 544.8 172.4L544.8 172.4Q544.8 170.8 543.6 170.2Q542.4 169.6 540.2 169.2L540.2 169.2L534.2 168.3Q531.7 167.9 529.5 167.1Q527.4 166.4 525.8 165.1Q524.2 163.8 523.3 161.9Q522.3 160.1 522.3 157.4L522.3 157.4Q522.3 151.6 526.8 148.2Q531.3 144.9 539.3 144.9L539.3 144.9Q544.8 144.9 548.7 146.4Q552.5 147.9 554.8 150.6L554.8 150.6L549.5 156.7Q547.8 154.9 545.2 153.6Q542.6 152.4 539.0 152.4L539.0 152.4Q532.8 152.4 532.8 156.2L532.8 156.2Q532.8 157.8 534.0 158.4Q535.2 159.0 537.4 159.4L537.4 159.4L543.3 160.3Q545.8 160.7 548.0 161.5Q550.1 162.2 551.8 163.5Q553.4 164.8 554.3 166.7Q555.2 168.6 555.2 171.2L555.2 171.2Q555.2 177.0 550.7 180.4Q546.2 183.8 538.0 183.8Z " clip-path="url(#satori_cp-id-1-0-0)" mask="url(#satori_om-id-1-0-0)"/><mask id="satori_om-id-1-0-1"><rect x="128" y="489" width="944" height="36" fill="#fff"/></mask><mask id="satori_om-id-1-0-1-0"><rect x="128" y="489" width="152" height="36" fill="#fff"/></mask><path fill="black" d="M130.7 520.3L130.7 499.6L132.9 499.6L132.9 508.2L133.0 508.2Q134.4 505.5 137.5 505.5L137.5 505.5Q140.1 505.5 141.6 507.5Q143.1 509.5 143.1 513.0L143.1 513.0Q143.1 516.6 141.6 518.6Q140.1 520.6 137.5 520.6L137.5 520.6Q134.4 520.6 133.0 517.9L133.0 517.9L132.9 517.9L132.9 520.3L130.7 520.3ZM136.6 518.6L136.6 518.6Q138.6 518.6 139.6 517.4Q140.7 516.2 140.7 514.3L140.7 514.3L140.7 511.8Q140.7 509.9 139.6 508.7Q138.6 507.5 136.6 507.5L136.6 507.5Q135.8 507.5 135.2 507.7Q134.5 507.9 134.0 508.2Q133.5 508.6 133.2 509.2Q132.9 509.7 132.9 510.4L132.9 510.4L132.9 515.7Q132.9 516.4 133.2 516.9Q133.5 517.5 134.0 517.8Q134.5 518.2 135.2 518.4Q135.8 518.6 136.6 518.6ZM155.4 511.9L157.9 505.8L160.1 505.8L152.9 523.4Q152.7 524.1 152.4 524.5Q152.1 525.0 151.7 525.3Q151.2 525.6 150.7 525.7Q150.1 525.9 149.3 525.9L149.3 525.9L147.1 525.9L147.1 524.0L150.5 524.0L152.1 520.0L146.3 505.8L148.6 505.8L151.0 511.9L153.2 517.4L153.3 517.4L155.4 511.9Z "/><mask id="satori_om-id-1-0-1-0-1"><rect x="162" y="489" width="17" height="36" fill="#fff"/></mask><clipPath id="satori_cp-id-1-0-1-0-2"><rect x="179" y="489" width="101" height="36"/></clipPath><mask id="satori_om-id-1-0-1-0-2"><rect x="179" y="489" width="101" height="36" fill="#fff"/></mask><path fill="black" d="M195.0 520.1L192.6 520.1Q191.3 520.1 190.6 519.4Q189.8 518.8 189.6 517.5L189.6 517.5L189.5 517.5Q189.1 519.0 187.9 519.7Q186.8 520.4 185.1 520.4L185.1 520.4Q183.0 520.4 181.7 519.3Q180.5 518.2 180.5 516.1L180.5 516.1Q180.5 513.8 182.1 512.8Q183.8 511.7 187.0 511.7L187.0 511.7L189.3 511.7L189.3 510.9Q189.3 509.6 188.7 509.0Q188.1 508.3 186.6 508.3L186.6 508.3Q185.3 508.3 184.5 508.8Q183.7 509.3 183.1 510.2L183.1 510.2L180.8 508.1Q181.6 506.9 183.1 506.1Q184.7 505.3 187.1 505.3L187.1 505.3Q190.1 505.3 191.8 506.7Q193.4 508.0 193.4 510.8L193.4 510.8L193.4 517.1L195.0 517.1L195.0 520.1ZM186.7 517.7L186.7 517.7Q187.8 517.7 188.5 517.2Q189.3 516.6 189.3 515.6L189.3 515.6L189.3 513.9L187.1 513.9Q184.5 513.9 184.5 515.6L184.5 515.6L184.5 516.2Q184.5 516.9 185.1 517.3Q185.7 517.7 186.7 517.7ZM198.4 525.7L198.4 522.5L203.9 522.5L203.9 508.9L198.3 508.9L198.3 505.6L208.1 505.6L208.1 521.5Q208.1 523.3 207.0 524.5Q205.9 525.7 203.7 525.7L203.7 525.7L198.4 525.7ZM206.0 503.8L206.0 503.8Q204.6 503.8 204.0 503.2Q203.5 502.6 203.5 501.8L203.5 501.8L203.5 501.0Q203.5 500.2 204.0 499.6Q204.6 499.1 206.0 499.1L206.0 499.1Q207.4 499.1 207.9 499.6Q208.5 500.2 208.5 501.0L208.5 501.0L208.5 501.8Q208.5 502.6 207.9 503.2Q207.4 503.8 206.0 503.8ZM218.6 520.1L214.4 520.1L214.4 505.6L218.6 505.6L218.6 508.3L218.7 508.3Q219.0 507.7 219.3 507.1Q219.7 506.6 220.2 506.2Q220.7 505.8 221.4 505.5Q222.1 505.3 223.0 505.3L223.0 505.3Q224.0 505.3 224.9 505.7Q225.8 506.0 226.4 506.7Q227.0 507.4 227.3 508.4Q227.7 509.4 227.7 510.7L227.7 510.7L227.7 520.1L223.5 520.1L223.5 511.3Q223.5 508.5 221.1 508.5L221.1 508.5Q220.6 508.5 220.2 508.6Q219.7 508.8 219.3 509.0Q219.0 509.3 218.8 509.7Q218.6 510.1 218.6 510.6L218.6 510.6L218.6 520.1ZM242.9 520.1L238.9 520.1L238.9 516.3L230.1 516.3L230.1 512.8L237.9 500.5L242.9 500.5L242.9 513.1L245.4 513.1L245.4 516.3L242.9 516.3L242.9 520.1ZM238.6 504.9L233.5 513.1L238.9 513.1L238.9 504.9L238.6 504.9ZM254.6 520.4L254.6 520.4Q250.7 520.4 248.8 517.8Q247.0 515.1 247.0 510.3L247.0 510.3Q247.0 505.5 248.8 502.9Q250.7 500.2 254.6 500.2L254.6 500.2Q258.5 500.2 260.4 502.9Q262.2 505.5 262.2 510.3L262.2 510.3Q262.2 515.1 260.4 517.8Q258.5 520.4 254.6 520.4ZM254.6 517.1L254.6 517.1Q256.5 517.1 257.2 515.8Q258.0 514.5 258.0 512.1L258.0 512.1L258.0 508.5Q258.0 506.1 257.2 504.8Q256.5 503.5 254.6 503.5L254.6 503.5Q252.7 503.5 252.0 504.8Q251.2 506.1 251.2 508.5L251.2 508.5L251.2 512.1Q251.2 514.5 252.0 515.8Q252.7 517.1 254.6 517.1ZM254.6 512.0L254.6 512.0Q253.6 512.0 253.2 511.6Q252.9 511.2 252.9 510.6L252.9 510.6L252.9 510.0Q252.9 509.5 253.2 509.1Q253.6 508.7 254.6 508.7L254.6 508.7Q255.6 508.7 256.0 509.1Q256.3 509.5 256.3 510.0L256.3 510.0L256.3 510.6Q256.3 511.2 256.0 511.6Q255.6 512.0 254.6 512.0ZM276.5 520.1L272.5 520.1L272.5 516.3L263.7 516.3L263.7 512.8L271.5 500.5L276.5 500.5L276.5 513.1L279.0 513.1L279.0 516.3L276.5 516.3L276.5 520.1ZM272.2 504.9L267.1 513.1L272.5 513.1L272.5 504.9L272.2 504.9Z " clip-path="url(#satori_cp-id-1-0-1-0-2)" mask="url(#satori_om-id-1-0-1-0-2)"/><clipPath id="satori_cp-id-1-0-1-1"><rect x="1037" y="489" width="34" height="36"/></clipPath><mask id="satori_om-id-1-0-1-1"><rect x="1037" y="489" width="34" height="36" fill="#fff"/></mask><path fill="black" d="M1052.9 520.1L1037.9 520.1L1037.9 498.3L1052.9 498.3L1052.9 520.1ZM1040.7 501.1L1040.7 517.3L1050.1 517.3L1050.1 501.1L1040.7 501.1ZM1069.7 520.1L1054.7 520.1L1054.7 498.3L1069.7 498.3L1069.7 520.1ZM1057.5 501.1L1057.5 517.3L1066.9 517.3L1066.9 501.1L1057.5 501.1Z " clip-path="url(#satori_cp-id-1-0-1-1)" mask="url(#satori_om-id-1-0-1-1)"/></svg>