<svg width="1200" height="630" viewBox="0 0 1200 630" xmlns="http://www.w3.org/2000/svg"><mask id="satori_om-id"><rect x="0" y="0" width="1200" height="630" fill="#fff"/></mask><rect x="0" y="0" width="1200" height="630" fill="#fefbfb"/><defs><clipPath id="satori_bc-id-0"><path x="105" y="39" width="1056" height="504" d="M109,39 h1048 a4,4 0 0 1 4,4 v496 a4,4 0 0 1 -4,4 h-1048 a4,4 0 0 1 -4,-4 v-496 a4,4 0 0 1 4,-4"/></clipPath></defs><mask id="satori_om-id-0"><rect x="109" y="43" width="1048" height="496" fill="#fff"/><path width="1056" height="504" fill="none" stroke="#000" stroke-width="8" d="M106.172,40.172 A4,4 0 0 1 109,39 h1048 a4,4 0 0 1 4,4 v496 a4,4 0 0 1 -4,4 h-1048 a4,4 0 0 1 -4,-4 v-496 A4,4 0 0 1 106.172,40.172"/></mask><g opacity="0.9"><path x="105" y="39" width="1056" height="504" fill="#ecebeb" d="M109,39 h1048 a4,4 0 0 1 4,4 v496 a4,4 0 0 1 -4,4 h-1048 a4,4 0 0 1 -4,-4 v-496 a4,4 0 0 1 4,-4"/><path width="1056" height="504" clip-path="url(#satori_bc-id-0)" fill="none" stroke="#000" stroke-width="8" d="M106.172,40.172 A4,4 0 0 1 109,39 h1048 a4,4 0 0 1 4,4 v496 a4,4 0 0 1 -4,4 h-1048 a4,4 0 0 1 -4,-4 v-496 A4,4 0 0 1 106.172,40.172"/></g><defs><clipPath id="satori_bc-id-1"><path x="72" y="63" width="1056" height="504" d="M76,63 h1048 a4,4 0 0 1 4,4 v496 a4,4 0 0 1 -4,4 h-1048 a4,4 0 0 1 -4,-4 v-496 a4,4 0 0 1 4,-4"/></clipPath></defs><mask id="satori_om-id-1"><rect x="76" y="67" width="1048" height="496" fill="#fff"/><path width="1056" height="504" fill="none" stroke="#000" stroke-width="8" d="M73.172,64.172 A4,4 0 0 1 76,63 h1048 a4,4 0 0 1 4,4 v496 a4,4 0 0 1 -4,4 h-1048 a4,4 0 0 1 -4,-4 v-496 A4,4 0 0 1 73.172,64.172"/></mask><path x="72" y="63" width="1056" height="504" fill="#fefbfb" d="M76,63 h1048 a4,4 0 0 1 4,4 v496 a4,4 0 0 1 -4,4 h-1048 a4,4 0 0 1 -4,-4 v-496 a4,4 0 0 1 4,-4"/><path width="1056" height="504" clip-path="url(#satori_bc-id-1)" fill="none" stroke="#000" stroke-width="8" d="M73.172,64.172 A4,4 0 0 1 76,63 h1048 a4,4 0 0 1 4,4 v496 a4,4 0 0 1 -4,4 h-1048 a4,4 0 0 1 -4,-4 v-496 A4,4 0 0 1 73.172,64.172"/><mask id="satori_om-id-1-0"><rect x="128" y="87" width="944" height="446" fill="#fff"/></mask><clipPath id="satori_cp-id-1-0-0"><rect x="128" y="103" width="944" height="94"/></clipPath><mask id="satori_om-id-1-0-0"><rect x="128" y="103" width="944" height="94" fill="#fff"/></mask><path fill="black" d="M168.9 183.0L130.3 183.0L130.3 126.8L168.9 126.8L168.9 183.0ZM137.5 134.0L137.5 175.8L161.7 175.8L161.7 134.0L137.5 134.0ZM212.1 183.0L173.5 183.0L173.5 126.8L212.1 126.8L212.1 183.0ZM180.7 134.0L180.7 175.8L204.9 175.8L204.9 134.0L180.7 134.0ZM255.3 183.0L216.7 183.0L216.7 126.8L255.3 126.8L255.3 183.0ZM223.9 134.0L223.9 175.8L248.1 175.8L248.1 134.0L223.9 134.0ZM298.5 183.0L259.9 183.0L259.9 126.8L298.5 126.8L298.5 183.0ZM267.1 134.0L267.1 175.8L291.3 175.8L291.3 134.0L267.1 134.0ZM322.0 183.8L322.0 183.8Q315.8 183.8 311.2 181.9Q306.6 180.1 304.3 176.8L304.3 176.8L310.3 171.3Q312.5 173.7 315.4 175.0Q318.3 176.3 322.0 176.3L322.0 176.3Q325.2 176.3 327.0 175.4Q328.8 174.4 328.8 172.4L328.8 172.4Q328.8 170.8 327.6 170.2Q326.4 169.6 324.2 169.2L324.2 169.2L318.2 168.3Q315.7 167.9 313.5 167.1Q311.4 166.4 309.8 165.1Q308.2 163.8 307.3 161.9Q306.3 160.1 306.3 157.4L306.3 157.4Q306.3 151.6 310.8 148.2Q315.3 144.9 323.3 144.9L323.3 144.9Q328.8 144.9 332.7 146.4Q336.5 147.9 338.8 150.6L338.8 150.6L333.5 156.7Q331.8 154.9 329.2 153.6Q326.6 152.4 323.0 152.4L323.0 152.4Q316.8 152.4 316.8 156.2L316.8 156.2Q316.8 157.8 318.0 158.4Q319.2 159.0 321.4 159.4L321.4 159.4L327.3 160.3Q329.8 160.7 332.0 161.5Q334.1 162.2 335.8 163.5Q337.4 164.8 338.3 166.7Q339.2 168.6 339.2 171.2L339.2 171.2Q339.2 177.0 334.7 180.4Q330.2 183.8 322.0 183.8ZM348.2 197.4L348.2 145.8L358.9 145.8L358.9 152.6L359.4 152.6Q360.8 149.3 363.4 147.1Q366.0 144.9 370.4 144.9L370.4 144.9Q373.5 144.9 376.1 146.1Q378.6 147.2 380.5 149.6Q382.3 152.0 383.3 155.7Q384.4 159.3 384.4 164.4L384.4 164.4Q384.4 169.4 383.3 173.1Q382.3 176.8 380.5 179.1Q378.6 181.5 376.1 182.7Q373.5 183.8 370.4 183.8L370.4 183.8Q366.0 183.8 363.4 181.7Q360.8 179.6 359.4 176.2L359.4 176.2L358.9 176.2L358.9 197.4L348.2 197.4ZM365.8 175.5L365.8 175.5Q369.4 175.5 371.4 173.3Q373.3 171.1 373.3 167.3L373.3 167.3L373.3 161.5Q373.3 157.6 371.4 155.4Q369.4 153.2 365.8 153.2L365.8 153.2Q363.0 153.2 361.0 154.6Q358.9 156.0 358.9 158.9L358.9 158.9L358.9 169.8Q358.9 172.8 361.0 174.2Q363.0 175.5 365.8 175.5ZM392.5 183.0L392.5 174.7L401.1 174.7L401.1 154.1L392.5 154.1L392.5 145.8L411.8 145.8L411.8 156.3L412.3 156.3Q412.8 154.3 413.7 152.4Q414.6 150.5 416.0 149.0Q417.4 147.5 419.4 146.7Q421.4 145.8 424.1 145.8L424.1 145.8L427.7 145.8L427.7 155.6L419.7 155.6Q415.8 155.6 413.8 157.9Q411.8 160.3 411.8 163.7L411.8 163.7L411.8 174.7L424.0 174.7L424.0 183.0L392.5 183.0ZM454.3 141.0L454.3 141.0Q450.7 141.0 449.3 139.6Q447.9 138.1 447.9 136.0L447.9 136.0L447.9 133.9Q447.9 131.8 449.3 130.3Q450.7 128.9 454.3 128.9L454.3 128.9Q457.9 128.9 459.3 130.3Q460.7 131.8 460.7 133.9L460.7 133.9L460.7 136.0Q460.7 138.1 459.3 139.6Q457.9 141.0 454.3 141.0ZM437.2 183.0L437.2 174.7L449.0 174.7L449.0 154.1L437.2 154.1L437.2 145.8L459.6 145.8L459.6 174.7L470.6 174.7L470.6 183.0L437.2 183.0ZM488.9 183.0L478.3 183.0L478.3 145.8L488.9 145.8L488.9 152.6L489.4 152.6Q490.0 151.0 491.0 149.6Q491.9 148.2 493.2 147.2Q494.6 146.2 496.3 145.5Q498.1 144.9 500.3 144.9L500.3 144.9Q503.0 144.9 505.2 145.8Q507.4 146.7 509.0 148.5Q510.6 150.3 511.5 152.9Q512.4 155.5 512.4 158.9L512.4 158.9L512.4 183.0L501.8 183.0L501.8 160.3Q501.8 153.1 495.5 153.1L495.5 153.1Q494.3 153.1 493.1 153.5Q491.9 153.8 491.0 154.5Q490.0 155.2 489.5 156.2Q488.9 157.2 488.9 158.5L488.9 158.5L488.9 183.0ZM558.8 186.7L558.8 186.7Q558.8 192.6 553.8 195.4Q548.8 198.2 538.2 198.2L538.2 198.2Q532.9 198.2 529.4 197.6Q525.9 197.0 523.9 195.8Q521.8 194.7 521.0 193.1Q520.2 191.5 520.2 189.6L520.2 189.6Q520.2 186.5 522.1 184.9Q523.9 183.2 527.3 182.4L527.3 182.4L527.3 181.9Q524.9 181.2 523.5 179.9Q522.1 178.6 522.1 176.1L522.1 176.1Q522.1 173.4 524.0 172.1Q525.8 170.8 528.8 170.1L528.8 170.1L528.8 169.6Q525.5 168.0 523.7 165.2Q521.8 162.3 521.8 158.2L521.8 158.2Q521.8 154.9 523.0 152.5Q524.1 150.0 526.3 148.3Q528.4 146.7 531.3 145.8Q534.3 144.9 538.0 144.9L538.0 144.9Q541.5 144.9 544.5 145.7L544.5 145.7L544.5 143.7Q544.5 141.6 546.0 140.1Q547.5 138.7 550.2 138.7L550.2 138.7L556.8 138.7L556.8 146.4L547.8 146.4L547.8 147.1Q550.9 148.7 552.5 151.5Q554.2 154.2 554.2 158.2L554.2 158.2Q554.2 161.4 553.1 163.9Q551.9 166.3 549.8 168.0Q547.6 169.7 544.6 170.6Q541.6 171.4 538.0 171.4L538.0 171.4Q536.3 171.4 534.8 171.3Q533.3 171.1 531.9 170.7L531.9 170.7Q531.1 171.1 530.6 171.8Q530.0 172.4 530.0 173.4L530.0 173.4Q530.0 174.3 530.5 174.8Q530.9 175.3 531.7 175.6Q532.4 175.8 533.4 175.9Q534.4 176.0 535.5 176.0L535.5 176.0L544.0 176.0Q548.0 176.0 550.8 176.8Q553.6 177.6 555.4 179.0Q557.2 180.4 558.0 182.4Q558.8 184.3 558.8 186.7ZM548.7 187.5L548.7 187.5Q548.7 186.0 547.5 185.2Q546.4 184.4 543.2 184.4L543.2 184.4L530.4 184.4Q529.0 185.6 529.0 187.4L529.0 187.4Q529.0 189.1 530.4 190.3Q531.9 191.4 535.4 191.4L535.4 191.4L541.7 191.4Q545.4 191.4 547.0 190.4Q548.7 189.4 548.7 187.5ZM538.0 164.7L538.0 164.7Q541.2 164.7 542.7 163.1Q544.2 161.5 544.2 159.0L544.2 159.0L544.2 157.3Q544.2 154.9 542.7 153.3Q541.2 151.7 538.0 151.7L538.0 151.7Q534.8 151.7 533.4 153.3Q531.9 154.9 531.9 157.3L531.9 157.3L531.9 159.0Q531.9 161.5 533.4 163.1Q534.8 164.7 538.0 164.7ZM564.2 183.0L564.2 129.7L574.9 129.7L574.9 152.6L575.4 152.6Q576.8 149.3 579.4 147.1Q582.0 144.9 586.4 144.9L586.4 144.9Q589.5 144.9 592.1 146.1Q594.6 147.2 596.5 149.6Q598.3 152.0 599.3 155.7Q600.4 159.3 600.4 164.4L600.4 164.4Q600.4 169.4 599.3 173.1Q598.3 176.8 596.5 179.1Q594.6 181.5 592.1 182.7Q589.5 183.8 586.4 183.8L586.4 183.8Q582.0 183.8 579.4 181.7Q576.8 179.6 575.4 176.2L575.4 176.2L574.9 176.2L574.9 183.0L564.2 183.0ZM581.8 175.5L581.8 175.5Q585.4 175.5 587.4 173.3Q589.3 171.1 589.3 167.3L589.3 167.3L589.3 161.5Q589.3 157.6 587.4 155.4Q585.4 153.2 581.8 153.2L581.8 153.2Q579.0 153.2 577.0 154.6Q574.9 156.0 574.9 158.9L574.9 158.9L574.9 169.8Q574.9 172.8 577.0 174.2Q579.0 175.5 581.8 175.5ZM624.8 183.8L624.8 183.8Q620.5 183.8 617.0 182.5Q613.6 181.2 611.2 178.6Q608.7 176.1 607.4 172.5Q606.2 168.9 606.2 164.4L606.2 164.4Q606.2 159.8 607.4 156.2Q608.7 152.6 611.2 150.1Q613.6 147.6 617.0 146.3Q620.5 144.9 624.8 144.9L624.8 144.9Q629.1 144.9 632.6 146.3Q636.0 147.6 638.4 150.1Q640.9 152.6 642.2 156.2Q643.4 159.8 643.4 164.4L643.4 164.4Q643.4 168.9 642.2 172.5Q640.9 176.1 638.4 178.6Q636.0 181.2 632.6 182.5Q629.1 183.8 624.8 183.8ZM624.8 175.9L624.8 175.9Q628.4 175.9 630.4 173.7Q632.4 171.4 632.4 167.3L632.4 167.3L632.4 161.4Q632.4 157.3 630.4 155.1Q628.4 152.9 624.8 152.9L624.8 152.9Q621.2 152.9 619.2 155.1Q617.2 157.3 617.2 161.4L617.2 161.4L617.2 167.3Q617.2 171.4 619.2 173.7Q621.2 175.9 624.8 175.9ZM668.0 183.8L668.0 183.8Q663.7 183.8 660.2 182.5Q656.8 181.2 654.4 178.6Q651.9 176.1 650.6 172.5Q649.4 168.9 649.4 164.4L649.4 164.4Q649.4 159.8 650.6 156.2Q651.9 152.6 654.4 150.1Q656.8 147.6 660.2 146.3Q663.7 144.9 668.0 144.9L668.0 144.9Q672.3 144.9 675.8 146.3Q679.2 147.6 681.6 150.1Q684.1 152.6 685.4 156.2Q686.6 159.8 686.6 164.4L686.6 164.4Q686.6 168.9 685.4 172.5Q684.1 176.1 681.6 178.6Q679.2 181.2 675.8 182.5Q672.3 183.8 668.0 183.8ZM668.0 175.9L668.0 175.9Q671.6 175.9 673.6 173.7Q675.6 171.4 675.6 167.3L675.6 167.3L675.6 161.4Q675.6 157.3 673.6 155.1Q671.6 152.9 668.0 152.9L668.0 152.9Q664.4 152.9 662.4 155.1Q660.4 157.3 660.4 161.4L660.4 161.4L660.4 167.3Q660.4 171.4 662.4 173.7Q664.4 175.9 668.0 175.9ZM727.8 183.0L714.1 183.0Q708.3 183.0 705.5 179.9Q702.7 176.9 702.7 172.2L702.7 172.2L702.7 154.1L692.6 154.1L692.6 145.8L699.2 145.8Q701.6 145.8 702.6 144.9Q703.6 143.9 703.6 141.4L703.6 141.4L703.6 132.7L713.4 132.7L713.4 145.8L727.8 145.8L727.8 154.1L713.4 154.1L713.4 174.7L727.8 174.7L727.8 183.0Z " clip-path="url(#satori_cp-id-1-0-0)" mask="url(#satori_om-id-1-0-0)"/><mask id="satori_om-id-1-0-1"><rect x="128" y="489" width="944" height="36" fill="#fff"/></mask><mask id="satori_om-id-1-0-1-0"><rect x="128" y="489" width="152" height="36" fill="#fff"/></mask><path fill="black" d="M130.7 520.3L130.7 499.6L132.9 499.6L132.9 508.2L133.0 508.2Q134.4 505.5 137.5 505.5L137.5 505.5Q140.1 505.5 141.6 507.5Q143.1 509.5 143.1 513.0L143.1 513.0Q143.1 516.6 141.6 518.6Q140.1 520.6 137.5 520.6L137.5 520.6Q134.4 520.6 133.0 517.9L133.0 517.9L132.9 517.9L132.9 520.3L130.7 520.3ZM136.6 518.6L136.6 518.6Q138.6 518.6 139.6 517.4Q140.7 516.2 140.7 514.3L140.7 514.3L140.7 511.8Q140.7 509.9 139.6 508.7Q138.6 507.5 136.6 507.5L136.6 507.5Q135.8 507.5 135.2 507.7Q134.5 507.9 134.0 508.2Q133.5 508.6 133.2 509.2Q132.9 509.7 132.9 510.4L132.9 510.4L132.9 515.7Q132.9 516.4 133.2 516.9Q133.5 517.5 134.0 517.8Q134.5 518.2 135.2 518.4Q135.8 518.6 136.6 518.6ZM155.4 511.9L157.9 505.8L160.1 505.8L152.9 523.4Q152.7 524.1 152.4 524.5Q152.1 525.0 151.7 525.3Q151.2 525.6 150.7 525.7Q150.1 525.9 149.3 525.9L149.3 525.9L147.1 525.9L147.1 524.0L150.5 524.0L152.1 520.0L146.3 505.8L148.6 505.8L151.0 511.9L153.2 517.4L153.3 517.4L155.4 511.9Z "/><mask id="satori_om-id-1-0-1-0-1"><rect x="162" y="489" width="17" height="36" fill="#fff"/></mask><clipPath id="satori_cp-id-1-0-1-0-2"><rect x="179" y="489" width="101" height="36"/></clipPath><mask id="satori_om-id-1-0-1-0-2"><rect x="179" y="489" width="101" height="36" fill="#fff"/></mask><path fill="black" d="M195.0 520.1L192.6 520.1Q191.3 520.1 190.6 519.4Q189.8 518.8 189.6 517.5L189.6 517.5L189.5 517.5Q189.1 519.0 187.9 519.7Q186.8 520.4 185.1 520.4L185.1 520.4Q183.0 520.4 181.7 519.3Q180.5 518.2 180.5 516.1L180.5 516.1Q180.5 513.8 182.1 512.8Q183.8 511.7 187.0 511.7L187.0 511.7L189.3 511.7L189.3 510.9Q189.3 509.6 188.7 509.0Q188.1 508.3 186.6 508.3L186.6 508.3Q185.3 508.3 184.5 508.8Q183.7 509.3 183.1 510.2L183.1 510.2L180.8 508.1Q181.6 506.9 183.1 506.1Q184.7 505.3 187.1 505.3L187.1 505.3Q190.1 505.3 191.8 506.7Q193.4 508.0 193.4 510.8L193.4 510.8L193.4 517.1L195.0 517.1L195.0 520.1ZM186.7 517.7L186.7 517.7Q187.8 517.7 188.5 517.2Q189.3 516.6 189.3 515.6L189.3 515.6L189.3 513.9L187.1 513.9Q184.5 513.9 184.5 515.6L184.5 515.6L184.5 516.2Q184.5 516.9 185.1 517.3Q185.7 517.7 186.7 517.7ZM198.4 525.7L198.4 522.5L203.9 522.5L203.9 508.9L198.3 508.9L198.3 505.6L208.1 505.6L208.1 521.5Q208.1 523.3 207.0 524.5Q205.9 525.7 203.7 525.7L203.7 525.7L198.4 525.7ZM206.0 503.8L206.0 503.8Q204.6 503.8 204.0 503.2Q203.5 502.6 203.5 501.8L203.5 501.8L203.5 501.0Q203.5 500.2 204.0 499.6Q204.6 499.1 206.0 499.1L206.0 499.1Q207.4 499.1 207.9 499.6Q208.5 500.2 208.5 501.0L208.5 501.0L208.5 501.8Q208.5 502.6 207.9 503.2Q207.4 503.8 206.0 503.8ZM218.6 520.1L214.4 520.1L214.4 505.6L218.6 505.6L218.6 508.3L218.7 508.3Q219.0 507.7 219.3 507.1Q219.7 506.6 220.2 506.2Q220.7 505.8 221.4 505.5Q222.1 505.3 223.0 505.3L223.0 505.3Q224.0 505.3 224.9 505.7Q225.8 506.0 226.4 506.7Q227.0 507.4 227.3 508.4Q227.7 509.4 227.7 510.7L227.7 510.7L227.7 520.1L223.5 520.1L223.5 511.3Q223.5 508.5 221.1 508.5L221.1 508.5Q220.6 508.5 220.2 508.6Q219.7 508.8 219.3 509.0Q219.0 509.3 218.8 509.7Q218.6 510.1 218.6 510.6L218.6 510.6L218.6 520.1ZM242.9 520.1L238.9 520.1L238.9 516.3L230.1 516.3L230.1 512.8L237.9 500.5L242.9 500.5L242.9 513.1L245.4 513.1L245.4 516.3L242.9 516.3L242.9 520.1ZM238.6 504.9L233.5 513.1L238.9 513.1L238.9 504.9L238.6 504.9ZM254.6 520.4L254.6 520.4Q250.7 520.4 248.8 517.8Q247.0 515.1 247.0 510.3L247.0 510.3Q247.0 505.5 248.8 502.9Q250.7 500.2 254.6 500.2L254.6 500.2Q258.5 500.2 260.4 502.9Q262.2 505.5 262.2 510.3L262.2 510.3Q262.2 515.1 260.4 517.8Q258.5 520.4 254.6 520.4ZM254.6 517.1L254.6 517.1Q256.5 517.1 257.2 515.8Q258.0 514.5 258.0 512.1L258.0 512.1L258.0 508.5Q258.0 506.1 257.2 504.8Q256.5 503.5 254.6 503.5L254.6 503.5Q252.7 503.5 252.0 504.8Q251.2 506.1 251.2 508.5L251.2 508.5L251.2 512.1Q251.2 514.5 252.0 515.8Q252.7 517.1 254.6 517.1ZM254.6 512.0L254.6 512.0Q253.6 512.0 253.2 511.6Q252.9 511.2 252.9 510.6L252.9 510.6L252.9 510.0Q252.9 509.5 253.2 509.1Q253.6 508.7 254.6 508.7L254.6 508.7Q255.6 508.7 256.0 509.1Q256.3 509.5 256.3 510.0L256.3 510.0L256.3 510.6Q256.3 511.2 256.0 511.6Q255.6 512.0 254.6 512.0ZM276.5 520.1L272.5 520.1L272.5 516.3L263.7 516.3L263.7 512.8L271.5 500.5L276.5 500.5L276.5 513.1L279.0 513.1L279.0 516.3L276.5 516.3L276.5 520.1ZM272.2 504.9L267.1 513.1L272.5 513.1L272.5 504.9L272.2 504.9Z " clip-path="url(#satori_cp-id-1-0-1-0-2)" mask="url(#satori_om-id-1-0-1-0-2)"/><clipPath id="satori_cp-id-1-0-1-1"><rect x="1037" y="489" width="34" height="36"/></clipPath><mask id="satori_om-id-1-0-1-1"><rect x="1037" y="489" width="34" height="36" fill="#fff"/></mask><path fill="black" d="M1052.9 520.1L1037.9 520.1L1037.9 498.3L1052.9 498.3L1052.9 520.1ZM1040.7 501.1L1040.7 517.3L1050.1 517.3L1050.1 501.1L1040.7 501.1ZM1069.7 520.1L1054.7 520.1L1054.7 498.3L1069.7 498.3L1069.7 520.1ZM1057.5 501.1L1057.5 517.3L1066.9 517.3L1066.9 501.1L1057.5 501.1Z " clip-path="url(#satori_cp-id-1-0-1-1)" mask="url(#satori_om-id-1-0-1-1)"/></svg>